SplineFontDB: 3.2
FontName: FiraSans-Black
FullName: Fira Sans Black
FamilyName: Fira Sans Black
Weight: Black
Copyright: Digitized data copyright 2012-2016, The Mozilla Foundation and Telefonica S.A.
Version: 4.203
ItalicAngle: 0
UnderlinePosition: -100
UnderlineWidth: 50
Ascent: 800
Descent: 200
InvalidEm: 0
sfntRevision: 0x000433f7
LayerCount: 2
Layer: 0 1 "Back" 1
Layer: 1 1 "Fore" 0
XUID: [1021 227 619628444 11027715]
StyleMap: 0x0040
FSType: 0
OS2Version: 4
OS2_WeightWidthSlopeOnly: 0
OS2_UseTypoMetrics: 1
CreationTime: 1476947922
ModificationTime: 1480667554
PfmFamily: 17
TTFWeight: 900
TTFWidth: 5
LineGap: 0
VLineGap: 0
Panose: 2 11 10 3 5 0 0 2 0 4
OS2TypoAscent: 935
OS2TypoAOffset: 0
OS2TypoDescent: -265
OS2TypoDOffset: 0
OS2TypoLinegap: 0
OS2WinAscent: 935
OS2WinAOffset: 0
OS2WinDescent: 265
OS2WinDOffset: 0
HheadAscent: 935
HheadAOffset: 0
HheadDescent: -265
HheadDOffset: 0
OS2SubXSize: 650
OS2SubYSize: 600
OS2SubXOff: 0
OS2SubYOff: 75
OS2SupXSize: 650
OS2SupYSize: 600
OS2SupXOff: 0
OS2SupYOff: 350
OS2StrikeYSize: 50
OS2StrikeYPos: 320
OS2CapHeight: 696
OS2XHeight: 534
OS2Vendor: 'CTDB'
OS2CodePages: 2000019f.00000000
OS2UnicodeRanges: 600002ff.00000001.00000000.00000000
Lookup: 1 0 0 "'aalt' Access All Alternates lookup 0" { "'aalt' Access All Alternates lookup 0 subtable"  } ['aalt' ('DFLT' <'dflt' > 'cyrl' <'dflt' > 'grek' <'dflt' > 'latn' <'AFK ' 'AZE ' 'CAT ' 'CRT ' 'KAZ ' 'MOL ' 'PLK ' 'ROM ' 'TAT ' 'TRK ' 'dflt' > ) ]
Lookup: 3 0 0 "'aalt' Access All Alternates lookup 1" { "'aalt' Access All Alternates lookup 1 subtable"  } ['aalt' ('DFLT' <'dflt' > 'cyrl' <'dflt' > 'grek' <'dflt' > 'latn' <'AFK ' 'AZE ' 'CAT ' 'CRT ' 'KAZ ' 'MOL ' 'PLK ' 'ROM ' 'TAT ' 'TRK ' 'dflt' > ) ]
Lookup: 1 0 0 "'locl' Localized Forms in Latin lookup 2" { "'locl' Localized Forms in Latin lookup 2 subtable"  } ['locl' ('latn' <'TAT ' > ) ]

StartChar: .notdef
Encoding: 65536 -1 0
Width: 666
GlyphClass: 1
Flags: W
LayerCount: 2
Fore
SplineSet
543 1050 m 1,0,-1
 543 -350 l 1,1,-1
 123 -350 l 1,2,-1
 123 1050 l 1,3,-1
 543 1050 l 1,0,-1
489 998 m 1,4,-1
 178 998 l 1,5,-1
 178 -298 l 1,6,-1
 489 -298 l 1,7,-1
 489 998 l 1,4,-1
409.5 419 m 128,-1,9
 435 387 435 387 435 336 c 0,10,11
 435 283 435 283 412.5 254 c 128,-1,12
 390 225 390 225 340 218 c 1,13,-1
 340 173 l 2,14,15
 340 162 340 162 332.5 155.5 c 128,-1,16
 325 149 325 149 315 149 c 256,17,18
 305 149 305 149 297.5 155.5 c 128,-1,19
 290 162 290 162 290 173 c 2,20,-1
 290 257 l 1,21,22
 343 260 343 260 362 276.5 c 128,-1,23
 381 293 381 293 381 334 c 0,24,25
 381 367 381 367 368 385 c 128,-1,26
 355 403 355 403 320 403 c 0,27,28
 291 403 291 403 268 392 c 0,29,30
 260 389 260 389 255 389 c 0,31,32
 244 389 244 389 237.5 395.5 c 128,-1,33
 231 402 231 402 231 412 c 0,34,35
 231 431 231 431 260.5 441 c 128,-1,36
 290 451 290 451 324 451 c 0,37,8
 384 451 384 451 409.5 419 c 128,-1,9
340 110 m 128,-1,39
 350 100 350 100 350 85 c 0,40,41
 350 69 350 69 340 58.5 c 128,-1,42
 330 48 330 48 315 48 c 256,43,44
 300 48 300 48 290 58.5 c 128,-1,45
 280 69 280 69 280 85 c 0,46,47
 280 100 280 100 290 110 c 128,-1,48
 300 120 300 120 315 120 c 256,49,38
 330 120 330 120 340 110 c 128,-1,39
EndSplineSet
EndChar

StartChar: A
Encoding: 65 65 3
Width: 601
GlyphClass: 2
Flags: W
AnchorPoint: "Anchor-18" 0 0 basechar 0
AnchorPoint: "Anchor-17" 0 0 basechar 0
AnchorPoint: "Anchor-16" 301 696 basechar 0
AnchorPoint: "Anchor-15" 526 0 basechar 0
AnchorPoint: "Anchor-14" 301 0 basechar 0
LayerCount: 2
Fore
SplineSet
408 0 m 1,0,-1
 381 135 l 1,1,-1
 216 135 l 1,2,-1
 190 0 l 1,3,-1
 -25 0 l 1,4,-1
 178 696 l 1,5,-1
 424 696 l 1,6,-1
 626 0 l 1,7,-1
 408 0 l 1,0,-1
245 279 m 1,8,-1
 352 279 l 1,9,-1
 298 552 l 1,10,-1
 245 279 l 1,8,-1
EndSplineSet
Substitution2: "Single Substitution lookup 45 subtable" ordfeminine
Substitution2: "'c2sc' Capitals to Small Capitals lookup 26 subtable" a.sc
AlternateSubs2: "'aalt' Access All Alternates lookup 1 subtable" ordfeminine a.sc
Position2: "'cpsp' Capital Spacing lookup 0 subtable" dx=5 dy=0 dh=10 dv=0
EndChar

StartChar: uni2C6D
Encoding: 11373 11373 27
Width: 688
GlyphClass: 2
Flags: W
AnchorPoint: "Anchor-18" 0 0 basechar 0
AnchorPoint: "Anchor-17" 0 0 basechar 0
AnchorPoint: "Anchor-16" 344 696 basechar 0
AnchorPoint: "Anchor-15" 0 0 basechar 0
AnchorPoint: "Anchor-14" 344 0 basechar 0
LayerCount: 2
Fore
SplineSet
647 152 m 128,-1,1
 656 135 656 135 679 123 c 1,2,-1
 623 -20 l 1,3,4
 568 -12 568 -12 532 5.5 c 128,-1,5
 496 23 496 23 472 54 c 1,6,7
 405 -20 405 -20 295 -20 c 0,8,9
 211 -20 211 -20 149 23.5 c 128,-1,10
 87 67 87 67 53.5 148 c 128,-1,11
 20 229 20 229 20 339 c 0,12,13
 20 455 20 455 55.5 540 c 128,-1,14
 91 625 91 625 153.5 670.5 c 128,-1,15
 216 716 216 716 297 716 c 0,16,17
 347 716 347 716 384.5 698 c 128,-1,18
 422 680 422 680 454 648 c 1,19,-1
 464 696 l 1,20,-1
 638 696 l 1,21,-1
 638 201 l 2,22,0
 638 169 638 169 647 152 c 128,-1,1
260.5 170 m 128,-1,24
 287 121 287 121 343 121 c 0,25,26
 394 121 394 121 432 156 c 1,27,-1
 432 532 l 1,28,29
 396 570 396 570 343 570 c 0,30,31
 287 570 287 570 260.5 517 c 128,-1,32
 234 464 234 464 234 339 c 0,33,23
 234 219 234 219 260.5 170 c 128,-1,24
EndSplineSet
Substitution2: "'c2sc' Capitals to Small Capitals lookup 26 subtable" uni0251.sc
Substitution2: "'aalt' Access All Alternates lookup 0 subtable" uni0251.sc
Position2: "'cpsp' Capital Spacing lookup 0 subtable" dx=5 dy=0 dh=10 dv=0
EndChar

StartChar: Aogonek
Encoding: 260 260 29
Width: 601
GlyphClass: 2
Flags: W
AnchorPoint: "Anchor-18" 0 0 basechar 0
AnchorPoint: "Anchor-17" 0 0 basechar 0
AnchorPoint: "Anchor-16" 301 696 basechar 0
AnchorPoint: "Anchor-15" 526 0 basechar 0
AnchorPoint: "Anchor-14" 301 0 basechar 0
LayerCount: 2
Fore
SplineSet
426 -47 m 128,-1,1
 401 -72 401 -72 401 -95 c 0,2,3
 401 -139 401 -139 452 -139 c 0,4,5
 478 -139 478 -139 513 -131 c 1,6,-1
 501 -246 l 1,7,8
 466 -254 466 -254 427 -254 c 0,9,10
 357 -254 357 -254 312 -220 c 128,-1,11
 267 -186 267 -186 267 -128 c 0,12,13
 267 -23 267 -23 401 33 c 1,14,-1
 381 135 l 1,15,-1
 216 135 l 1,16,-1
 190 0 l 1,17,-1
 -25 0 l 1,18,-1
 178 696 l 1,19,-1
 424 696 l 1,20,-1
 626 0 l 1,21,-1
 516 0 l 1,22,0
 451 -22 451 -22 426 -47 c 128,-1,1
245 279 m 1,23,-1
 352 279 l 1,24,-1
 298 552 l 1,25,-1
 245 279 l 1,23,-1
EndSplineSet
Substitution2: "'c2sc' Capitals to Small Capitals lookup 26 subtable" aogonek.sc
Substitution2: "'aalt' Access All Alternates lookup 0 subtable" aogonek.sc
Position2: "'cpsp' Capital Spacing lookup 0 subtable" dx=5 dy=0 dh=10 dv=0
EndChar

StartChar: uni023A
Encoding: 570 570 32
Width: 601
GlyphClass: 2
Flags: W
AnchorPoint: "Anchor-18" 0 0 basechar 0
AnchorPoint: "Anchor-17" 0 0 basechar 0
AnchorPoint: "Anchor-16" 301 696 basechar 0
AnchorPoint: "Anchor-15" 0 0 basechar 0
AnchorPoint: "Anchor-14" 301 0 basechar 0
LayerCount: 2
Fore
SplineSet
428 0 m 1,0,-1
 397 135 l 1,1,-1
 300 135 l 1,2,-1
 244 -77 l 1,3,-1
 178 -62 l 1,4,-1
 230 135 l 1,5,-1
 200 135 l 1,6,-1
 170 0 l 1,7,-1
 -25 0 l 1,8,-1
 178 696 l 1,9,-1
 378 696 l 1,10,-1
 395 759 l 1,11,-1
 460 744 l 1,12,-1
 436 654 l 1,13,-1
 626 0 l 1,14,-1
 428 0 l 1,0,-1
230 269 m 1,15,-1
 265 269 l 1,16,-1
 320 475 l 1,17,-1
 298 572 l 1,18,-1
 230 269 l 1,15,-1
335 269 m 1,19,-1
 367 269 l 1,20,-1
 352 334 l 1,21,-1
 335 269 l 1,19,-1
EndSplineSet
Substitution2: "'c2sc' Capitals to Small Capitals lookup 26 subtable" uni2C65.sc
Substitution2: "'aalt' Access All Alternates lookup 0 subtable" uni2C65.sc
Position2: "'cpsp' Capital Spacing lookup 0 subtable" dx=5 dy=0 dh=10 dv=0
EndChar

StartChar: AE
Encoding: 198 198 34
Width: 863
GlyphClass: 2
Flags: W
AnchorPoint: "Anchor-18" 0 0 basechar 0
AnchorPoint: "Anchor-17" 0 0 basechar 0
AnchorPoint: "Anchor-16" 489 696 basechar 0
AnchorPoint: "Anchor-15" 0 0 basechar 0
AnchorPoint: "Anchor-14" 432 0 basechar 0
LayerCount: 2
Fore
SplineSet
610 144 m 1,0,-1
 843 144 l 1,1,-1
 843 0 l 1,2,-1
 436 0 l 1,3,-1
 418 135 l 1,4,-1
 235 135 l 1,5,-1
 194 0 l 1,6,-1
 -30 0 l 1,7,-1
 241 696 l 1,8,-1
 808 696 l 1,9,-1
 787 553 l 1,10,-1
 540 553 l 1,11,-1
 563 421 l 1,12,-1
 799 421 l 1,13,-1
 799 282 l 1,14,-1
 586 282 l 1,15,-1
 610 144 l 1,0,-1
279 279 m 1,16,-1
 398 279 l 1,17,-1
 362 549 l 1,18,-1
 279 279 l 1,16,-1
EndSplineSet
Substitution2: "'c2sc' Capitals to Small Capitals lookup 26 subtable" ae.sc
Substitution2: "'aalt' Access All Alternates lookup 0 subtable" ae.sc
Position2: "'cpsp' Capital Spacing lookup 0 subtable" dx=5 dy=0 dh=10 dv=0
EndChar

StartChar: B
Encoding: 66 66 37
Width: 622
GlyphClass: 2
Flags: W
AnchorPoint: "Anchor-18" 0 0 basechar 0
AnchorPoint: "Anchor-17" 0 0 basechar 0
AnchorPoint: "Anchor-16" 291 696 basechar 0
AnchorPoint: "Anchor-15" 0 0 basechar 0
AnchorPoint: "Anchor-14" 310 0 basechar 0
LayerCount: 2
Fore
SplineSet
564 317.5 m 128,-1,1
 607 280 607 280 607 206 c 0,2,3
 607 91 607 91 523.5 45.5 c 128,-1,4
 440 0 440 0 287 0 c 2,5,-1
 43 0 l 1,6,-1
 43 696 l 1,7,-1
 260 696 l 2,8,9
 415 696 415 696 496.5 654.5 c 128,-1,10
 578 613 578 613 578 516 c 0,11,12
 578 454 578 454 542 418.5 c 128,-1,13
 506 383 506 383 452 369 c 1,14,0
 521 355 521 355 564 317.5 c 128,-1,1
249 555 m 1,15,-1
 249 427 l 1,16,-1
 284 427 l 2,17,18
 331 427 331 427 350 442.5 c 128,-1,19
 369 458 369 458 369 495 c 0,20,21
 369 526 369 526 348.5 540.5 c 128,-1,22
 328 555 328 555 279 555 c 2,23,-1
 249 555 l 1,15,-1
368 161 m 128,-1,25
 395 177 395 177 395 220 c 0,26,27
 395 260 395 260 370.5 278.5 c 128,-1,28
 346 297 346 297 297 297 c 2,29,-1
 249 297 l 1,30,-1
 249 145 l 1,31,-1
 289 145 l 2,32,24
 341 145 341 145 368 161 c 128,-1,25
EndSplineSet
Substitution2: "'c2sc' Capitals to Small Capitals lookup 26 subtable" b.sc
Substitution2: "'aalt' Access All Alternates lookup 0 subtable" b.sc
Position2: "'cpsp' Capital Spacing lookup 0 subtable" dx=5 dy=0 dh=10 dv=0
EndChar

StartChar: uniA7B4
Encoding: 42932 42932 40
Width: 622
GlyphClass: 2
Flags: W
AnchorPoint: "Anchor-18" 0 0 basechar 0
AnchorPoint: "Anchor-17" 0 0 basechar 0
AnchorPoint: "Anchor-16" 311 696 basechar 0
AnchorPoint: "Anchor-15" 0 0 basechar 0
AnchorPoint: "Anchor-14" 311 -215 basechar 0
LayerCount: 2
Fore
SplineSet
563.5 318 m 128,-1,1
 607 281 607 281 607 208 c 0,2,3
 607 96 607 96 530 48 c 128,-1,4
 453 0 453 0 337 0 c 0,5,6
 298 0 298 0 249 7 c 1,7,-1
 249 -215 l 1,8,-1
 43 -215 l 1,9,-1
 43 696 l 1,10,-1
 260 696 l 2,11,12
 415 696 415 696 496.5 654.5 c 128,-1,13
 578 613 578 613 578 516 c 0,14,15
 578 454 578 454 542 418.5 c 128,-1,16
 506 383 506 383 452 369 c 1,17,0
 520 355 520 355 563.5 318 c 128,-1,1
395 224 m 0,19,20
 395 261 395 261 375 279 c 128,-1,21
 355 297 355 297 317 297 c 2,22,-1
 293 297 l 1,23,-1
 303 427 l 1,24,-1
 306 427 l 2,25,26
 335 427 335 427 352 443 c 128,-1,27
 369 459 369 459 369 490 c 0,28,29
 369 525 369 525 348.5 540 c 128,-1,30
 328 555 328 555 279 555 c 2,31,-1
 249 555 l 1,32,-1
 249 148 l 1,33,34
 276 145 276 145 302 145 c 0,35,18
 395 145 395 145 395 224 c 0,19,20
EndSplineSet
Substitution2: "'c2sc' Capitals to Small Capitals lookup 26 subtable" uniA7B5.sc
Substitution2: "'aalt' Access All Alternates lookup 0 subtable" uniA7B5.sc
Position2: "'cpsp' Capital Spacing lookup 0 subtable" dx=5 dy=0 dh=10 dv=0
EndChar

StartChar: uni0181
Encoding: 385 385 41
Width: 799
GlyphClass: 2
Flags: W
AnchorPoint: "Anchor-18" 0 0 basechar 0
AnchorPoint: "Anchor-17" 0 0 basechar 0
AnchorPoint: "Anchor-16" 468 696 basechar 0
AnchorPoint: "Anchor-15" 0 0 basechar 0
AnchorPoint: "Anchor-14" 487 0 basechar 0
LayerCount: 2
Fore
SplineSet
741 317.5 m 128,-1,1
 784 280 784 280 784 206 c 0,2,3
 784 91 784 91 700.5 45.5 c 128,-1,4
 617 0 617 0 464 0 c 2,5,-1
 220 0 l 1,6,-1
 220 553 l 1,7,-1
 195 553 l 2,8,9
 154 553 154 553 154 516 c 0,10,11
 154 502 154 502 157.5 488.5 c 128,-1,12
 161 475 161 475 169 455 c 1,13,-1
 46 403 l 1,14,15
 25 436 25 436 12.5 466.5 c 128,-1,16
 0 497 0 497 0 530 c 0,17,18
 0 608 0 608 56.5 652 c 128,-1,19
 113 696 113 696 206 696 c 2,20,-1
 437 696 l 2,21,22
 592 696 592 696 673.5 654.5 c 128,-1,23
 755 613 755 613 755 516 c 0,24,25
 755 454 755 454 719 418.5 c 128,-1,26
 683 383 683 383 629 369 c 1,27,0
 698 355 698 355 741 317.5 c 128,-1,1
426 555 m 1,28,-1
 426 427 l 1,29,-1
 461 427 l 2,30,31
 508 427 508 427 527 442.5 c 128,-1,32
 546 458 546 458 546 495 c 0,33,34
 546 526 546 526 525.5 540.5 c 128,-1,35
 505 555 505 555 456 555 c 2,36,-1
 426 555 l 1,28,-1
545 161 m 128,-1,38
 572 177 572 177 572 220 c 0,39,40
 572 260 572 260 547.5 278.5 c 128,-1,41
 523 297 523 297 474 297 c 2,42,-1
 426 297 l 1,43,-1
 426 145 l 1,44,-1
 466 145 l 2,45,37
 518 145 518 145 545 161 c 128,-1,38
EndSplineSet
Substitution2: "'ss02' Style Set 2 lookup 34 subtable" uni0181.ss02
Substitution2: "'salt' Stylistic Alternatives lookup 32 subtable" uni0181.ss02
Substitution2: "'c2sc' Capitals to Small Capitals lookup 26 subtable" uni0253.sc
AlternateSubs2: "'aalt' Access All Alternates lookup 1 subtable" uni0253.sc uni0181.ss02
Position2: "'cpsp' Capital Spacing lookup 0 subtable" dx=5 dy=0 dh=10 dv=0
EndChar

StartChar: uni0243
Encoding: 579 579 43
Width: 638
GlyphClass: 2
Flags: W
AnchorPoint: "Anchor-18" 0 0 basechar 0
AnchorPoint: "Anchor-17" 0 0 basechar 0
AnchorPoint: "Anchor-16" 307 696 basechar 0
AnchorPoint: "Anchor-15" 0 0 basechar 0
AnchorPoint: "Anchor-14" 326 0 basechar 0
LayerCount: 2
Fore
SplineSet
580 317.5 m 128,-1,1
 623 280 623 280 623 206 c 0,2,3
 623 91 623 91 539.5 45.5 c 128,-1,4
 456 0 456 0 303 0 c 2,5,-1
 59 0 l 1,6,-1
 59 180 l 1,7,-1
 10 180 l 1,8,-1
 10 266 l 1,9,-1
 59 266 l 1,10,-1
 59 696 l 1,11,-1
 276 696 l 2,12,13
 431 696 431 696 512.5 654.5 c 128,-1,14
 594 613 594 613 594 516 c 0,15,16
 594 454 594 454 558 418.5 c 128,-1,17
 522 383 522 383 468 369 c 1,18,0
 537 355 537 355 580 317.5 c 128,-1,1
265 555 m 1,19,-1
 265 427 l 1,20,-1
 300 427 l 2,21,22
 347 427 347 427 366 442.5 c 128,-1,23
 385 458 385 458 385 495 c 0,24,25
 385 526 385 526 364.5 540.5 c 128,-1,26
 344 555 344 555 295 555 c 2,27,-1
 265 555 l 1,19,-1
384 161 m 128,-1,29
 411 177 411 177 411 220 c 0,30,31
 411 260 411 260 386.5 278.5 c 128,-1,32
 362 297 362 297 313 297 c 2,33,-1
 265 297 l 1,34,-1
 265 266 l 1,35,-1
 355 266 l 1,36,-1
 355 180 l 1,37,-1
 265 180 l 1,38,-1
 265 145 l 1,39,-1
 305 145 l 2,40,28
 357 145 357 145 384 161 c 128,-1,29
EndSplineSet
Substitution2: "'c2sc' Capitals to Small Capitals lookup 26 subtable" uni0180.sc
Substitution2: "'aalt' Access All Alternates lookup 0 subtable" uni0180.sc
Position2: "'cpsp' Capital Spacing lookup 0 subtable" dx=5 dy=0 dh=10 dv=0
EndChar

StartChar: C
Encoding: 67 67 45
Width: 584
GlyphClass: 2
Flags: W
AnchorPoint: "Anchor-18" 375 354 basechar 0
AnchorPoint: "Anchor-17" 0 0 basechar 0
AnchorPoint: "Anchor-16" 358 696 basechar 0
AnchorPoint: "Anchor-15" 0 0 basechar 0
AnchorPoint: "Anchor-14" 339 0 basechar 0
LayerCount: 2
Fore
SplineSet
576 634 m 1,1,-1
 481 522 l 1,2,3
 451 544 451 544 422.5 556 c 128,-1,4
 394 568 394 568 362 568 c 0,5,6
 301 568 301 568 267.5 513 c 128,-1,7
 234 458 234 458 234 350 c 256,8,9
 234 242 234 242 268 188.5 c 128,-1,10
 302 135 302 135 365 135 c 0,11,12
 399 135 399 135 428.5 149 c 128,-1,13
 458 163 458 163 494 191 c 1,14,-1
 584 77 l 1,15,16
 542 35 542 35 482.5 7.5 c 128,-1,17
 423 -20 423 -20 355 -20 c 0,18,19
 252 -20 252 -20 177 22.5 c 128,-1,20
 102 65 102 65 61 148 c 128,-1,21
 20 231 20 231 20 350 c 0,22,23
 20 464 20 464 62 546.5 c 128,-1,24
 104 629 104 629 179 672.5 c 128,-1,25
 254 716 254 716 352 716 c 0,26,0
 481 716 481 716 576 634 c 1,1,-1
EndSplineSet
Substitution2: "'c2sc' Capitals to Small Capitals lookup 26 subtable" c.sc
Substitution2: "'aalt' Access All Alternates lookup 0 subtable" c.sc
Position2: "'cpsp' Capital Spacing lookup 0 subtable" dx=5 dy=0 dh=10 dv=0
EndChar

StartChar: Ccedilla
Encoding: 199 199 49
Width: 584
GlyphClass: 2
Flags: W
AnchorPoint: "Anchor-18" 375 354 basechar 0
AnchorPoint: "Anchor-17" 0 0 basechar 0
AnchorPoint: "Anchor-16" 358 696 basechar 0
AnchorPoint: "Anchor-15" 0 0 basechar 0
AnchorPoint: "Anchor-14" 356 -275 basechar 0
LayerCount: 2
Fore
SplineSet
498 -151 m 0,1,2
 498 -205 498 -205 454 -240 c 128,-1,3
 410 -275 410 -275 334 -275 c 0,4,5
 297 -275 297 -275 264.5 -265.5 c 128,-1,6
 232 -256 232 -256 209 -241 c 1,7,-1
 252 -155 l 1,8,9
 285 -173 285 -173 316 -173 c 0,10,11
 361 -173 361 -173 361 -149 c 0,12,13
 361 -133 361 -133 339 -126.5 c 128,-1,14
 317 -120 317 -120 267 -120 c 1,15,-1
 280 -14 l 1,16,17
 158 8 158 8 89 101.5 c 128,-1,18
 20 195 20 195 20 350 c 0,19,20
 20 464 20 464 62 546.5 c 128,-1,21
 104 629 104 629 179 672.5 c 128,-1,22
 254 716 254 716 352 716 c 0,23,24
 481 716 481 716 576 634 c 1,25,-1
 481 522 l 1,26,27
 451 544 451 544 422.5 556 c 128,-1,28
 394 568 394 568 362 568 c 0,29,30
 301 568 301 568 267.5 513 c 128,-1,31
 234 458 234 458 234 350 c 256,32,33
 234 242 234 242 268 188.5 c 128,-1,34
 302 135 302 135 365 135 c 0,35,36
 399 135 399 135 428.5 149 c 128,-1,37
 458 163 458 163 494 191 c 1,38,-1
 584 77 l 1,39,40
 547 40 547 40 496.5 14 c 128,-1,41
 446 -12 446 -12 388 -18 c 1,42,-1
 388 -43 l 1,43,0
 498 -57 498 -57 498 -151 c 0,1,2
EndSplineSet
Substitution2: "'c2sc' Capitals to Small Capitals lookup 26 subtable" ccedilla.sc
Substitution2: "'aalt' Access All Alternates lookup 0 subtable" ccedilla.sc
Position2: "'cpsp' Capital Spacing lookup 0 subtable" dx=5 dy=0 dh=10 dv=0
EndChar

StartChar: uniA7B3
Encoding: 42931 42931 52
Width: 596
GlyphClass: 2
Flags: W
AnchorPoint: "Anchor-18" 0 0 basechar 0
AnchorPoint: "Anchor-17" 0 0 basechar 0
AnchorPoint: "Anchor-16" 298 696 basechar 0
AnchorPoint: "Anchor-15" 0 0 basechar 0
AnchorPoint: "Anchor-14" 298 -215 basechar 0
LayerCount: 2
Fore
SplineSet
417 285 m 1,0,-1
 606 -180 l 1,1,-1
 384 -180 l 1,2,-1
 293 149 l 1,3,-1
 208 -180 l 1,4,-1
 -10 -180 l 1,5,-1
 171 279 l 1,6,-1
 3 696 l 1,7,-1
 224 696 l 1,8,-1
 295 406 l 1,9,-1
 375 696 l 1,10,-1
 592 696 l 1,11,-1
 417 285 l 1,0,-1
EndSplineSet
Substitution2: "'c2sc' Capitals to Small Capitals lookup 26 subtable" uniAB53.sc
Substitution2: "'aalt' Access All Alternates lookup 0 subtable" uniAB53.sc
Position2: "'cpsp' Capital Spacing lookup 0 subtable" dx=5 dy=0 dh=10 dv=0
EndChar

StartChar: uni0187
Encoding: 391 391 53
Width: 584
GlyphClass: 2
Flags: W
AnchorPoint: "Anchor-18" 0 0 basechar 0
AnchorPoint: "Anchor-17" 0 0 basechar 0
AnchorPoint: "Anchor-16" 262 744 basechar 0
AnchorPoint: "Anchor-15" 0 0 basechar 0
AnchorPoint: "Anchor-14" 292 0 basechar 0
LayerCount: 2
Fore
SplineSet
736 826 m 1,1,-1
 684 704 l 1,2,3
 648 721 648 721 620 721 c 0,4,5
 597 721 597 721 586.5 708 c 128,-1,6
 576 695 576 695 576 667 c 2,7,-1
 576 634 l 1,8,-1
 489 532 l 1,9,10
 458 550 458 550 429 559 c 128,-1,11
 400 568 400 568 360 568 c 0,12,13
 300 568 300 568 267 513 c 128,-1,14
 234 458 234 458 234 350 c 256,15,16
 234 242 234 242 268 188.5 c 128,-1,17
 302 135 302 135 366 135 c 0,18,19
 399 135 399 135 428 149.5 c 128,-1,20
 457 164 457 164 494 193 c 1,21,-1
 584 77 l 1,22,23
 542 35 542 35 482.5 7.5 c 128,-1,24
 423 -20 423 -20 354 -20 c 0,25,26
 252 -20 252 -20 177 22.5 c 128,-1,27
 102 65 102 65 61 148 c 128,-1,28
 20 231 20 231 20 350 c 0,29,30
 20 462 20 462 61.5 545 c 128,-1,31
 103 628 103 628 172 672 c 128,-1,32
 241 716 241 716 322 716 c 0,33,34
 372 716 372 716 408 701 c 1,35,36
 413 778 413 778 457.5 820.5 c 128,-1,37
 502 863 502 863 589 863 c 0,38,0
 671 863 671 863 736 826 c 1,1,-1
EndSplineSet
Substitution2: "'c2sc' Capitals to Small Capitals lookup 26 subtable" uni0188.sc
Substitution2: "'aalt' Access All Alternates lookup 0 subtable" uni0188.sc
Position2: "'cpsp' Capital Spacing lookup 0 subtable" dx=5 dy=0 dh=10 dv=0
EndChar

StartChar: uni023B
Encoding: 571 571 54
Width: 584
GlyphClass: 2
Flags: W
AnchorPoint: "Anchor-18" 375 354 basechar 0
AnchorPoint: "Anchor-17" 0 0 basechar 0
AnchorPoint: "Anchor-16" 292 696 basechar 0
AnchorPoint: "Anchor-15" 0 0 basechar 0
AnchorPoint: "Anchor-14" 292 0 basechar 0
LayerCount: 2
Fore
SplineSet
482.5 7.5 m 128,-1,1
 423 -20 423 -20 355 -20 c 0,2,3
 316 -20 316 -20 281 -14 c 1,4,-1
 264 -77 l 1,5,-1
 198 -62 l 1,6,-1
 216 4 l 1,7,8
 122 41 122 41 71 129 c 128,-1,9
 20 217 20 217 20 350 c 0,10,11
 20 464 20 464 62 546.5 c 128,-1,12
 104 629 104 629 179 672.5 c 128,-1,13
 254 716 254 716 352 716 c 0,14,15
 379 716 379 716 403 713 c 1,16,-1
 415 759 l 1,17,-1
 480 744 l 1,18,-1
 468 697 l 1,19,20
 528 676 528 676 576 634 c 1,21,-1
 481 522 l 1,22,23
 449 544 449 544 430 553 c 1,24,-1
 322 142 l 1,25,26
 340 135 340 135 365 135 c 0,27,28
 399 135 399 135 428.5 149 c 128,-1,29
 458 163 458 163 494 191 c 1,30,-1
 584 77 l 1,31,0
 542 35 542 35 482.5 7.5 c 128,-1,1
265 193 m 1,33,-1
 365 568 l 1,34,-1
 362 568 l 2,35,36
 301 568 301 568 267.5 513 c 128,-1,37
 234 458 234 458 234 350 c 0,38,32
 234 247 234 247 265 193 c 1,33,-1
EndSplineSet
Substitution2: "'c2sc' Capitals to Small Capitals lookup 26 subtable" uni023C.sc
Substitution2: "'aalt' Access All Alternates lookup 0 subtable" uni023C.sc
Position2: "'cpsp' Capital Spacing lookup 0 subtable" dx=5 dy=0 dh=10 dv=0
EndChar

StartChar: D
Encoding: 68 68 55
Width: 656
GlyphClass: 2
Flags: W
AnchorPoint: "Anchor-18" 328 348 basechar 0
AnchorPoint: "Anchor-17" 0 0 basechar 0
AnchorPoint: "Anchor-16" 291 696 basechar 0
AnchorPoint: "Anchor-15" 0 0 basechar 0
AnchorPoint: "Anchor-14" 310 0 basechar 0
LayerCount: 2
Fore
SplineSet
535 621.5 m 128,-1,1
 636 547 636 547 636 351 c 0,2,3
 636 158 636 158 539 79 c 128,-1,4
 442 0 442 0 278 0 c 2,5,-1
 43 0 l 1,6,-1
 43 696 l 1,7,-1
 266 696 l 2,8,0
 434 696 434 696 535 621.5 c 128,-1,1
249 551 m 1,9,-1
 249 145 l 1,10,-1
 290 145 l 2,11,12
 338 145 338 145 367 164 c 128,-1,13
 396 183 396 183 410 227.5 c 128,-1,14
 424 272 424 272 424 351 c 0,15,16
 424 429 424 429 409.5 472.5 c 128,-1,17
 395 516 395 516 366 533.5 c 128,-1,18
 337 551 337 551 291 551 c 2,19,-1
 249 551 l 1,9,-1
EndSplineSet
Substitution2: "'c2sc' Capitals to Small Capitals lookup 26 subtable" d.sc
Substitution2: "'aalt' Access All Alternates lookup 0 subtable" d.sc
Position2: "'cpsp' Capital Spacing lookup 0 subtable" dx=5 dy=0 dh=10 dv=0
EndChar

StartChar: Eth
Encoding: 208 208 59
Width: 671
GlyphClass: 2
Flags: W
AnchorPoint: "Anchor-18" 343 348 basechar 0
AnchorPoint: "Anchor-17" 0 0 basechar 0
AnchorPoint: "Anchor-16" 306 696 basechar 0
AnchorPoint: "Anchor-15" 0 0 basechar 0
AnchorPoint: "Anchor-14" 325 0 basechar 0
LayerCount: 2
Fore
SplineSet
550 621.5 m 128,-1,1
 651 547 651 547 651 351 c 0,2,3
 651 158 651 158 554 79 c 128,-1,4
 457 0 457 0 293 0 c 2,5,-1
 58 0 l 1,6,-1
 58 295 l 1,7,-1
 10 295 l 1,8,-1
 10 411 l 1,9,-1
 58 411 l 1,10,-1
 58 696 l 1,11,-1
 281 696 l 2,12,0
 449 696 449 696 550 621.5 c 128,-1,1
382 164 m 128,-1,14
 411 183 411 183 425 227.5 c 128,-1,15
 439 272 439 272 439 351 c 0,16,17
 439 429 439 429 424.5 472.5 c 128,-1,18
 410 516 410 516 381 533.5 c 128,-1,19
 352 551 352 551 306 551 c 2,20,-1
 264 551 l 1,21,-1
 264 411 l 1,22,-1
 385 411 l 1,23,-1
 385 295 l 1,24,-1
 264 295 l 1,25,-1
 264 145 l 1,26,-1
 305 145 l 2,27,13
 353 145 353 145 382 164 c 128,-1,14
EndSplineSet
Substitution2: "'c2sc' Capitals to Small Capitals lookup 26 subtable" eth.sc
Substitution2: "'aalt' Access All Alternates lookup 0 subtable" eth.sc
Position2: "'cpsp' Capital Spacing lookup 0 subtable" dx=5 dy=0 dh=10 dv=0
EndChar

StartChar: uni018A
Encoding: 394 394 65
Width: 833
GlyphClass: 2
Flags: W
AnchorPoint: "Anchor-18" 505 348 basechar 0
AnchorPoint: "Anchor-17" 0 0 basechar 0
AnchorPoint: "Anchor-16" 468 696 basechar 0
AnchorPoint: "Anchor-15" 0 0 basechar 0
AnchorPoint: "Anchor-14" 487 0 basechar 0
LayerCount: 2
Fore
SplineSet
712 621.5 m 128,-1,1
 813 547 813 547 813 351 c 0,2,3
 813 158 813 158 716 79 c 128,-1,4
 619 0 619 0 455 0 c 2,5,-1
 220 0 l 1,6,-1
 220 553 l 1,7,-1
 195 553 l 2,8,9
 154 553 154 553 154 516 c 0,10,11
 154 502 154 502 157.5 488.5 c 128,-1,12
 161 475 161 475 169 455 c 1,13,-1
 46 403 l 1,14,15
 25 436 25 436 12.5 466.5 c 128,-1,16
 0 497 0 497 0 530 c 0,17,18
 0 608 0 608 56.5 652 c 128,-1,19
 113 696 113 696 206 696 c 2,20,-1
 443 696 l 2,21,0
 611 696 611 696 712 621.5 c 128,-1,1
544 164 m 128,-1,23
 573 183 573 183 587 227.5 c 128,-1,24
 601 272 601 272 601 351 c 0,25,26
 601 429 601 429 586.5 472.5 c 128,-1,27
 572 516 572 516 543 533.5 c 128,-1,28
 514 551 514 551 468 551 c 2,29,-1
 426 551 l 1,30,-1
 426 145 l 1,31,-1
 467 145 l 2,32,22
 515 145 515 145 544 164 c 128,-1,23
EndSplineSet
Substitution2: "'c2sc' Capitals to Small Capitals lookup 26 subtable" uni0257.sc
Substitution2: "'aalt' Access All Alternates lookup 0 subtable" uni0257.sc
Position2: "'cpsp' Capital Spacing lookup 0 subtable" dx=5 dy=0 dh=10 dv=0
EndChar

StartChar: uni018B
Encoding: 395 395 67
Width: 606
GlyphClass: 2
Flags: W
AnchorPoint: "Anchor-18" 0 0 basechar 0
AnchorPoint: "Anchor-17" 0 0 basechar 0
AnchorPoint: "Anchor-16" 303 696 basechar 0
AnchorPoint: "Anchor-15" 0 0 basechar 0
AnchorPoint: "Anchor-14" 303 0 basechar 0
LayerCount: 2
Fore
SplineSet
563 0 m 1,0,-1
 282 0 l 2,1,2
 158 0 158 0 84 58 c 128,-1,3
 10 116 10 116 10 230 c 0,4,5
 10 338 10 338 84 397 c 128,-1,6
 158 456 158 456 293 456 c 2,7,-1
 357 456 l 1,8,-1
 357 543 l 1,9,-1
 103 543 l 1,10,-1
 103 696 l 1,11,-1
 563 696 l 1,12,-1
 563 0 l 1,0,-1
357 145 m 1,13,-1
 357 318 l 1,14,-1
 316 318 l 2,15,16
 224 318 224 318 224 230 c 0,17,18
 224 190 224 190 246 167.5 c 128,-1,19
 268 145 268 145 312 145 c 2,20,-1
 357 145 l 1,13,-1
EndSplineSet
Substitution2: "'c2sc' Capitals to Small Capitals lookup 26 subtable" uni018C.sc
Substitution2: "'aalt' Access All Alternates lookup 0 subtable" uni018C.sc
Position2: "'cpsp' Capital Spacing lookup 0 subtable" dx=5 dy=0 dh=10 dv=0
EndChar

StartChar: E
Encoding: 69 69 70
Width: 520
GlyphClass: 2
Flags: W
AnchorPoint: "Anchor-18" 0 0 basechar 0
AnchorPoint: "Anchor-17" 0 0 basechar 0
AnchorPoint: "Anchor-16" 272 696 basechar 0
AnchorPoint: "Anchor-15" 465 0 basechar 0
AnchorPoint: "Anchor-14" 269 0 basechar 0
LayerCount: 2
Fore
SplineSet
500 696 m 1,0,-1
 479 553 l 1,1,-1
 249 553 l 1,2,-1
 249 423 l 1,3,-1
 451 423 l 1,4,-1
 451 284 l 1,5,-1
 249 284 l 1,6,-1
 249 144 l 1,7,-1
 495 144 l 1,8,-1
 495 0 l 1,9,-1
 43 0 l 1,10,-1
 43 696 l 1,11,-1
 500 696 l 1,0,-1
EndSplineSet
Substitution2: "'c2sc' Capitals to Small Capitals lookup 26 subtable" e.sc
Substitution2: "'aalt' Access All Alternates lookup 0 subtable" e.sc
Position2: "'cpsp' Capital Spacing lookup 0 subtable" dx=5 dy=0 dh=10 dv=0
EndChar

StartChar: uni0228
Encoding: 552 552 74
Width: 520
GlyphClass: 2
Flags: W
AnchorPoint: "Anchor-18" 0 0 basechar 0
AnchorPoint: "Anchor-17" 0 0 basechar 0
AnchorPoint: "Anchor-16" 272 696 basechar 0
AnchorPoint: "Anchor-15" 465 0 basechar 0
AnchorPoint: "Anchor-14" 269 0 basechar 0
LayerCount: 2
Fore
SplineSet
249 144 m 1,0,-1
 495 144 l 1,1,-1
 495 0 l 1,2,-1
 318 0 l 1,3,-1
 318 -43 l 1,4,5
 428 -57 428 -57 428 -151 c 0,6,7
 428 -205 428 -205 384 -240 c 128,-1,8
 340 -275 340 -275 264 -275 c 0,9,10
 227 -275 227 -275 194.5 -265.5 c 128,-1,11
 162 -256 162 -256 139 -241 c 1,12,-1
 182 -155 l 1,13,14
 215 -173 215 -173 246 -173 c 0,15,16
 291 -173 291 -173 291 -149 c 0,17,18
 291 -133 291 -133 269 -126.5 c 128,-1,19
 247 -120 247 -120 197 -120 c 1,20,-1
 212 0 l 1,21,-1
 43 0 l 1,22,-1
 43 696 l 1,23,-1
 500 696 l 1,24,-1
 479 553 l 1,25,-1
 249 553 l 1,26,-1
 249 423 l 1,27,-1
 451 423 l 1,28,-1
 451 284 l 1,29,-1
 249 284 l 1,30,-1
 249 144 l 1,0,-1
EndSplineSet
Substitution2: "'c2sc' Capitals to Small Capitals lookup 26 subtable" uni0229.sc
Substitution2: "'aalt' Access All Alternates lookup 0 subtable" uni0229.sc
Position2: "'cpsp' Capital Spacing lookup 0 subtable" dx=5 dy=0 dh=10 dv=0
EndChar

StartChar: Eogonek
Encoding: 280 280 89
Width: 520
GlyphClass: 2
Flags: W
AnchorPoint: "Anchor-18" 0 0 basechar 0
AnchorPoint: "Anchor-17" 0 0 basechar 0
AnchorPoint: "Anchor-16" 272 696 basechar 0
AnchorPoint: "Anchor-15" 465 0 basechar 0
AnchorPoint: "Anchor-14" 269 0 basechar 0
LayerCount: 2
Fore
SplineSet
249 144 m 1,0,-1
 495 144 l 1,1,-1
 495 0 l 1,2,-1
 455 0 l 1,3,4
 391 -22 391 -22 365.5 -47 c 128,-1,5
 340 -72 340 -72 340 -95 c 0,6,7
 340 -139 340 -139 391 -139 c 0,8,9
 417 -139 417 -139 452 -131 c 1,10,-1
 440 -246 l 1,11,12
 405 -254 405 -254 366 -254 c 0,13,14
 296 -254 296 -254 251 -220 c 128,-1,15
 206 -186 206 -186 206 -128 c 0,16,17
 206 -50 206 -50 279 0 c 1,18,-1
 43 0 l 1,19,-1
 43 696 l 1,20,-1
 500 696 l 1,21,-1
 479 553 l 1,22,-1
 249 553 l 1,23,-1
 249 423 l 1,24,-1
 451 423 l 1,25,-1
 451 284 l 1,26,-1
 249 284 l 1,27,-1
 249 144 l 1,0,-1
EndSplineSet
Substitution2: "'c2sc' Capitals to Small Capitals lookup 26 subtable" eogonek.sc
Substitution2: "'aalt' Access All Alternates lookup 0 subtable" eogonek.sc
Position2: "'cpsp' Capital Spacing lookup 0 subtable" dx=5 dy=0 dh=10 dv=0
EndChar

StartChar: uni0190
Encoding: 400 400 90
Width: 553
GlyphClass: 2
Flags: W
AnchorPoint: "Anchor-18" 0 0 basechar 0
AnchorPoint: "Anchor-17" 0 0 basechar 0
AnchorPoint: "Anchor-16" 277 696 basechar 0
AnchorPoint: "Anchor-15" 0 0 basechar 0
AnchorPoint: "Anchor-14" 277 0 basechar 0
LayerCount: 2
Fore
SplineSet
431 692 m 128,-1,1
 489 668 489 668 540 620 c 1,2,-1
 445 520 l 1,3,4
 387 572 387 572 325 572 c 0,5,6
 245 572 245 572 245 506 c 0,7,8
 245 472 245 472 267 454 c 128,-1,9
 289 436 289 436 332 436 c 2,10,-1
 413 436 l 1,11,-1
 390 295 l 1,12,-1
 336 295 l 2,13,14
 283 295 283 295 256 272.5 c 128,-1,15
 229 250 229 250 229 209 c 256,16,17
 229 168 229 168 255 147 c 128,-1,18
 281 126 281 126 326 126 c 0,19,20
 362 126 362 126 392 140 c 128,-1,21
 422 154 422 154 456 184 c 1,22,-1
 563 80 l 1,23,24
 468 -20 468 -20 304 -20 c 0,25,26
 219 -20 219 -20 153.5 6 c 128,-1,27
 88 32 88 32 51.5 80.5 c 128,-1,28
 15 129 15 129 15 193 c 0,29,30
 15 270 15 270 62.5 313.5 c 128,-1,31
 110 357 110 357 201 367 c 1,32,33
 116 384 116 384 75.5 427 c 128,-1,34
 35 470 35 470 35 530 c 0,35,36
 35 584 35 584 69 626.5 c 128,-1,37
 103 669 103 669 163 692.5 c 128,-1,38
 223 716 223 716 299 716 c 0,39,0
 373 716 373 716 431 692 c 128,-1,1
EndSplineSet
Substitution2: "'c2sc' Capitals to Small Capitals lookup 26 subtable" uni025B.sc
Substitution2: "'aalt' Access All Alternates lookup 0 subtable" uni025B.sc
Position2: "'cpsp' Capital Spacing lookup 0 subtable" dx=5 dy=0 dh=10 dv=0
EndChar

StartChar: uni018E
Encoding: 398 398 91
Width: 520
GlyphClass: 2
Flags: W
AnchorPoint: "Anchor-18" 0 0 basechar 0
AnchorPoint: "Anchor-17" 0 0 basechar 0
AnchorPoint: "Anchor-16" 240 696 basechar 0
AnchorPoint: "Anchor-15" 0 0 basechar 0
AnchorPoint: "Anchor-14" 238 0 basechar 0
LayerCount: 2
Fore
SplineSet
30 696 m 1,0,-1
 477 696 l 1,1,-1
 477 0 l 1,2,-1
 25 0 l 1,3,-1
 25 144 l 1,4,-1
 271 144 l 1,5,-1
 271 284 l 1,6,-1
 69 284 l 1,7,-1
 69 423 l 1,8,-1
 271 423 l 1,9,-1
 271 553 l 1,10,-1
 30 553 l 1,11,-1
 30 696 l 1,0,-1
EndSplineSet
Substitution2: "'c2sc' Capitals to Small Capitals lookup 26 subtable" uni0258.sc
Substitution2: "'aalt' Access All Alternates lookup 0 subtable" uni0258.sc
Position2: "'cpsp' Capital Spacing lookup 0 subtable" dx=5 dy=0 dh=10 dv=0
EndChar

StartChar: uni0246
Encoding: 582 582 93
Width: 520
GlyphClass: 2
Flags: W
AnchorPoint: "Anchor-18" 0 0 basechar 0
AnchorPoint: "Anchor-17" 0 0 basechar 0
AnchorPoint: "Anchor-16" 260 696 basechar 0
AnchorPoint: "Anchor-15" 465 0 basechar 0
AnchorPoint: "Anchor-14" 260 0 basechar 0
LayerCount: 2
Fore
SplineSet
349 284 m 1,0,-1
 312 144 l 1,1,-1
 495 144 l 1,2,-1
 495 0 l 1,3,-1
 274 0 l 1,4,-1
 254 -77 l 1,5,-1
 188 -62 l 1,6,-1
 204 0 l 1,7,-1
 43 0 l 1,8,-1
 43 696 l 1,9,-1
 388 696 l 1,10,-1
 405 759 l 1,11,-1
 470 744 l 1,12,-1
 457 696 l 1,13,-1
 500 696 l 1,14,-1
 479 553 l 1,15,-1
 420 553 l 1,16,-1
 386 423 l 1,17,-1
 451 423 l 1,18,-1
 451 284 l 1,19,-1
 349 284 l 1,0,-1
249 553 m 1,20,-1
 249 423 l 1,21,-1
 316 423 l 1,22,-1
 351 553 l 1,23,-1
 249 553 l 1,20,-1
249 284 m 1,24,-1
 249 169 l 1,25,-1
 279 284 l 1,26,-1
 249 284 l 1,24,-1
EndSplineSet
Substitution2: "'c2sc' Capitals to Small Capitals lookup 26 subtable" uni0247.sc
Substitution2: "'aalt' Access All Alternates lookup 0 subtable" uni0247.sc
Position2: "'cpsp' Capital Spacing lookup 0 subtable" dx=5 dy=0 dh=10 dv=0
EndChar

StartChar: uni01B7
Encoding: 439 439 95
Width: 565
GlyphClass: 2
Flags: W
AnchorPoint: "Anchor-18" 0 0 basechar 0
AnchorPoint: "Anchor-17" 0 0 basechar 0
AnchorPoint: "Anchor-16" 277 696 basechar 0
AnchorPoint: "Anchor-15" 0 0 basechar 0
AnchorPoint: "Anchor-14" 283 0 basechar 0
LayerCount: 2
Fore
SplineSet
498 347.5 m 128,-1,1
 550 296 550 296 550 210 c 0,2,3
 550 146 550 146 515 93.5 c 128,-1,4
 480 41 480 41 413.5 10.5 c 128,-1,5
 347 -20 347 -20 254 -20 c 0,6,7
 168 -20 168 -20 106.5 8.5 c 128,-1,8
 45 37 45 37 0 90 c 1,9,-1
 102 189 l 1,10,11
 139 156 139 156 170 142 c 128,-1,12
 201 128 201 128 242 128 c 0,13,14
 285 128 285 128 311.5 151.5 c 128,-1,15
 338 175 338 175 338 219 c 0,16,17
 338 259 338 259 309.5 277.5 c 128,-1,18
 281 296 281 296 233 296 c 2,19,-1
 127 296 l 1,20,-1
 127 403 l 1,21,-1
 285 552 l 1,22,-1
 45 552 l 1,23,-1
 45 696 l 1,24,-1
 508 696 l 1,25,-1
 508 557 l 1,26,-1
 352 406 l 1,27,0
 446 399 446 399 498 347.5 c 128,-1,1
EndSplineSet
Substitution2: "'c2sc' Capitals to Small Capitals lookup 26 subtable" uni0292.sc
Substitution2: "'aalt' Access All Alternates lookup 0 subtable" uni0292.sc
Position2: "'cpsp' Capital Spacing lookup 0 subtable" dx=5 dy=0 dh=10 dv=0
EndChar

StartChar: uni01B8
Encoding: 440 440 97
Width: 565
GlyphClass: 2
Flags: W
AnchorPoint: "Anchor-18" 0 0 basechar 0
AnchorPoint: "Anchor-17" 0 0 basechar 0
AnchorPoint: "Anchor-16" 283 696 basechar 0
AnchorPoint: "Anchor-15" 0 0 basechar 0
AnchorPoint: "Anchor-14" 283 0 basechar 0
LayerCount: 2
Fore
SplineSet
565 90 m 1,0,1
 518 37 518 37 455.5 8.5 c 128,-1,2
 393 -20 393 -20 304 -20 c 0,3,4
 214 -20 214 -20 149 10 c 128,-1,5
 84 40 84 40 49.5 92 c 128,-1,6
 15 144 15 144 15 210 c 0,7,8
 15 292 15 292 69.5 345 c 128,-1,9
 124 398 124 398 213 406 c 1,10,-1
 57 557 l 1,11,-1
 57 696 l 1,12,-1
 520 696 l 1,13,-1
 520 552 l 1,14,-1
 283 552 l 1,15,-1
 438 400 l 1,16,-1
 438 296 l 1,17,-1
 332 296 l 2,18,19
 283 296 283 296 255 274 c 128,-1,20
 227 252 227 252 227 213 c 0,21,22
 227 173 227 173 251.5 150.5 c 128,-1,23
 276 128 276 128 317 128 c 0,24,25
 360 128 360 128 393.5 142.5 c 128,-1,26
 427 157 427 157 463 189 c 1,27,-1
 565 90 l 1,0,1
EndSplineSet
Substitution2: "'c2sc' Capitals to Small Capitals lookup 26 subtable" uni01B9.sc
Substitution2: "'aalt' Access All Alternates lookup 0 subtable" uni01B9.sc
Position2: "'cpsp' Capital Spacing lookup 0 subtable" dx=5 dy=0 dh=10 dv=0
EndChar

StartChar: F
Encoding: 70 70 98
Width: 485
GlyphClass: 2
Flags: W
AnchorPoint: "Anchor-18" 0 0 basechar 0
AnchorPoint: "Anchor-17" 0 0 basechar 0
AnchorPoint: "Anchor-16" 274 696 basechar 0
AnchorPoint: "Anchor-15" 0 0 basechar 0
AnchorPoint: "Anchor-14" 146 0 basechar 0
LayerCount: 2
Fore
SplineSet
43 0 m 1,0,-1
 43 696 l 1,1,-1
 485 696 l 1,2,-1
 464 553 l 1,3,-1
 249 553 l 1,4,-1
 249 401 l 1,5,-1
 438 401 l 1,6,-1
 438 258 l 1,7,-1
 249 258 l 1,8,-1
 249 0 l 1,9,-1
 43 0 l 1,0,-1
EndSplineSet
Substitution2: "'c2sc' Capitals to Small Capitals lookup 26 subtable" f.sc
Substitution2: "'aalt' Access All Alternates lookup 0 subtable" f.sc
Position2: "'cpsp' Capital Spacing lookup 0 subtable" dx=5 dy=0 dh=10 dv=0
EndChar

StartChar: uni0191
Encoding: 401 401 100
Width: 485
GlyphClass: 2
Flags: W
AnchorPoint: "Anchor-18" 0 0 basechar 0
AnchorPoint: "Anchor-17" 0 0 basechar 0
AnchorPoint: "Anchor-16" 274 696 basechar 0
AnchorPoint: "Anchor-15" 0 0 basechar 0
AnchorPoint: "Anchor-14" 146 0 basechar 0
LayerCount: 2
Fore
SplineSet
249 553 m 1,0,-1
 249 401 l 1,1,-1
 438 401 l 1,2,-1
 438 258 l 1,3,-1
 249 258 l 1,4,-1
 249 -16 l 2,5,6
 249 -119 249 -119 187 -173 c 128,-1,7
 125 -227 125 -227 18 -227 c 0,8,9
 -77 -227 -77 -227 -139 -182 c 1,10,-1
 -75 -62 l 1,11,12
 -53 -73 -53 -73 -39.5 -77.5 c 128,-1,13
 -26 -82 -26 -82 -7 -82 c 0,14,15
 17 -82 17 -82 30 -68.5 c 128,-1,16
 43 -55 43 -55 43 -29 c 2,17,-1
 43 696 l 1,18,-1
 485 696 l 1,19,-1
 464 553 l 1,20,-1
 249 553 l 1,0,-1
EndSplineSet
Substitution2: "'c2sc' Capitals to Small Capitals lookup 26 subtable" uni0191.sc
Substitution2: "'aalt' Access All Alternates lookup 0 subtable" uni0191.sc
Position2: "'cpsp' Capital Spacing lookup 0 subtable" dx=5 dy=0 dh=10 dv=0
EndChar

StartChar: G
Encoding: 71 71 101
Width: 653
GlyphClass: 2
Flags: W
AnchorPoint: "Anchor-18" 0 0 basechar 0
AnchorPoint: "Anchor-17" 0 0 basechar 0
AnchorPoint: "Anchor-16" 350 696 basechar 0
AnchorPoint: "Anchor-15" 0 0 basechar 0
AnchorPoint: "Anchor-14" 350 0 basechar 0
LayerCount: 2
Fore
SplineSet
508.5 691 m 128,-1,1
 571 666 571 666 618 625 c 1,2,-1
 518 521 l 1,3,4
 481 548 481 548 451 560 c 128,-1,5
 421 572 421 572 383 572 c 0,6,7
 310 572 310 572 271 516.5 c 128,-1,8
 232 461 232 461 232 348 c 0,9,10
 232 263 232 263 244 214.5 c 128,-1,11
 256 166 256 166 281.5 146 c 128,-1,12
 307 126 307 126 349 126 c 0,13,14
 386 126 386 126 420 143 c 1,15,-1
 420 270 l 1,16,-1
 350 270 l 1,17,-1
 331 409 l 1,18,-1
 618 409 l 1,19,-1
 618 60 l 1,20,21
 563 22 563 22 492 1 c 128,-1,22
 421 -20 421 -20 355 -20 c 0,23,24
 184 -20 184 -20 102 73.5 c 128,-1,25
 20 167 20 167 20 349 c 0,26,27
 20 464 20 464 65 547 c 128,-1,28
 110 630 110 630 190 673 c 128,-1,29
 270 716 270 716 371 716 c 0,30,0
 446 716 446 716 508.5 691 c 128,-1,1
EndSplineSet
Substitution2: "'c2sc' Capitals to Small Capitals lookup 26 subtable" g.sc
Substitution2: "'aalt' Access All Alternates lookup 0 subtable" g.sc
Position2: "'cpsp' Capital Spacing lookup 0 subtable" dx=5 dy=0 dh=10 dv=0
EndChar

StartChar: uni0194
Encoding: 404 404 103
Width: 579
GlyphClass: 2
Flags: W
AnchorPoint: "Anchor-18" 0 0 basechar 0
AnchorPoint: "Anchor-17" 0 0 basechar 0
AnchorPoint: "Anchor-16" 290 696 basechar 0
AnchorPoint: "Anchor-15" 0 0 basechar 0
AnchorPoint: "Anchor-14" 290 -215 basechar 0
LayerCount: 2
Fore
SplineSet
394 106 m 1,0,1
 429 52 429 52 446 5.5 c 128,-1,2
 463 -41 463 -41 463 -89 c 0,3,4
 463 -153 463 -153 422.5 -190 c 128,-1,5
 382 -227 382 -227 293 -227 c 0,6,7
 206 -227 206 -227 164.5 -190 c 128,-1,8
 123 -153 123 -153 123 -89 c 0,9,10
 123 -45 123 -45 139 -1.5 c 128,-1,11
 155 42 155 42 193 106 c 1,12,-1
 -25 696 l 1,13,-1
 192 696 l 1,14,-1
 293 237 l 1,15,-1
 393 696 l 1,16,-1
 604 696 l 1,17,-1
 394 106 l 1,0,1
314 -42.5 m 128,-1,19
 308 -26 308 -26 293 6 c 1,20,21
 266 -50 266 -50 266 -77 c 0,22,23
 266 -106 266 -106 293 -106 c 256,24,25
 320 -106 320 -106 320 -76 c 0,26,18
 320 -59 320 -59 314 -42.5 c 128,-1,19
EndSplineSet
Substitution2: "'c2sc' Capitals to Small Capitals lookup 26 subtable" uni0194.sc
Substitution2: "'aalt' Access All Alternates lookup 0 subtable" uni0194.sc
Position2: "'cpsp' Capital Spacing lookup 0 subtable" dx=5 dy=0 dh=10 dv=0
EndChar

StartChar: uni0193
Encoding: 403 403 109
Width: 626
GlyphClass: 2
Flags: W
AnchorPoint: "Anchor-18" 0 0 basechar 0
AnchorPoint: "Anchor-17" 0 0 basechar 0
AnchorPoint: "Anchor-16" 293 744 basechar 0
AnchorPoint: "Anchor-15" 0 0 basechar 0
AnchorPoint: "Anchor-14" 313 0 basechar 0
LayerCount: 2
Fore
SplineSet
778 826 m 1,1,-1
 726 704 l 1,2,3
 690 721 690 721 662 721 c 0,4,5
 639 721 639 721 628.5 708 c 128,-1,6
 618 695 618 695 618 667 c 2,7,-1
 618 625 l 1,8,-1
 524 528 l 1,9,10
 485 550 485 550 452.5 561 c 128,-1,11
 420 572 420 572 383 572 c 0,12,13
 310 572 310 572 271 516.5 c 128,-1,14
 232 461 232 461 232 348 c 0,15,16
 232 263 232 263 244 214.5 c 128,-1,17
 256 166 256 166 281.5 146 c 128,-1,18
 307 126 307 126 349 126 c 0,19,20
 386 126 386 126 420 143 c 1,21,-1
 420 270 l 1,22,-1
 350 270 l 1,23,-1
 331 409 l 1,24,-1
 618 409 l 1,25,-1
 618 60 l 1,26,27
 563 22 563 22 492 1 c 128,-1,28
 421 -20 421 -20 355 -20 c 0,29,30
 184 -20 184 -20 102 73.5 c 128,-1,31
 20 167 20 167 20 349 c 0,32,33
 20 463 20 463 65 546 c 128,-1,34
 110 629 110 629 184.5 672.5 c 128,-1,35
 259 716 259 716 348 716 c 0,36,37
 402 716 402 716 450 697 c 1,38,39
 454 776 454 776 498.5 819.5 c 128,-1,40
 543 863 543 863 631 863 c 0,41,0
 713 863 713 863 778 826 c 1,1,-1
EndSplineSet
Substitution2: "'c2sc' Capitals to Small Capitals lookup 26 subtable" uni0260.sc
Substitution2: "'aalt' Access All Alternates lookup 0 subtable" uni0260.sc
Position2: "'cpsp' Capital Spacing lookup 0 subtable" dx=5 dy=0 dh=10 dv=0
EndChar

StartChar: uni0241
Encoding: 577 577 110
Width: 535
GlyphClass: 2
Flags: W
AnchorPoint: "Anchor-18" 0 0 basechar 0
AnchorPoint: "Anchor-17" 0 0 basechar 0
AnchorPoint: "Anchor-16" 268 696 basechar 0
AnchorPoint: "Anchor-15" 0 0 basechar 0
AnchorPoint: "Anchor-14" 248 0 basechar 0
LayerCount: 2
Fore
SplineSet
145 337 m 1,0,-1
 190 350 l 2,1,2
 252 368 252 368 277.5 398 c 128,-1,3
 303 428 303 428 303 483 c 0,4,5
 303 524 303 524 281 548 c 128,-1,6
 259 572 259 572 219 572 c 0,7,8
 187 572 187 572 158 559.5 c 128,-1,9
 129 547 129 547 95 520 c 1,10,-1
 0 620 l 1,11,12
 101 716 101 716 251 716 c 0,13,14
 332 716 332 716 391.5 688.5 c 128,-1,15
 451 661 451 661 483 610.5 c 128,-1,16
 515 560 515 560 515 493 c 0,17,18
 515 417 515 417 482.5 370 c 128,-1,19
 450 323 450 323 378 293 c 2,20,-1
 351 282 l 1,21,-1
 351 0 l 1,22,-1
 145 0 l 1,23,-1
 145 337 l 1,0,-1
EndSplineSet
Substitution2: "'c2sc' Capitals to Small Capitals lookup 26 subtable" uni0294.sc
Substitution2: "'aalt' Access All Alternates lookup 0 subtable" uni0294.sc
Position2: "'cpsp' Capital Spacing lookup 0 subtable" dx=5 dy=0 dh=10 dv=0
EndChar

StartChar: uni01E4
Encoding: 484 484 111
Width: 680
GlyphClass: 2
Flags: W
AnchorPoint: "Anchor-18" 0 0 basechar 0
AnchorPoint: "Anchor-17" 0 0 basechar 0
AnchorPoint: "Anchor-16" 340 696 basechar 0
AnchorPoint: "Anchor-15" 0 0 basechar 0
AnchorPoint: "Anchor-14" 340 0 basechar 0
LayerCount: 2
Fore
SplineSet
680 181 m 1,0,-1
 618 181 l 1,1,-1
 618 60 l 1,2,3
 563 22 563 22 492 1 c 128,-1,4
 421 -20 421 -20 355 -20 c 0,5,6
 184 -20 184 -20 102 73.5 c 128,-1,7
 20 167 20 167 20 349 c 0,8,9
 20 464 20 464 65 547 c 128,-1,10
 110 630 110 630 190 673 c 128,-1,11
 270 716 270 716 371 716 c 0,12,13
 515 716 515 716 618 625 c 1,14,-1
 519 521 l 1,15,16
 481 548 481 548 451 560 c 128,-1,17
 421 572 421 572 383 572 c 0,18,19
 310 572 310 572 271 516.5 c 128,-1,20
 232 461 232 461 232 348 c 0,21,22
 232 263 232 263 244 214.5 c 128,-1,23
 256 166 256 166 281.5 146 c 128,-1,24
 307 126 307 126 349 126 c 0,25,26
 371 126 371 126 391.5 130 c 128,-1,27
 412 134 412 134 440 143 c 1,28,-1
 440 181 l 1,29,-1
 340 181 l 1,30,-1
 340 286 l 1,31,-1
 440 286 l 1,32,-1
 440 320 l 1,33,-1
 347 320 l 1,34,-1
 331 434 l 1,35,-1
 618 434 l 1,36,-1
 618 286 l 1,37,-1
 680 286 l 1,38,-1
 680 181 l 1,0,-1
EndSplineSet
Substitution2: "'c2sc' Capitals to Small Capitals lookup 26 subtable" uni01E5.sc
Substitution2: "'aalt' Access All Alternates lookup 0 subtable" uni01E5.sc
Position2: "'cpsp' Capital Spacing lookup 0 subtable" dx=5 dy=0 dh=10 dv=0
EndChar

StartChar: uni021C
Encoding: 540 540 112
Width: 530
GlyphClass: 2
Flags: W
AnchorPoint: "Anchor-18" 0 0 basechar 0
AnchorPoint: "Anchor-17" 0 0 basechar 0
AnchorPoint: "Anchor-16" 265 696 basechar 0
AnchorPoint: "Anchor-15" 0 0 basechar 0
AnchorPoint: "Anchor-14" 265 -215 basechar 0
LayerCount: 2
Fore
SplineSet
374.5 692 m 128,-1,1
 432 668 432 668 463.5 625 c 128,-1,2
 495 582 495 582 495 525 c 0,3,4
 495 462 495 462 454.5 418 c 128,-1,5
 414 374 414 374 329 357 c 1,6,7
 422 347 422 347 468.5 308 c 128,-1,8
 515 269 515 269 515 194 c 0,9,10
 515 88 515 88 407.5 5.5 c 128,-1,11
 300 -77 300 -77 70 -120 c 1,12,-1
 54 26 l 1,13,14
 155 55 155 55 209 82.5 c 128,-1,15
 263 110 263 110 282 138.5 c 128,-1,16
 301 167 301 167 301 205 c 0,17,18
 301 285 301 285 194 285 c 2,19,-1
 117 285 l 1,20,-1
 140 426 l 1,21,-1
 198 426 l 2,22,23
 285 426 285 426 285 501 c 0,24,25
 285 572 285 572 210 572 c 0,26,27
 148 572 148 572 82 520 c 1,28,-1
 -10 620 l 1,29,30
 91 716 91 716 241 716 c 0,31,0
 317 716 317 716 374.5 692 c 128,-1,1
EndSplineSet
Substitution2: "'c2sc' Capitals to Small Capitals lookup 26 subtable" uni021D.sc
Substitution2: "'aalt' Access All Alternates lookup 0 subtable" uni021D.sc
Position2: "'cpsp' Capital Spacing lookup 0 subtable" dx=5 dy=0 dh=10 dv=0
EndChar

StartChar: H
Encoding: 72 72 113
Width: 657
GlyphClass: 2
Flags: W
AnchorPoint: "Anchor-18" 329 348 basechar 0
AnchorPoint: "Anchor-17" 0 0 basechar 0
AnchorPoint: "Anchor-16" 329 696 basechar 0
AnchorPoint: "Anchor-15" 0 0 basechar 0
AnchorPoint: "Anchor-14" 329 0 basechar 0
LayerCount: 2
Fore
SplineSet
408 0 m 1,0,-1
 408 281 l 1,1,-1
 249 281 l 1,2,-1
 249 0 l 1,3,-1
 43 0 l 1,4,-1
 43 696 l 1,5,-1
 249 696 l 1,6,-1
 249 439 l 1,7,-1
 408 439 l 1,8,-1
 408 696 l 1,9,-1
 614 696 l 1,10,-1
 614 0 l 1,11,-1
 408 0 l 1,0,-1
EndSplineSet
Substitution2: "'c2sc' Capitals to Small Capitals lookup 26 subtable" h.sc
Substitution2: "'aalt' Access All Alternates lookup 0 subtable" h.sc
Position2: "'cpsp' Capital Spacing lookup 0 subtable" dx=5 dy=0 dh=10 dv=0
EndChar

StartChar: Hbar
Encoding: 294 294 114
Width: 671
GlyphClass: 2
Flags: W
AnchorPoint: "Anchor-18" 336 348 basechar 0
AnchorPoint: "Anchor-17" 0 0 basechar 0
AnchorPoint: "Anchor-16" 336 696 basechar 0
AnchorPoint: "Anchor-15" 0 0 basechar 0
AnchorPoint: "Anchor-14" 336 0 basechar 0
LayerCount: 2
Fore
SplineSet
671 601 m 1,0,-1
 671 495 l 1,1,-1
 621 495 l 1,2,-1
 621 0 l 1,3,-1
 415 0 l 1,4,-1
 415 281 l 1,5,-1
 256 281 l 1,6,-1
 256 0 l 1,7,-1
 50 0 l 1,8,-1
 50 495 l 1,9,-1
 0 495 l 1,10,-1
 0 601 l 1,11,-1
 50 601 l 1,12,-1
 50 696 l 1,13,-1
 256 696 l 1,14,-1
 256 601 l 1,15,-1
 415 601 l 1,16,-1
 415 696 l 1,17,-1
 621 696 l 1,18,-1
 621 601 l 1,19,-1
 671 601 l 1,0,-1
415 439 m 1,20,-1
 415 495 l 1,21,-1
 256 495 l 1,22,-1
 256 439 l 1,23,-1
 415 439 l 1,20,-1
EndSplineSet
Substitution2: "'c2sc' Capitals to Small Capitals lookup 26 subtable" hbar.sc
Substitution2: "'aalt' Access All Alternates lookup 0 subtable" hbar.sc
Position2: "'cpsp' Capital Spacing lookup 0 subtable" dx=5 dy=0 dh=10 dv=0
EndChar

StartChar: uniA7AA
Encoding: 42922 42922 118
Width: 834
GlyphClass: 2
Flags: W
AnchorPoint: "Anchor-18" 506 348 basechar 0
AnchorPoint: "Anchor-17" 0 0 basechar 0
AnchorPoint: "Anchor-16" 506 696 basechar 0
AnchorPoint: "Anchor-15" 0 0 basechar 0
AnchorPoint: "Anchor-14" 506 0 basechar 0
LayerCount: 2
Fore
SplineSet
791 696 m 1,0,-1
 791 0 l 1,1,-1
 585 0 l 1,2,-1
 585 281 l 1,3,-1
 426 281 l 1,4,-1
 426 0 l 1,5,-1
 220 0 l 1,6,-1
 220 553 l 1,7,-1
 195 553 l 2,8,9
 154 553 154 553 154 516 c 0,10,11
 154 502 154 502 157.5 488.5 c 128,-1,12
 161 475 161 475 169 455 c 1,13,-1
 46 403 l 1,14,15
 25 436 25 436 12.5 466.5 c 128,-1,16
 0 497 0 497 0 530 c 0,17,18
 0 608 0 608 56.5 652 c 128,-1,19
 113 696 113 696 206 696 c 2,20,-1
 426 696 l 1,21,-1
 426 439 l 1,22,-1
 585 439 l 1,23,-1
 585 696 l 1,24,-1
 791 696 l 1,0,-1
EndSplineSet
Substitution2: "'c2sc' Capitals to Small Capitals lookup 26 subtable" uniA7AA.sc
Substitution2: "'aalt' Access All Alternates lookup 0 subtable" uniA7AA.sc
Position2: "'cpsp' Capital Spacing lookup 0 subtable" dx=5 dy=0 dh=10 dv=0
EndChar

StartChar: uniA78D.ss02
Encoding: 65539 -1 120
Width: 596
GlyphClass: 2
Flags: W
AnchorPoint: "Anchor-18" 0 0 basechar 0
AnchorPoint: "Anchor-17" 0 0 basechar 0
AnchorPoint: "Anchor-16" 298 696 basechar 0
AnchorPoint: "Anchor-15" 0 0 basechar 0
AnchorPoint: "Anchor-14" 298 0 basechar 0
LayerCount: 2
Fore
SplineSet
347 0 m 1,0,-1
 347 231 l 1,1,-1
 12 230 l 1,2,-1
 12 696 l 1,3,-1
 218 696 l 1,4,-1
 218 389 l 1,5,-1
 347 389 l 1,6,-1
 347 696 l 1,7,-1
 553 696 l 1,8,-1
 553 0 l 1,9,-1
 347 0 l 1,0,-1
EndSplineSet
Position2: "'cpsp' Capital Spacing lookup 0 subtable" dx=5 dy=0 dh=10 dv=0
EndChar

StartChar: uni01F6
Encoding: 502 502 121
Width: 940
GlyphClass: 2
Flags: W
AnchorPoint: "Anchor-18" 0 0 basechar 0
AnchorPoint: "Anchor-17" 0 0 basechar 0
AnchorPoint: "Anchor-16" 470 696 basechar 0
AnchorPoint: "Anchor-15" 0 0 basechar 0
AnchorPoint: "Anchor-14" 470 0 basechar 0
LayerCount: 2
Fore
SplineSet
906.5 391.5 m 128,-1,1
 915 322 915 322 915 244 c 0,2,3
 915 154 915 154 876 94.5 c 128,-1,4
 837 35 837 35 774.5 7.5 c 128,-1,5
 712 -20 712 -20 639 -20 c 0,6,7
 536 -20 536 -20 472 31.5 c 128,-1,8
 408 83 408 83 408 191 c 2,9,-1
 408 281 l 1,10,-1
 249 281 l 1,11,-1
 249 0 l 1,12,-1
 43 0 l 1,13,-1
 43 696 l 1,14,-1
 249 696 l 1,15,-1
 249 439 l 1,16,-1
 408 439 l 1,17,-1
 408 696 l 1,18,-1
 614 696 l 1,19,-1
 614 190 l 2,20,21
 614 152 614 152 624.5 137 c 128,-1,22
 635 122 635 122 655 122 c 0,23,24
 683 122 683 122 700 155 c 128,-1,25
 717 188 717 188 717 259 c 0,26,27
 717 372 717 372 690 534 c 1,28,-1
 884 534 l 1,29,0
 898 461 898 461 906.5 391.5 c 128,-1,1
EndSplineSet
Substitution2: "'c2sc' Capitals to Small Capitals lookup 26 subtable" uni01F6.sc
Substitution2: "'aalt' Access All Alternates lookup 0 subtable" uni01F6.sc
Position2: "'cpsp' Capital Spacing lookup 0 subtable" dx=5 dy=0 dh=10 dv=0
EndChar

StartChar: I
Encoding: 73 73 122
Width: 292
GlyphClass: 2
Flags: W
AnchorPoint: "Anchor-18" 0 0 basechar 0
AnchorPoint: "Anchor-17" 0 0 basechar 0
AnchorPoint: "Anchor-16" 146 696 basechar 0
AnchorPoint: "Anchor-15" 213 0 basechar 0
AnchorPoint: "Anchor-14" 146 0 basechar 0
LayerCount: 2
Fore
SplineSet
249 696 m 1,0,-1
 249 0 l 1,1,-1
 43 0 l 1,2,-1
 43 696 l 1,3,-1
 249 696 l 1,0,-1
EndSplineSet
Substitution2: "'c2sc' Capitals to Small Capitals lookup 26 subtable" i.sc
Substitution2: "'aalt' Access All Alternates lookup 0 subtable" i.sc
Position2: "'cpsp' Capital Spacing lookup 0 subtable" dx=5 dy=0 dh=10 dv=0
EndChar

StartChar: Iogonek
Encoding: 302 302 137
Width: 292
GlyphClass: 2
Flags: W
AnchorPoint: "Anchor-18" 0 0 basechar 0
AnchorPoint: "Anchor-17" 0 0 basechar 0
AnchorPoint: "Anchor-16" 146 696 basechar 0
AnchorPoint: "Anchor-15" 213 0 basechar 0
AnchorPoint: "Anchor-14" 146 0 basechar 0
LayerCount: 2
Fore
SplineSet
249 696 m 1,0,-1
 249 0 l 1,1,-1
 203 0 l 1,2,3
 139 -21 139 -21 113.5 -46.5 c 128,-1,4
 88 -72 88 -72 88 -95 c 0,5,6
 88 -139 88 -139 139 -139 c 0,7,8
 165 -139 165 -139 200 -131 c 1,9,-1
 188 -246 l 1,10,11
 153 -254 153 -254 114 -254 c 0,12,13
 44 -254 44 -254 -1 -220 c 128,-1,14
 -46 -186 -46 -186 -46 -128 c 0,15,16
 -46 -43 -46 -43 43 11 c 1,17,-1
 43 696 l 1,18,-1
 249 696 l 1,0,-1
EndSplineSet
Substitution2: "'c2sc' Capitals to Small Capitals lookup 26 subtable" iogonek.sc
Substitution2: "'aalt' Access All Alternates lookup 0 subtable" iogonek.sc
Position2: "'cpsp' Capital Spacing lookup 0 subtable" dx=5 dy=0 dh=10 dv=0
EndChar

StartChar: uni0196
Encoding: 406 406 138
Width: 406
GlyphClass: 2
Flags: W
AnchorPoint: "Anchor-18" 0 0 basechar 0
AnchorPoint: "Anchor-17" 0 0 basechar 0
AnchorPoint: "Anchor-16" 136 696 basechar 0
AnchorPoint: "Anchor-15" 0 0 basechar 0
AnchorPoint: "Anchor-14" 213 0 basechar 0
LayerCount: 2
Fore
SplineSet
421 25 m 1,0,1
 359 -20 359 -20 264 -20 c 0,2,3
 157 -20 157 -20 95 34 c 128,-1,4
 33 88 33 88 33 191 c 2,5,-1
 33 696 l 1,6,-1
 239 696 l 1,7,-1
 239 178 l 2,8,9
 239 152 239 152 252 138.5 c 128,-1,10
 265 125 265 125 289 125 c 0,11,12
 308 125 308 125 321.5 129.5 c 128,-1,13
 335 134 335 134 357 145 c 1,14,-1
 421 25 l 1,0,1
EndSplineSet
Substitution2: "'c2sc' Capitals to Small Capitals lookup 26 subtable" uni0196.sc
Substitution2: "'aalt' Access All Alternates lookup 0 subtable" uni0196.sc
Position2: "'cpsp' Capital Spacing lookup 0 subtable" dx=5 dy=0 dh=10 dv=0
EndChar

StartChar: uni0197
Encoding: 407 407 139
Width: 340
GlyphClass: 2
Flags: W
AnchorPoint: "Anchor-18" 0 0 basechar 0
AnchorPoint: "Anchor-17" 0 0 basechar 0
AnchorPoint: "Anchor-16" 170 696 basechar 0
AnchorPoint: "Anchor-15" 237 0 basechar 0
AnchorPoint: "Anchor-14" 170 0 basechar 0
LayerCount: 2
Fore
SplineSet
340 435 m 1,0,-1
 340 285 l 1,1,-1
 273 285 l 1,2,-1
 273 0 l 1,3,-1
 67 0 l 1,4,-1
 67 285 l 1,5,-1
 0 285 l 1,6,-1
 0 435 l 1,7,-1
 67 435 l 1,8,-1
 67 696 l 1,9,-1
 273 696 l 1,10,-1
 273 435 l 1,11,-1
 340 435 l 1,0,-1
EndSplineSet
Substitution2: "'c2sc' Capitals to Small Capitals lookup 26 subtable" uni0268.sc
Substitution2: "'aalt' Access All Alternates lookup 0 subtable" uni0268.sc
Position2: "'cpsp' Capital Spacing lookup 0 subtable" dx=5 dy=0 dh=10 dv=0
EndChar

StartChar: J
Encoding: 74 74 141
Width: 325
GlyphClass: 2
Flags: W
AnchorPoint: "Anchor-18" 0 0 basechar 0
AnchorPoint: "Anchor-17" 0 0 basechar 0
AnchorPoint: "Anchor-16" 181 696 basechar 0
AnchorPoint: "Anchor-15" 0 0 basechar 0
AnchorPoint: "Anchor-14" 162 -215 basechar 0
LayerCount: 2
Fore
SplineSet
284 111 m 2,0,1
 284 20 284 20 249 -39.5 c 128,-1,2
 214 -99 214 -99 160.5 -132 c 128,-1,3
 107 -165 107 -165 35 -189 c 1,4,-1
 -20 -44 l 1,5,6
 23 -28 23 -28 44 -5.5 c 128,-1,7
 65 17 65 17 71.5 45.5 c 128,-1,8
 78 74 78 74 78 118 c 2,9,-1
 78 696 l 1,10,-1
 284 696 l 1,11,-1
 284 111 l 2,0,1
EndSplineSet
Substitution2: "'c2sc' Capitals to Small Capitals lookup 26 subtable" j.sc
Substitution2: "'aalt' Access All Alternates lookup 0 subtable" j.sc
Position2: "'cpsp' Capital Spacing lookup 0 subtable" dx=5 dy=0 dh=10 dv=0
EndChar

StartChar: uniA7B2
Encoding: 42930 42930 143
Width: 369
GlyphClass: 2
Flags: W
AnchorPoint: "Anchor-18" 0 0 basechar 0
AnchorPoint: "Anchor-17" 0 0 basechar 0
AnchorPoint: "Anchor-16" 223 696 basechar 0
AnchorPoint: "Anchor-15" 0 0 basechar 0
AnchorPoint: "Anchor-14" 185 -215 basechar 0
LayerCount: 2
Fore
SplineSet
400 -117 m 1,0,1
 354 -96 354 -96 307 -82 c 1,2,3
 282 -155 282 -155 224 -191 c 128,-1,4
 166 -227 166 -227 73 -227 c 0,5,6
 -5 -227 -5 -227 -47.5 -194 c 128,-1,7
 -90 -161 -90 -161 -90 -103 c 0,8,9
 -90 -37 -90 -37 -44 -2.5 c 128,-1,10
 2 32 2 32 87 32 c 0,11,12
 111 32 111 32 120 31 c 1,13,-1
 120 696 l 1,14,-1
 326 696 l 1,15,-1
 326 57 l 2,16,17
 326 38 326 38 324 4 c 1,18,19
 380 -13 380 -13 433 -41 c 1,20,-1
 400 -117 l 1,0,1
103.5 -115.5 m 128,-1,22
 117 -98 117 -98 119 -56 c 1,23,24
 112 -55 112 -55 86 -55 c 0,25,26
 51 -55 51 -55 36 -65.5 c 128,-1,27
 21 -76 21 -76 21 -97 c 0,28,29
 21 -114 21 -114 31.5 -123.5 c 128,-1,30
 42 -133 42 -133 62 -133 c 0,31,21
 90 -133 90 -133 103.5 -115.5 c 128,-1,22
EndSplineSet
Substitution2: "'c2sc' Capitals to Small Capitals lookup 26 subtable" uniA7B2.sc
Substitution2: "'aalt' Access All Alternates lookup 0 subtable" uniA7B2.sc
Position2: "'cpsp' Capital Spacing lookup 0 subtable" dx=5 dy=0 dh=10 dv=0
EndChar

StartChar: uni0248
Encoding: 584 584 144
Width: 351
GlyphClass: 2
Flags: W
AnchorPoint: "Anchor-18" 0 0 basechar 0
AnchorPoint: "Anchor-17" 0 0 basechar 0
AnchorPoint: "Anchor-16" 181 696 basechar 0
AnchorPoint: "Anchor-15" 0 0 basechar 0
AnchorPoint: "Anchor-14" 162 -215 basechar 0
LayerCount: 2
Fore
SplineSet
351 268 m 1,0,-1
 284 268 l 1,1,-1
 284 111 l 2,2,3
 284 20 284 20 249 -39.5 c 128,-1,4
 214 -99 214 -99 160.5 -132 c 128,-1,5
 107 -165 107 -165 35 -189 c 1,6,-1
 -20 -44 l 1,7,8
 23 -28 23 -28 44 -5.5 c 128,-1,9
 65 17 65 17 71.5 45.5 c 128,-1,10
 78 74 78 74 78 118 c 2,11,-1
 78 268 l 1,12,-1
 11 268 l 1,13,-1
 11 418 l 1,14,-1
 78 418 l 1,15,-1
 78 696 l 1,16,-1
 284 696 l 1,17,-1
 284 418 l 1,18,-1
 351 418 l 1,19,-1
 351 268 l 1,0,-1
EndSplineSet
Substitution2: "'c2sc' Capitals to Small Capitals lookup 26 subtable" uni0249.sc
Substitution2: "'aalt' Access All Alternates lookup 0 subtable" uni0249.sc
Position2: "'cpsp' Capital Spacing lookup 0 subtable" dx=5 dy=0 dh=10 dv=0
EndChar

StartChar: K
Encoding: 75 75 145
Width: 659
GlyphClass: 2
Flags: W
AnchorPoint: "Anchor-18" 0 0 basechar 0
AnchorPoint: "Anchor-17" 0 0 basechar 0
AnchorPoint: "Anchor-16" 330 696 basechar 0
AnchorPoint: "Anchor-15" 0 0 basechar 0
AnchorPoint: "Anchor-14" 330 0 basechar 0
LayerCount: 2
Fore
SplineSet
249 696 m 1,0,-1
 249 0 l 1,1,-1
 43 0 l 1,2,-1
 43 696 l 1,3,-1
 249 696 l 1,0,-1
661 696 m 1,4,-1
 464 387 l 1,5,-1
 679 0 l 1,6,-1
 445 0 l 1,7,-1
 255 371 l 1,8,-1
 449 696 l 1,9,-1
 661 696 l 1,4,-1
EndSplineSet
Substitution2: "'c2sc' Capitals to Small Capitals lookup 26 subtable" k.sc
Substitution2: "'aalt' Access All Alternates lookup 0 subtable" k.sc
Position2: "'cpsp' Capital Spacing lookup 0 subtable" dx=5 dy=0 dh=10 dv=0
EndChar

StartChar: uni0198
Encoding: 408 408 148
Width: 675
GlyphClass: 2
Flags: W
AnchorPoint: "Anchor-18" 0 0 basechar 0
AnchorPoint: "Anchor-17" 0 0 basechar 0
AnchorPoint: "Anchor-16" 338 696 basechar 0
AnchorPoint: "Anchor-15" 0 0 basechar 0
AnchorPoint: "Anchor-14" 338 0 basechar 0
LayerCount: 2
Fore
SplineSet
255 371 m 1,0,-1
 375 580 l 2,1,2
 419 656 419 656 461.5 686 c 128,-1,3
 504 716 504 716 575 716 c 0,4,5
 644 716 644 716 695 677 c 1,6,-1
 646 564 l 1,7,8
 645 565 645 565 634.5 569.5 c 128,-1,9
 624 574 624 574 608 574 c 0,10,11
 589 574 589 574 576.5 564.5 c 128,-1,12
 564 555 564 555 547 526 c 2,13,-1
 464 387 l 1,14,-1
 679 0 l 1,15,-1
 445 0 l 1,16,-1
 255 371 l 1,0,-1
249 696 m 1,17,-1
 249 0 l 1,18,-1
 43 0 l 1,19,-1
 43 696 l 1,20,-1
 249 696 l 1,17,-1
EndSplineSet
Substitution2: "'c2sc' Capitals to Small Capitals lookup 26 subtable" uni0199.sc
Substitution2: "'aalt' Access All Alternates lookup 0 subtable" uni0199.sc
Position2: "'cpsp' Capital Spacing lookup 0 subtable" dx=5 dy=0 dh=10 dv=0
EndChar

StartChar: L
Encoding: 76 76 149
Width: 522
GlyphClass: 2
Flags: W
AnchorPoint: "Anchor-18" 403 404 basechar 0
AnchorPoint: "Anchor-17" 259 696 basechar 0
AnchorPoint: "Anchor-16" 146 696 basechar 0
AnchorPoint: "Anchor-15" 0 0 basechar 0
AnchorPoint: "Anchor-14" 267 0 basechar 0
LayerCount: 2
Fore
SplineSet
249 696 m 1,0,-1
 249 158 l 1,1,-1
 512 158 l 1,2,-1
 491 0 l 1,3,-1
 43 0 l 1,4,-1
 43 696 l 1,5,-1
 249 696 l 1,0,-1
EndSplineSet
Substitution2: "'c2sc' Capitals to Small Capitals lookup 26 subtable" l.sc
Substitution2: "'aalt' Access All Alternates lookup 0 subtable" l.sc
Position2: "'cpsp' Capital Spacing lookup 0 subtable" dx=5 dy=0 dh=10 dv=0
EndChar

StartChar: uni023D
Encoding: 573 573 152
Width: 546
GlyphClass: 2
Flags: W
AnchorPoint: "Anchor-18" 427 404 basechar 0
AnchorPoint: "Anchor-17" 283 696 basechar 0
AnchorPoint: "Anchor-16" 170 696 basechar 0
AnchorPoint: "Anchor-15" 0 0 basechar 0
AnchorPoint: "Anchor-14" 291 0 basechar 0
LayerCount: 2
Fore
SplineSet
273 158 m 1,0,-1
 536 158 l 1,1,-1
 515 0 l 1,2,-1
 67 0 l 1,3,-1
 67 288 l 1,4,-1
 0 288 l 1,5,-1
 0 438 l 1,6,-1
 67 438 l 1,7,-1
 67 696 l 1,8,-1
 273 696 l 1,9,-1
 273 438 l 1,10,-1
 340 438 l 1,11,-1
 340 288 l 1,12,-1
 273 288 l 1,13,-1
 273 158 l 1,0,-1
EndSplineSet
Substitution2: "'c2sc' Capitals to Small Capitals lookup 26 subtable" uni019A.sc
Substitution2: "'aalt' Access All Alternates lookup 0 subtable" uni019A.sc
Position2: "'cpsp' Capital Spacing lookup 0 subtable" dx=5 dy=0 dh=10 dv=0
EndChar

StartChar: uniA7AD
Encoding: 42925 42925 153
Width: 650
GlyphClass: 2
Flags: W
AnchorPoint: "Anchor-18" 531 404 basechar 0
AnchorPoint: "Anchor-17" 387 696 basechar 0
AnchorPoint: "Anchor-16" 274 696 basechar 0
AnchorPoint: "Anchor-15" 0 0 basechar 0
AnchorPoint: "Anchor-14" 395 0 basechar 0
LayerCount: 2
Fore
SplineSet
640 158 m 1,0,-1
 619 0 l 1,1,-1
 171 0 l 1,2,-1
 171 248 l 1,3,4
 82 250 82 250 38.5 288 c 128,-1,5
 -5 326 -5 326 -5 388 c 0,6,7
 -5 447 -5 447 32 479.5 c 128,-1,8
 69 512 69 512 131 512 c 0,9,10
 153 512 153 512 171 507 c 1,11,-1
 171 696 l 1,12,-1
 377 696 l 1,13,-1
 377 357 l 1,14,15
 440 360 440 360 497 370 c 1,16,-1
 510 269 l 1,17,18
 449 256 449 256 377 252 c 1,19,-1
 377 158 l 1,20,-1
 640 158 l 1,0,-1
171 353 m 1,22,-1
 171 414 l 1,23,24
 158 417 158 417 146 417 c 0,25,26
 133 417 133 417 125.5 409.5 c 128,-1,27
 118 402 118 402 118 390 c 0,28,21
 118 353 118 353 171 353 c 1,22,-1
EndSplineSet
Substitution2: "'c2sc' Capitals to Small Capitals lookup 26 subtable" uniA7AD.sc
Substitution2: "'aalt' Access All Alternates lookup 0 subtable" uniA7AD.sc
Position2: "'cpsp' Capital Spacing lookup 0 subtable" dx=5 dy=0 dh=10 dv=0
EndChar

StartChar: Lslash
Encoding: 321 321 160
Width: 576
GlyphClass: 2
Flags: W
AnchorPoint: "Anchor-18" 457 404 basechar 0
AnchorPoint: "Anchor-17" 313 696 basechar 0
AnchorPoint: "Anchor-16" 200 696 basechar 0
AnchorPoint: "Anchor-15" 0 0 basechar 0
AnchorPoint: "Anchor-14" 321 0 basechar 0
LayerCount: 2
Fore
SplineSet
303 158 m 1,0,-1
 566 158 l 1,1,-1
 545 0 l 1,2,-1
 97 0 l 1,3,-1
 97 205 l 1,4,-1
 63 184 l 1,5,-1
 0 287 l 1,6,-1
 97 347 l 1,7,-1
 97 696 l 1,8,-1
 303 696 l 1,9,-1
 303 474 l 1,10,-1
 411 541 l 1,11,-1
 475 439 l 1,12,-1
 303 333 l 1,13,-1
 303 158 l 1,0,-1
EndSplineSet
Substitution2: "'c2sc' Capitals to Small Capitals lookup 26 subtable" lslash.sc
Substitution2: "'aalt' Access All Alternates lookup 0 subtable" lslash.sc
Position2: "'cpsp' Capital Spacing lookup 0 subtable" dx=5 dy=0 dh=10 dv=0
EndChar

StartChar: M
Encoding: 77 77 161
Width: 791
GlyphClass: 2
Flags: W
AnchorPoint: "Anchor-18" 0 0 basechar 0
AnchorPoint: "Anchor-17" 0 0 basechar 0
AnchorPoint: "Anchor-16" 395 696 basechar 0
AnchorPoint: "Anchor-15" 0 0 basechar 0
AnchorPoint: "Anchor-14" 396 0 basechar 0
LayerCount: 2
Fore
SplineSet
776 0 m 1,0,-1
 573 0 l 1,1,-1
 568 247 l 2,2,3
 567 276 567 276 567 334 c 0,4,5
 567 436 567 436 575 531 c 1,6,-1
 493 70 l 1,7,-1
 298 70 l 1,8,-1
 210 531 l 1,9,10
 223 392 223 392 223 293 c 2,11,-1
 223 248 l 1,12,-1
 218 0 l 1,13,-1
 15 0 l 1,14,-1
 65 696 l 1,15,-1
 319 696 l 1,16,-1
 399 245 l 1,17,-1
 471 696 l 1,18,-1
 726 696 l 1,19,-1
 776 0 l 1,0,-1
EndSplineSet
Substitution2: "'c2sc' Capitals to Small Capitals lookup 26 subtable" m.sc
Substitution2: "'aalt' Access All Alternates lookup 0 subtable" m.sc
Position2: "'cpsp' Capital Spacing lookup 0 subtable" dx=5 dy=0 dh=10 dv=0
EndChar

StartChar: uni019C
Encoding: 412 412 164
Width: 904
GlyphClass: 2
Flags: W
AnchorPoint: "Anchor-18" 0 0 basechar 0
AnchorPoint: "Anchor-17" 0 0 basechar 0
AnchorPoint: "Anchor-16" 452 696 basechar 0
AnchorPoint: "Anchor-15" 0 0 basechar 0
AnchorPoint: "Anchor-14" 452 0 basechar 0
LayerCount: 2
Fore
SplineSet
861 696 m 1,0,-1
 861 0 l 1,1,-1
 680 0 l 1,2,-1
 666 55 l 1,3,4
 629 15 629 15 593 -2.5 c 128,-1,5
 557 -20 557 -20 511 -20 c 0,6,7
 461 -20 461 -20 423.5 3 c 128,-1,8
 386 26 386 26 366 67 c 1,9,10
 326 21 326 21 288 0.5 c 128,-1,11
 250 -20 250 -20 200 -20 c 0,12,13
 122 -20 122 -20 77.5 32.5 c 128,-1,14
 33 85 33 85 33 170 c 2,15,-1
 33 696 l 1,16,-1
 239 696 l 1,17,-1
 239 181 l 2,18,19
 239 157 239 157 249 143 c 128,-1,20
 259 129 259 129 278 129 c 0,21,22
 291 129 291 129 303.5 139.5 c 128,-1,23
 316 150 316 150 328 163.5 c 128,-1,24
 340 177 340 177 344 182 c 1,25,-1
 344 696 l 1,26,-1
 550 696 l 1,27,-1
 550 181 l 2,28,29
 550 157 550 157 560 143 c 128,-1,30
 570 129 570 129 588 129 c 256,31,32
 606 129 606 129 621.5 141.5 c 128,-1,33
 637 154 637 154 655 182 c 1,34,-1
 655 696 l 1,35,-1
 861 696 l 1,0,-1
EndSplineSet
Substitution2: "'c2sc' Capitals to Small Capitals lookup 26 subtable" uni026F.sc
Substitution2: "'aalt' Access All Alternates lookup 0 subtable" uni026F.sc
Position2: "'cpsp' Capital Spacing lookup 0 subtable" dx=5 dy=0 dh=10 dv=0
EndChar

StartChar: N
Encoding: 78 78 165
Width: 651
GlyphClass: 2
Flags: W
AnchorPoint: "Anchor-18" 0 0 basechar 0
AnchorPoint: "Anchor-17" 0 0 basechar 0
AnchorPoint: "Anchor-16" 326 696 basechar 0
AnchorPoint: "Anchor-15" 0 0 basechar 0
AnchorPoint: "Anchor-14" 326 0 basechar 0
LayerCount: 2
Fore
SplineSet
608 0 m 1,0,-1
 350 0 l 1,1,-1
 198 508 l 1,2,-1
 201 486 l 2,3,4
 212 413 212 413 218.5 352.5 c 128,-1,5
 225 292 225 292 225 216 c 2,6,-1
 225 0 l 1,7,-1
 43 0 l 1,8,-1
 43 696 l 1,9,-1
 296 696 l 1,10,-1
 454 186 l 1,11,-1
 451 207 l 2,12,13
 439 276 439 276 432.5 335.5 c 128,-1,14
 426 395 426 395 426 473 c 2,15,-1
 426 696 l 1,16,-1
 608 696 l 1,17,-1
 608 0 l 1,0,-1
EndSplineSet
Substitution2: "'c2sc' Capitals to Small Capitals lookup 26 subtable" n.sc
Substitution2: "'aalt' Access All Alternates lookup 0 subtable" n.sc
Position2: "'cpsp' Capital Spacing lookup 0 subtable" dx=5 dy=0 dh=10 dv=0
EndChar

StartChar: Eng
Encoding: 330 330 175
Width: 651
GlyphClass: 2
Flags: W
AnchorPoint: "Anchor-18" 0 0 basechar 0
AnchorPoint: "Anchor-17" 0 0 basechar 0
AnchorPoint: "Anchor-16" 326 696 basechar 0
AnchorPoint: "Anchor-15" 0 0 basechar 0
AnchorPoint: "Anchor-14" 326 0 basechar 0
LayerCount: 2
Fore
SplineSet
608 696 m 1,0,-1
 608 -16 l 2,1,2
 608 -119 608 -119 546 -173 c 128,-1,3
 484 -227 484 -227 377 -227 c 0,4,5
 282 -227 282 -227 220 -182 c 1,6,-1
 284 -62 l 1,7,8
 306 -73 306 -73 319.5 -77.5 c 128,-1,9
 333 -82 333 -82 352 -82 c 0,10,11
 376 -82 376 -82 389 -68.5 c 128,-1,12
 402 -55 402 -55 402 -29 c 2,13,-1
 402 0 l 1,14,-1
 350 0 l 1,15,-1
 198 508 l 1,16,-1
 201 486 l 2,17,18
 212 413 212 413 218.5 352.5 c 128,-1,19
 225 292 225 292 225 216 c 2,20,-1
 225 0 l 1,21,-1
 43 0 l 1,22,-1
 43 696 l 1,23,-1
 296 696 l 1,24,-1
 454 186 l 1,25,-1
 451 207 l 2,26,27
 439 276 439 276 432.5 335.5 c 128,-1,28
 426 395 426 395 426 473 c 2,29,-1
 426 696 l 1,30,-1
 608 696 l 1,0,-1
EndSplineSet
Substitution2: "'ss01' Style Set 1 lookup 33 subtable" Eng.ss01
Substitution2: "'salt' Stylistic Alternatives lookup 32 subtable" Eng.ss01
Substitution2: "'c2sc' Capitals to Small Capitals lookup 26 subtable" eng.sc
AlternateSubs2: "'aalt' Access All Alternates lookup 1 subtable" eng.sc Eng.ss01
Position2: "'cpsp' Capital Spacing lookup 0 subtable" dx=5 dy=0 dh=10 dv=0
EndChar

StartChar: Eng.ss01
Encoding: 65541 -1 176
Width: 643
GlyphClass: 2
Flags: W
AnchorPoint: "Anchor-18" 0 0 basechar 0
AnchorPoint: "Anchor-17" 0 0 basechar 0
AnchorPoint: "Anchor-16" 322 696 basechar 0
AnchorPoint: "Anchor-15" 0 0 basechar 0
AnchorPoint: "Anchor-14" 322 -215 basechar 0
LayerCount: 2
Fore
SplineSet
559.5 666 m 128,-1,1
 605 616 605 616 605 536 c 2,2,-1
 605 -16 l 2,3,4
 605 -119 605 -119 543 -173 c 128,-1,5
 481 -227 481 -227 374 -227 c 0,6,7
 279 -227 279 -227 217 -182 c 1,8,-1
 281 -62 l 1,9,10
 303 -73 303 -73 316.5 -77.5 c 128,-1,11
 330 -82 330 -82 349 -82 c 0,12,13
 373 -82 373 -82 386 -68.5 c 128,-1,14
 399 -55 399 -55 399 -29 c 2,15,-1
 399 505 l 2,16,17
 399 537 399 537 387.5 552 c 128,-1,18
 376 567 376 567 349 567 c 0,19,20
 321 567 321 567 298 554.5 c 128,-1,21
 275 542 275 542 249 514 c 1,22,-1
 249 0 l 1,23,-1
 43 0 l 1,24,-1
 43 696 l 1,25,-1
 224 696 l 1,26,-1
 238 639 l 1,27,28
 283 680 283 680 325.5 698 c 128,-1,29
 368 716 368 716 428 716 c 0,30,0
 514 716 514 716 559.5 666 c 128,-1,1
EndSplineSet
Position2: "'cpsp' Capital Spacing lookup 0 subtable" dx=5 dy=0 dh=10 dv=0
EndChar

StartChar: uni019D
Encoding: 413 413 177
Width: 651
GlyphClass: 2
Flags: W
AnchorPoint: "Anchor-18" 0 0 basechar 0
AnchorPoint: "Anchor-17" 0 0 basechar 0
AnchorPoint: "Anchor-16" 326 696 basechar 0
AnchorPoint: "Anchor-15" 0 0 basechar 0
AnchorPoint: "Anchor-14" 326 0 basechar 0
LayerCount: 2
Fore
SplineSet
608 696 m 1,0,-1
 608 0 l 1,1,-1
 350 0 l 1,2,-1
 198 508 l 1,3,-1
 201 486 l 2,4,5
 212 413 212 413 218.5 352.5 c 128,-1,6
 225 292 225 292 225 216 c 2,7,-1
 225 -16 l 2,8,9
 225 -119 225 -119 168.5 -173 c 128,-1,10
 112 -227 112 -227 16 -227 c 0,11,12
 -79 -227 -79 -227 -141 -182 c 1,13,-1
 -77 -67 l 1,14,15
 -55 -78 -55 -78 -41.5 -82.5 c 128,-1,16
 -28 -87 -28 -87 -9 -87 c 0,17,18
 16 -87 16 -87 29.5 -73.5 c 128,-1,19
 43 -60 43 -60 43 -34 c 2,20,-1
 43 696 l 1,21,-1
 296 696 l 1,22,-1
 454 186 l 1,23,-1
 451 207 l 2,24,25
 439 276 439 276 432.5 335.5 c 128,-1,26
 426 395 426 395 426 473 c 2,27,-1
 426 696 l 1,28,-1
 608 696 l 1,0,-1
EndSplineSet
Substitution2: "'ss01' Style Set 1 lookup 33 subtable" uni019D.ss01
Substitution2: "'salt' Stylistic Alternatives lookup 32 subtable" uni019D.ss01
Substitution2: "'c2sc' Capitals to Small Capitals lookup 26 subtable" uni0272.sc
AlternateSubs2: "'aalt' Access All Alternates lookup 1 subtable" uni0272.sc uni019D.ss01
Position2: "'cpsp' Capital Spacing lookup 0 subtable" dx=5 dy=0 dh=10 dv=0
EndChar

StartChar: uni019D.ss01
Encoding: 65542 -1 178
Width: 643
GlyphClass: 2
Flags: W
AnchorPoint: "Anchor-18" 0 0 basechar 0
AnchorPoint: "Anchor-17" 0 0 basechar 0
AnchorPoint: "Anchor-16" 322 696 basechar 0
AnchorPoint: "Anchor-15" 0 0 basechar 0
AnchorPoint: "Anchor-14" 322 -215 basechar 0
LayerCount: 2
Fore
SplineSet
559.5 666 m 128,-1,1
 605 616 605 616 605 536 c 2,2,-1
 605 0 l 1,3,-1
 399 0 l 1,4,-1
 399 505 l 2,5,6
 399 537 399 537 387.5 552 c 128,-1,7
 376 567 376 567 349 567 c 0,8,9
 321 567 321 567 298 554.5 c 128,-1,10
 275 542 275 542 249 514 c 1,11,-1
 249 -16 l 2,12,13
 249 -119 249 -119 187 -173 c 128,-1,14
 125 -227 125 -227 18 -227 c 0,15,16
 -77 -227 -77 -227 -139 -182 c 1,17,-1
 -75 -62 l 1,18,19
 -53 -73 -53 -73 -39.5 -77.5 c 128,-1,20
 -26 -82 -26 -82 -7 -82 c 0,21,22
 17 -82 17 -82 30 -68.5 c 128,-1,23
 43 -55 43 -55 43 -29 c 2,24,-1
 43 696 l 1,25,-1
 224 696 l 1,26,-1
 238 639 l 1,27,28
 283 680 283 680 325.5 698 c 128,-1,29
 368 716 368 716 428 716 c 0,30,0
 514 716 514 716 559.5 666 c 128,-1,1
EndSplineSet
Position2: "'cpsp' Capital Spacing lookup 0 subtable" dx=5 dy=0 dh=10 dv=0
EndChar

StartChar: uni0220
Encoding: 544 544 180
Width: 643
GlyphClass: 2
Flags: W
AnchorPoint: "Anchor-18" 0 0 basechar 0
AnchorPoint: "Anchor-17" 0 0 basechar 0
AnchorPoint: "Anchor-16" 322 696 basechar 0
AnchorPoint: "Anchor-15" 0 0 basechar 0
AnchorPoint: "Anchor-14" 322 -215 basechar 0
LayerCount: 2
Fore
SplineSet
559.5 666 m 128,-1,1
 605 616 605 616 605 536 c 2,2,-1
 605 -215 l 1,3,-1
 399 -215 l 1,4,-1
 399 505 l 2,5,6
 399 537 399 537 387.5 552 c 128,-1,7
 376 567 376 567 349 567 c 0,8,9
 321 567 321 567 298 554.5 c 128,-1,10
 275 542 275 542 249 514 c 1,11,-1
 249 0 l 1,12,-1
 43 0 l 1,13,-1
 43 696 l 1,14,-1
 224 696 l 1,15,-1
 238 639 l 1,16,17
 283 680 283 680 325.5 698 c 128,-1,18
 368 716 368 716 428 716 c 0,19,0
 514 716 514 716 559.5 666 c 128,-1,1
EndSplineSet
Substitution2: "'c2sc' Capitals to Small Capitals lookup 26 subtable" uni0220.sc
Substitution2: "'aalt' Access All Alternates lookup 0 subtable" uni0220.sc
Position2: "'cpsp' Capital Spacing lookup 0 subtable" dx=5 dy=0 dh=10 dv=0
EndChar

StartChar: O
Encoding: 79 79 182
Width: 690
GlyphClass: 2
Flags: W
AnchorPoint: "Anchor-18" 0 0 basechar 0
AnchorPoint: "Anchor-17" 589 696 basechar 0
AnchorPoint: "Anchor-16" 345 696 basechar 0
AnchorPoint: "Anchor-15" 479 0 basechar 0
AnchorPoint: "Anchor-14" 345 0 basechar 0
LayerCount: 2
Fore
SplineSet
585.5 619.5 m 128,-1,1
 670 523 670 523 670 349 c 0,2,3
 670 236 670 236 632 153 c 128,-1,4
 594 70 594 70 521 25 c 128,-1,5
 448 -20 448 -20 345 -20 c 0,6,7
 189 -20 189 -20 104.5 77.5 c 128,-1,8
 20 175 20 175 20 349 c 0,9,10
 20 462 20 462 58 544.5 c 128,-1,11
 96 627 96 627 169 671.5 c 128,-1,12
 242 716 242 716 345 716 c 0,13,0
 501 716 501 716 585.5 619.5 c 128,-1,1
260 519.5 m 128,-1,15
 234 469 234 469 234 349 c 256,16,17
 234 229 234 229 260 177.5 c 128,-1,18
 286 126 286 126 345 126 c 0,19,20
 405 126 405 126 430.5 177 c 128,-1,21
 456 228 456 228 456 349 c 0,22,23
 456 469 456 469 430 519.5 c 128,-1,24
 404 570 404 570 345 570 c 256,25,14
 286 570 286 570 260 519.5 c 128,-1,15
EndSplineSet
Substitution2: "Single Substitution lookup 45 subtable" ordmasculine
Substitution2: "'c2sc' Capitals to Small Capitals lookup 26 subtable" o.sc
AlternateSubs2: "'aalt' Access All Alternates lookup 1 subtable" ordmasculine o.sc
Position2: "'cpsp' Capital Spacing lookup 0 subtable" dx=5 dy=0 dh=10 dv=0
EndChar

StartChar: uni0222
Encoding: 546 546 183
Width: 650
GlyphClass: 2
Flags: W
AnchorPoint: "Anchor-18" 0 0 basechar 0
AnchorPoint: "Anchor-17" 0 0 basechar 0
AnchorPoint: "Anchor-16" 325 696 basechar 0
AnchorPoint: "Anchor-15" 0 0 basechar 0
AnchorPoint: "Anchor-14" 325 0 basechar 0
LayerCount: 2
Fore
SplineSet
630 223 m 0,1,2
 630 157 630 157 592.5 101 c 128,-1,3
 555 45 555 45 486 12.5 c 128,-1,4
 417 -20 417 -20 325 -20 c 256,5,6
 233 -20 233 -20 163.5 12 c 128,-1,7
 94 44 94 44 57 99 c 128,-1,8
 20 154 20 154 20 223 c 0,9,10
 20 287 20 287 52.5 332.5 c 128,-1,11
 85 378 85 378 146 404 c 1,12,13
 58 450 58 450 58 554 c 2,14,-1
 58 696 l 1,15,-1
 264 696 l 1,16,-1
 264 540 l 2,17,18
 264 502 264 502 277 484 c 128,-1,19
 290 466 290 466 325 466 c 256,20,21
 360 466 360 466 373 484 c 128,-1,22
 386 502 386 502 386 540 c 2,23,-1
 386 696 l 1,24,-1
 592 696 l 1,25,-1
 592 554 l 2,26,27
 592 505 592 505 569 467 c 128,-1,28
 546 429 546 429 503 406 c 1,29,0
 630 354 630 354 630 223 c 0,1,2
392.5 153 m 128,-1,31
 416 180 416 180 416 226 c 256,32,33
 416 272 416 272 392 300 c 128,-1,34
 368 328 368 328 325 328 c 256,35,36
 282 328 282 328 258 300 c 128,-1,37
 234 272 234 272 234 226 c 256,38,39
 234 180 234 180 258 153 c 128,-1,40
 282 126 282 126 325 126 c 0,41,30
 369 126 369 126 392.5 153 c 128,-1,31
EndSplineSet
Substitution2: "'c2sc' Capitals to Small Capitals lookup 26 subtable" uni0223.sc
Substitution2: "'aalt' Access All Alternates lookup 0 subtable" uni0223.sc
Position2: "'cpsp' Capital Spacing lookup 0 subtable" dx=5 dy=0 dh=10 dv=0
EndChar

StartChar: Ohorn
Encoding: 416 416 203
Width: 723
GlyphClass: 2
Flags: W
AnchorPoint: "Anchor-18" 0 0 basechar 0
AnchorPoint: "Anchor-17" 641 696 basechar 0
AnchorPoint: "Anchor-16" 345 696 basechar 0
AnchorPoint: "Anchor-15" 479 0 basechar 0
AnchorPoint: "Anchor-14" 345 0 basechar 0
LayerCount: 2
Fore
SplineSet
714 592.5 m 128,-1,1
 685 559 685 559 632 548 c 1,2,3
 670 464 670 464 670 349 c 0,4,5
 670 236 670 236 632 153 c 128,-1,6
 594 70 594 70 521 25 c 128,-1,7
 448 -20 448 -20 345 -20 c 0,8,9
 189 -20 189 -20 104.5 77.5 c 128,-1,10
 20 175 20 175 20 349 c 0,11,12
 20 462 20 462 58 544.5 c 128,-1,13
 96 627 96 627 169 671.5 c 128,-1,14
 242 716 242 716 345 716 c 0,15,16
 489 716 489 716 572 633 c 1,17,18
 596 636 596 636 606 650 c 128,-1,19
 616 664 616 664 616 693 c 0,20,21
 616 724 616 724 604 758 c 1,22,-1
 724 773 l 1,23,24
 743 733 743 733 743 681 c 0,25,0
 743 626 743 626 714 592.5 c 128,-1,1
430.5 177 m 128,-1,27
 456 228 456 228 456 349 c 0,28,29
 456 469 456 469 430 519.5 c 128,-1,30
 404 570 404 570 345 570 c 256,31,32
 286 570 286 570 260 519.5 c 128,-1,33
 234 469 234 469 234 349 c 256,34,35
 234 229 234 229 260 177.5 c 128,-1,36
 286 126 286 126 345 126 c 0,37,26
 405 126 405 126 430.5 177 c 128,-1,27
EndSplineSet
Substitution2: "'c2sc' Capitals to Small Capitals lookup 26 subtable" ohorn.sc
Substitution2: "'aalt' Access All Alternates lookup 0 subtable" ohorn.sc
Position2: "'cpsp' Capital Spacing lookup 0 subtable" dx=5 dy=0 dh=10 dv=0
EndChar

StartChar: uni1EDA
Encoding: 7898 7898 204
Width: 723
GlyphClass: 2
Flags: W
AnchorPoint: "Anchor-18" 0 0 basechar 0
AnchorPoint: "Anchor-17" 641 696 basechar 0
AnchorPoint: "Anchor-16" 347 984 basechar 0
AnchorPoint: "Anchor-15" 479 0 basechar 0
AnchorPoint: "Anchor-14" 345 0 basechar 0
LayerCount: 2
Fore
SplineSet
497 840 m 1,0,-1
 243 749 l 1,1,-1
 193 848 l 1,2,-1
 427 984 l 1,3,-1
 497 840 l 1,0,-1
714 592.5 m 128,-1,5
 685 559 685 559 632 548 c 1,6,7
 670 464 670 464 670 349 c 0,8,9
 670 236 670 236 632 153 c 128,-1,10
 594 70 594 70 521 25 c 128,-1,11
 448 -20 448 -20 345 -20 c 0,12,13
 189 -20 189 -20 104.5 77.5 c 128,-1,14
 20 175 20 175 20 349 c 0,15,16
 20 462 20 462 58 544.5 c 128,-1,17
 96 627 96 627 169 671.5 c 128,-1,18
 242 716 242 716 345 716 c 0,19,20
 489 716 489 716 572 633 c 1,21,22
 596 636 596 636 606 650 c 128,-1,23
 616 664 616 664 616 693 c 0,24,25
 616 724 616 724 604 758 c 1,26,-1
 724 773 l 1,27,28
 743 733 743 733 743 681 c 0,29,4
 743 626 743 626 714 592.5 c 128,-1,5
430.5 177 m 128,-1,31
 456 228 456 228 456 349 c 0,32,33
 456 469 456 469 430 519.5 c 128,-1,34
 404 570 404 570 345 570 c 256,35,36
 286 570 286 570 260 519.5 c 128,-1,37
 234 469 234 469 234 349 c 256,38,39
 234 229 234 229 260 177.5 c 128,-1,40
 286 126 286 126 345 126 c 0,41,30
 405 126 405 126 430.5 177 c 128,-1,31
EndSplineSet
Substitution2: "'c2sc' Capitals to Small Capitals lookup 26 subtable" uni1EDB.sc
Substitution2: "'aalt' Access All Alternates lookup 0 subtable" uni1EDB.sc
Position2: "'cpsp' Capital Spacing lookup 0 subtable" dx=5 dy=0 dh=10 dv=0
EndChar

StartChar: uni1EE2
Encoding: 7906 7906 205
Width: 723
GlyphClass: 2
Flags: W
AnchorPoint: "Anchor-18" 0 0 basechar 0
AnchorPoint: "Anchor-17" 641 696 basechar 0
AnchorPoint: "Anchor-16" 345 696 basechar 0
AnchorPoint: "Anchor-15" 479 0 basechar 0
AnchorPoint: "Anchor-14" 347 -215 basechar 0
LayerCount: 2
Fore
SplineSet
714 592.5 m 128,-1,1
 685 559 685 559 632 548 c 1,2,3
 670 464 670 464 670 349 c 0,4,5
 670 236 670 236 632 153 c 128,-1,6
 594 70 594 70 521 25 c 128,-1,7
 448 -20 448 -20 345 -20 c 0,8,9
 189 -20 189 -20 104.5 77.5 c 128,-1,10
 20 175 20 175 20 349 c 0,11,12
 20 462 20 462 58 544.5 c 128,-1,13
 96 627 96 627 169 671.5 c 128,-1,14
 242 716 242 716 345 716 c 0,15,16
 489 716 489 716 572 633 c 1,17,18
 596 636 596 636 606 650 c 128,-1,19
 616 664 616 664 616 693 c 0,20,21
 616 724 616 724 604 758 c 1,22,-1
 724 773 l 1,23,24
 743 733 743 733 743 681 c 0,25,0
 743 626 743 626 714 592.5 c 128,-1,1
430.5 177 m 128,-1,27
 456 228 456 228 456 349 c 0,28,29
 456 469 456 469 430 519.5 c 128,-1,30
 404 570 404 570 345 570 c 256,31,32
 286 570 286 570 260 519.5 c 128,-1,33
 234 469 234 469 234 349 c 256,34,35
 234 229 234 229 260 177.5 c 128,-1,36
 286 126 286 126 345 126 c 0,37,26
 405 126 405 126 430.5 177 c 128,-1,27
424.5 -82.5 m 128,-1,39
 456 -113 456 -113 456 -158 c 256,40,41
 456 -203 456 -203 424.5 -233.5 c 128,-1,42
 393 -264 393 -264 345 -264 c 256,43,44
 297 -264 297 -264 265.5 -233.5 c 128,-1,45
 234 -203 234 -203 234 -158 c 256,46,47
 234 -113 234 -113 265.5 -82.5 c 128,-1,48
 297 -52 297 -52 345 -52 c 256,49,38
 393 -52 393 -52 424.5 -82.5 c 128,-1,39
EndSplineSet
Substitution2: "'c2sc' Capitals to Small Capitals lookup 26 subtable" uni1EE3.sc
Substitution2: "'aalt' Access All Alternates lookup 0 subtable" uni1EE3.sc
Position2: "'cpsp' Capital Spacing lookup 0 subtable" dx=5 dy=0 dh=10 dv=0
EndChar

StartChar: uni1EDC
Encoding: 7900 7900 206
Width: 723
GlyphClass: 2
Flags: W
AnchorPoint: "Anchor-18" 0 0 basechar 0
AnchorPoint: "Anchor-17" 641 696 basechar 0
AnchorPoint: "Anchor-16" 347 984 basechar 0
AnchorPoint: "Anchor-15" 479 0 basechar 0
AnchorPoint: "Anchor-14" 345 0 basechar 0
LayerCount: 2
Fore
SplineSet
497 848 m 1,0,-1
 447 749 l 1,1,-1
 193 840 l 1,2,-1
 264 984 l 1,3,-1
 497 848 l 1,0,-1
714 592.5 m 128,-1,5
 685 559 685 559 632 548 c 1,6,7
 670 464 670 464 670 349 c 0,8,9
 670 236 670 236 632 153 c 128,-1,10
 594 70 594 70 521 25 c 128,-1,11
 448 -20 448 -20 345 -20 c 0,12,13
 189 -20 189 -20 104.5 77.5 c 128,-1,14
 20 175 20 175 20 349 c 0,15,16
 20 462 20 462 58 544.5 c 128,-1,17
 96 627 96 627 169 671.5 c 128,-1,18
 242 716 242 716 345 716 c 0,19,20
 489 716 489 716 572 633 c 1,21,22
 596 636 596 636 606 650 c 128,-1,23
 616 664 616 664 616 693 c 0,24,25
 616 724 616 724 604 758 c 1,26,-1
 724 773 l 1,27,28
 743 733 743 733 743 681 c 0,29,4
 743 626 743 626 714 592.5 c 128,-1,5
430.5 177 m 128,-1,31
 456 228 456 228 456 349 c 0,32,33
 456 469 456 469 430 519.5 c 128,-1,34
 404 570 404 570 345 570 c 256,35,36
 286 570 286 570 260 519.5 c 128,-1,37
 234 469 234 469 234 349 c 256,38,39
 234 229 234 229 260 177.5 c 128,-1,40
 286 126 286 126 345 126 c 0,41,30
 405 126 405 126 430.5 177 c 128,-1,31
EndSplineSet
Substitution2: "'c2sc' Capitals to Small Capitals lookup 26 subtable" uni1EDD.sc
Substitution2: "'aalt' Access All Alternates lookup 0 subtable" uni1EDD.sc
Position2: "'cpsp' Capital Spacing lookup 0 subtable" dx=5 dy=0 dh=10 dv=0
EndChar

StartChar: uni1EDE
Encoding: 7902 7902 207
Width: 723
GlyphClass: 2
Flags: W
AnchorPoint: "Anchor-18" 0 0 basechar 0
AnchorPoint: "Anchor-17" 641 696 basechar 0
AnchorPoint: "Anchor-16" 351 1009 basechar 0
AnchorPoint: "Anchor-15" 479 0 basechar 0
AnchorPoint: "Anchor-14" 345 0 basechar 0
LayerCount: 2
Fore
SplineSet
293.5 917 m 128,-1,1
 280 914 280 914 262 907 c 1,2,-1
 233 981 l 1,3,4
 280 1009 280 1009 351 1009 c 0,5,6
 415 1009 415 1009 450 979 c 128,-1,7
 485 949 485 949 485 901 c 0,8,9
 485 861 485 861 463 836 c 128,-1,10
 441 811 441 811 399 803 c 1,11,-1
 399 764 l 1,12,-1
 290 764 l 1,13,-1
 290 857 l 1,14,15
 328 858 328 858 344.5 866 c 128,-1,16
 361 874 361 874 361 892 c 0,17,18
 361 905 361 905 351 912.5 c 128,-1,19
 341 920 341 920 324 920 c 256,20,0
 307 920 307 920 293.5 917 c 128,-1,1
714 592.5 m 128,-1,22
 685 559 685 559 632 548 c 1,23,24
 670 464 670 464 670 349 c 0,25,26
 670 236 670 236 632 153 c 128,-1,27
 594 70 594 70 521 25 c 128,-1,28
 448 -20 448 -20 345 -20 c 0,29,30
 189 -20 189 -20 104.5 77.5 c 128,-1,31
 20 175 20 175 20 349 c 0,32,33
 20 462 20 462 58 544.5 c 128,-1,34
 96 627 96 627 169 671.5 c 128,-1,35
 242 716 242 716 345 716 c 0,36,37
 489 716 489 716 572 633 c 1,38,39
 596 636 596 636 606 650 c 128,-1,40
 616 664 616 664 616 693 c 0,41,42
 616 724 616 724 604 758 c 1,43,-1
 724 773 l 1,44,45
 743 733 743 733 743 681 c 0,46,21
 743 626 743 626 714 592.5 c 128,-1,22
430.5 177 m 128,-1,48
 456 228 456 228 456 349 c 0,49,50
 456 469 456 469 430 519.5 c 128,-1,51
 404 570 404 570 345 570 c 256,52,53
 286 570 286 570 260 519.5 c 128,-1,54
 234 469 234 469 234 349 c 256,55,56
 234 229 234 229 260 177.5 c 128,-1,57
 286 126 286 126 345 126 c 0,58,47
 405 126 405 126 430.5 177 c 128,-1,48
EndSplineSet
Substitution2: "'c2sc' Capitals to Small Capitals lookup 26 subtable" uni1EDF.sc
Substitution2: "'aalt' Access All Alternates lookup 0 subtable" uni1EDF.sc
Position2: "'cpsp' Capital Spacing lookup 0 subtable" dx=5 dy=0 dh=10 dv=0
EndChar

StartChar: uni1EE0
Encoding: 7904 7904 208
Width: 723
GlyphClass: 2
Flags: W
AnchorPoint: "Anchor-18" 0 0 basechar 0
AnchorPoint: "Anchor-17" 641 696 basechar 0
AnchorPoint: "Anchor-16" 347 929 basechar 0
AnchorPoint: "Anchor-15" 479 0 basechar 0
AnchorPoint: "Anchor-14" 345 0 basechar 0
LayerCount: 2
Fore
SplineSet
261 781 m 128,-1,1
 250 771 250 771 237 748 c 1,2,-1
 144 793 l 1,3,4
 165 852 165 852 201.5 890.5 c 128,-1,5
 238 929 238 929 285 929 c 0,6,7
 310 929 310 929 327.5 922 c 128,-1,8
 345 915 345 915 364 902 c 0,9,10
 376 894 376 894 384 890 c 128,-1,11
 392 886 392 886 401 886 c 0,12,13
 418 886 418 886 429 896 c 128,-1,14
 440 906 440 906 453 929 c 1,15,-1
 546 884 l 1,16,17
 525 824 525 824 488 786 c 128,-1,18
 451 748 451 748 403 748 c 0,19,20
 379 748 379 748 362.5 755 c 128,-1,21
 346 762 346 762 327 775 c 0,22,23
 315 783 315 783 307 787 c 128,-1,24
 299 791 299 791 290 791 c 0,25,0
 272 791 272 791 261 781 c 128,-1,1
714 592.5 m 128,-1,27
 685 559 685 559 632 548 c 1,28,29
 670 464 670 464 670 349 c 0,30,31
 670 236 670 236 632 153 c 128,-1,32
 594 70 594 70 521 25 c 128,-1,33
 448 -20 448 -20 345 -20 c 0,34,35
 189 -20 189 -20 104.5 77.5 c 128,-1,36
 20 175 20 175 20 349 c 0,37,38
 20 462 20 462 58 544.5 c 128,-1,39
 96 627 96 627 169 671.5 c 128,-1,40
 242 716 242 716 345 716 c 0,41,42
 489 716 489 716 572 633 c 1,43,44
 596 636 596 636 606 650 c 128,-1,45
 616 664 616 664 616 693 c 0,46,47
 616 724 616 724 604 758 c 1,48,-1
 724 773 l 1,49,50
 743 733 743 733 743 681 c 0,51,26
 743 626 743 626 714 592.5 c 128,-1,27
430.5 177 m 128,-1,53
 456 228 456 228 456 349 c 0,54,55
 456 469 456 469 430 519.5 c 128,-1,56
 404 570 404 570 345 570 c 256,57,58
 286 570 286 570 260 519.5 c 128,-1,59
 234 469 234 469 234 349 c 256,60,61
 234 229 234 229 260 177.5 c 128,-1,62
 286 126 286 126 345 126 c 0,63,52
 405 126 405 126 430.5 177 c 128,-1,53
EndSplineSet
Substitution2: "'c2sc' Capitals to Small Capitals lookup 26 subtable" uni1EE1.sc
Substitution2: "'aalt' Access All Alternates lookup 0 subtable" uni1EE1.sc
Position2: "'cpsp' Capital Spacing lookup 0 subtable" dx=5 dy=0 dh=10 dv=0
EndChar

StartChar: uni01A2
Encoding: 418 418 210
Width: 981
GlyphClass: 2
Flags: W
AnchorPoint: "Anchor-18" 0 0 basechar 0
AnchorPoint: "Anchor-17" 0 0 basechar 0
AnchorPoint: "Anchor-16" 491 696 basechar 0
AnchorPoint: "Anchor-15" 0 0 basechar 0
AnchorPoint: "Anchor-14" 491 -215 basechar 0
LayerCount: 2
Fore
SplineSet
876.5 662 m 128,-1,1
 938 608 938 608 938 505 c 2,2,-1
 938 -215 l 1,3,-1
 732 -215 l 1,4,-1
 732 513 l 2,5,6
 732 576 732 576 682 576 c 0,7,8
 652 576 652 576 621 563 c 1,9,10
 670 476 670 476 670 349 c 0,11,12
 670 236 670 236 632 153 c 128,-1,13
 594 70 594 70 521 25 c 128,-1,14
 448 -20 448 -20 345 -20 c 0,15,16
 189 -20 189 -20 104.5 77.5 c 128,-1,17
 20 175 20 175 20 349 c 0,18,19
 20 462 20 462 58 544.5 c 128,-1,20
 96 627 96 627 169 671.5 c 128,-1,21
 242 716 242 716 345 716 c 0,22,23
 454 716 454 716 533 662 c 1,24,25
 613 716 613 716 710 716 c 0,26,0
 815 716 815 716 876.5 662 c 128,-1,1
430.5 177 m 128,-1,28
 456 228 456 228 456 349 c 0,29,30
 456 469 456 469 430 519.5 c 128,-1,31
 404 570 404 570 345 570 c 256,32,33
 286 570 286 570 260 519.5 c 128,-1,34
 234 469 234 469 234 349 c 256,35,36
 234 229 234 229 260 177.5 c 128,-1,37
 286 126 286 126 345 126 c 0,38,27
 405 126 405 126 430.5 177 c 128,-1,28
EndSplineSet
Substitution2: "'c2sc' Capitals to Small Capitals lookup 26 subtable" uni01A3.sc
Substitution2: "'aalt' Access All Alternates lookup 0 subtable" uni01A3.sc
Position2: "'cpsp' Capital Spacing lookup 0 subtable" dx=5 dy=0 dh=10 dv=0
EndChar

StartChar: uni1E50
Encoding: 7760 7760 214
Width: 690
GlyphClass: 2
Flags: W
AnchorPoint: "Anchor-18" 0 0 basechar 0
AnchorPoint: "Anchor-17" 589 696 basechar 0
AnchorPoint: "Anchor-16" 347 1152 basechar 0
AnchorPoint: "Anchor-15" 479 0 basechar 0
AnchorPoint: "Anchor-14" 345 0 basechar 0
LayerCount: 2
Fore
SplineSet
264 1152 m 1,0,-1
 497 1016 l 1,1,-1
 447 917 l 1,2,-1
 193 1008 l 1,3,-1
 264 1152 l 1,0,-1
507 762 m 1,4,-1
 182 762 l 1,5,-1
 182 896 l 1,6,-1
 507 896 l 1,7,-1
 507 762 l 1,4,-1
585.5 619.5 m 128,-1,9
 670 523 670 523 670 349 c 0,10,11
 670 236 670 236 632 153 c 128,-1,12
 594 70 594 70 521 25 c 128,-1,13
 448 -20 448 -20 345 -20 c 0,14,15
 189 -20 189 -20 104.5 77.5 c 128,-1,16
 20 175 20 175 20 349 c 0,17,18
 20 462 20 462 58 544.5 c 128,-1,19
 96 627 96 627 169 671.5 c 128,-1,20
 242 716 242 716 345 716 c 0,21,8
 501 716 501 716 585.5 619.5 c 128,-1,9
260 519.5 m 128,-1,23
 234 469 234 469 234 349 c 256,24,25
 234 229 234 229 260 177.5 c 128,-1,26
 286 126 286 126 345 126 c 0,27,28
 405 126 405 126 430.5 177 c 128,-1,29
 456 228 456 228 456 349 c 0,30,31
 456 469 456 469 430 519.5 c 128,-1,32
 404 570 404 570 345 570 c 256,33,22
 286 570 286 570 260 519.5 c 128,-1,23
EndSplineSet
Substitution2: "'c2sc' Capitals to Small Capitals lookup 26 subtable" uni1E51.sc
Substitution2: "'aalt' Access All Alternates lookup 0 subtable" uni1E51.sc
Position2: "'cpsp' Capital Spacing lookup 0 subtable" dx=5 dy=0 dh=10 dv=0
EndChar

StartChar: uniA7B6
Encoding: 42934 42934 215
Width: 916
GlyphClass: 2
Flags: W
AnchorPoint: "Anchor-18" 0 0 basechar 0
AnchorPoint: "Anchor-17" 0 0 basechar 0
AnchorPoint: "Anchor-16" 458 696 basechar 0
AnchorPoint: "Anchor-15" 0 0 basechar 0
AnchorPoint: "Anchor-14" 458 0 basechar 0
LayerCount: 2
Fore
SplineSet
855.5 520 m 128,-1,1
 876 432 876 432 876 304 c 0,2,3
 876 140 876 140 817 60 c 128,-1,4
 758 -20 758 -20 641 -20 c 0,5,6
 497 -20 497 -20 459 109 c 1,7,8
 442 43 442 43 395 11.5 c 128,-1,9
 348 -20 348 -20 286 -20 c 0,10,11
 159 -20 159 -20 99.5 59 c 128,-1,12
 40 138 40 138 40 304 c 0,13,14
 40 431 40 431 60.5 519 c 128,-1,15
 81 607 81 607 119 696 c 1,16,-1
 308 696 l 1,17,-1
 301 669 l 2,18,19
 274 571 274 571 260 495.5 c 128,-1,20
 246 420 246 420 246 316 c 0,21,22
 246 213 246 213 260.5 169.5 c 128,-1,23
 275 126 275 126 310 126 c 0,24,25
 359 126 359 126 359 200 c 2,26,-1
 359 399 l 1,27,-1
 562 399 l 1,28,-1
 562 200 l 2,29,30
 562 158 562 158 572.5 142 c 128,-1,31
 583 126 583 126 610 126 c 0,32,33
 643 126 643 126 656.5 169 c 128,-1,34
 670 212 670 212 670 316 c 0,35,36
 670 395 670 395 660 460.5 c 128,-1,37
 650 526 650 526 636 575 c 128,-1,38
 622 624 622 624 598 696 c 1,39,-1
 796 696 l 1,40,0
 835 608 835 608 855.5 520 c 128,-1,1
EndSplineSet
Substitution2: "'c2sc' Capitals to Small Capitals lookup 26 subtable" uniA7B6.sc
Substitution2: "'aalt' Access All Alternates lookup 0 subtable" uniA7B6.sc
Position2: "'cpsp' Capital Spacing lookup 0 subtable" dx=5 dy=0 dh=10 dv=0
EndChar

StartChar: uni01EA
Encoding: 490 490 216
Width: 690
GlyphClass: 2
Flags: W
AnchorPoint: "Anchor-18" 0 0 basechar 0
AnchorPoint: "Anchor-17" 589 696 basechar 0
AnchorPoint: "Anchor-16" 345 696 basechar 0
AnchorPoint: "Anchor-15" 479 0 basechar 0
AnchorPoint: "Anchor-14" 345 0 basechar 0
LayerCount: 2
Fore
SplineSet
618 125.5 m 128,-1,1
 566 35 566 35 469 0 c 0,2,3
 405 -21 405 -21 379.5 -46.5 c 128,-1,4
 354 -72 354 -72 354 -95 c 0,5,6
 354 -139 354 -139 405 -139 c 0,7,8
 431 -139 431 -139 466 -131 c 1,9,-1
 454 -246 l 1,10,11
 419 -254 419 -254 380 -254 c 0,12,13
 310 -254 310 -254 265 -220 c 128,-1,14
 220 -186 220 -186 220 -128 c 0,15,16
 220 -60 220 -60 274 -14 c 1,17,18
 151 7 151 7 85.5 101.5 c 128,-1,19
 20 196 20 196 20 349 c 0,20,21
 20 462 20 462 58 544.5 c 128,-1,22
 96 627 96 627 169 671.5 c 128,-1,23
 242 716 242 716 345 716 c 0,24,25
 501 716 501 716 585.5 619.5 c 128,-1,26
 670 523 670 523 670 349 c 0,27,0
 670 216 670 216 618 125.5 c 128,-1,1
260 519.5 m 128,-1,29
 234 469 234 469 234 349 c 256,30,31
 234 229 234 229 260 177.5 c 128,-1,32
 286 126 286 126 345 126 c 0,33,34
 405 126 405 126 430.5 177 c 128,-1,35
 456 228 456 228 456 349 c 0,36,37
 456 469 456 469 430 519.5 c 128,-1,38
 404 570 404 570 345 570 c 256,39,28
 286 570 286 570 260 519.5 c 128,-1,29
EndSplineSet
Substitution2: "'c2sc' Capitals to Small Capitals lookup 26 subtable" uni01EB.sc
Substitution2: "'aalt' Access All Alternates lookup 0 subtable" uni01EB.sc
Position2: "'cpsp' Capital Spacing lookup 0 subtable" dx=5 dy=0 dh=10 dv=0
EndChar

StartChar: uni01EC
Encoding: 492 492 217
Width: 690
GlyphClass: 2
Flags: W
AnchorPoint: "Anchor-18" 0 0 basechar 0
AnchorPoint: "Anchor-17" 589 696 basechar 0
AnchorPoint: "Anchor-16" 347 908 basechar 0
AnchorPoint: "Anchor-15" 479 0 basechar 0
AnchorPoint: "Anchor-14" 345 0 basechar 0
LayerCount: 2
Fore
SplineSet
507 908 m 1,0,-1
 507 774 l 1,1,-1
 182 774 l 1,2,-1
 182 908 l 1,3,-1
 507 908 l 1,0,-1
618 125.5 m 128,-1,5
 566 35 566 35 469 0 c 0,6,7
 405 -21 405 -21 379.5 -46.5 c 128,-1,8
 354 -72 354 -72 354 -95 c 0,9,10
 354 -139 354 -139 405 -139 c 0,11,12
 431 -139 431 -139 466 -131 c 1,13,-1
 454 -246 l 1,14,15
 419 -254 419 -254 380 -254 c 0,16,17
 310 -254 310 -254 265 -220 c 128,-1,18
 220 -186 220 -186 220 -128 c 0,19,20
 220 -60 220 -60 274 -14 c 1,21,22
 151 7 151 7 85.5 101.5 c 128,-1,23
 20 196 20 196 20 349 c 0,24,25
 20 462 20 462 58 544.5 c 128,-1,26
 96 627 96 627 169 671.5 c 128,-1,27
 242 716 242 716 345 716 c 0,28,29
 501 716 501 716 585.5 619.5 c 128,-1,30
 670 523 670 523 670 349 c 0,31,4
 670 216 670 216 618 125.5 c 128,-1,5
260 519.5 m 128,-1,33
 234 469 234 469 234 349 c 256,34,35
 234 229 234 229 260 177.5 c 128,-1,36
 286 126 286 126 345 126 c 0,37,38
 405 126 405 126 430.5 177 c 128,-1,39
 456 228 456 228 456 349 c 0,40,41
 456 469 456 469 430 519.5 c 128,-1,42
 404 570 404 570 345 570 c 256,43,32
 286 570 286 570 260 519.5 c 128,-1,33
EndSplineSet
Substitution2: "'c2sc' Capitals to Small Capitals lookup 26 subtable" uni01ED.sc
Substitution2: "'aalt' Access All Alternates lookup 0 subtable" uni01ED.sc
Position2: "'cpsp' Capital Spacing lookup 0 subtable" dx=5 dy=0 dh=10 dv=0
EndChar

StartChar: uni0186
Encoding: 390 390 218
Width: 584
GlyphClass: 2
Flags: W
AnchorPoint: "Anchor-18" 209 354 basechar 0
AnchorPoint: "Anchor-17" 0 0 basechar 0
AnchorPoint: "Anchor-16" 252 696 basechar 0
AnchorPoint: "Anchor-15" 0 0 basechar 0
AnchorPoint: "Anchor-14" 252 0 basechar 0
LayerCount: 2
Fore
SplineSet
411.5 672.5 m 128,-1,1
 484 629 484 629 524 546.5 c 128,-1,2
 564 464 564 464 564 350 c 0,3,4
 564 232 564 232 523.5 148.5 c 128,-1,5
 483 65 483 65 408.5 22.5 c 128,-1,6
 334 -20 334 -20 234 -20 c 0,7,8
 163 -20 163 -20 103.5 7 c 128,-1,9
 44 34 44 34 0 77 c 1,10,-1
 89 190 l 1,11,12
 126 162 126 162 156 148.5 c 128,-1,13
 186 135 186 135 223 135 c 0,14,15
 284 135 284 135 317 186 c 128,-1,16
 350 237 350 237 350 350 c 0,17,18
 350 464 350 464 320 516 c 128,-1,19
 290 568 290 568 232 568 c 0,20,21
 196 568 196 568 166.5 555.5 c 128,-1,22
 137 543 137 543 106 519 c 1,23,-1
 8 634 l 1,24,25
 56 674 56 674 113 695 c 128,-1,26
 170 716 170 716 244 716 c 0,27,0
 339 716 339 716 411.5 672.5 c 128,-1,1
EndSplineSet
Substitution2: "'c2sc' Capitals to Small Capitals lookup 26 subtable" uni0254.sc
Substitution2: "'aalt' Access All Alternates lookup 0 subtable" uni0254.sc
Position2: "'cpsp' Capital Spacing lookup 0 subtable" dx=5 dy=0 dh=10 dv=0
EndChar

StartChar: Oslash
Encoding: 216 216 219
Width: 690
GlyphClass: 2
Flags: W
AnchorPoint: "Anchor-18" 0 0 basechar 0
AnchorPoint: "Anchor-17" 0 0 basechar 0
AnchorPoint: "Anchor-16" 345 741 basechar 0
AnchorPoint: "Anchor-15" 0 0 basechar 0
AnchorPoint: "Anchor-14" 345 0 basechar 0
LayerCount: 2
Fore
SplineSet
634.5 542 m 128,-1,1
 670 461 670 461 670 349 c 0,2,3
 670 236 670 236 632 153 c 128,-1,4
 594 70 594 70 521 25 c 128,-1,5
 448 -20 448 -20 345 -20 c 0,6,7
 332 -20 332 -20 306 -18 c 1,8,-1
 269 -139 l 1,9,-1
 119 -99 l 1,10,-1
 159 30 l 1,11,12
 91 74 91 74 55.5 155.5 c 128,-1,13
 20 237 20 237 20 349 c 0,14,15
 20 462 20 462 58 544.5 c 128,-1,16
 96 627 96 627 169 671.5 c 128,-1,17
 242 716 242 716 345 716 c 0,18,19
 358 716 358 716 384 714 c 1,20,-1
 421 833 l 1,21,-1
 571 793 l 1,22,-1
 531 667 l 1,23,0
 599 623 599 623 634.5 542 c 128,-1,1
260 519.5 m 128,-1,25
 234 469 234 469 234 349 c 0,26,27
 234 242 234 242 249 192 c 1,28,-1
 363 569 l 1,29,30
 357 570 357 570 345 570 c 0,31,24
 286 570 286 570 260 519.5 c 128,-1,25
430.5 177 m 128,-1,33
 456 228 456 228 456 349 c 0,34,35
 456 455 456 455 441 504 c 1,36,-1
 328 127 l 1,37,38
 333 126 333 126 345 126 c 0,39,32
 405 126 405 126 430.5 177 c 128,-1,33
EndSplineSet
Substitution2: "'c2sc' Capitals to Small Capitals lookup 26 subtable" oslash.sc
Substitution2: "'aalt' Access All Alternates lookup 0 subtable" oslash.sc
Position2: "'cpsp' Capital Spacing lookup 0 subtable" dx=5 dy=0 dh=10 dv=0
EndChar

StartChar: OE
Encoding: 338 338 224
Width: 910
GlyphClass: 2
Flags: W
AnchorPoint: "Anchor-18" 0 0 basechar 0
AnchorPoint: "Anchor-17" 0 0 basechar 0
AnchorPoint: "Anchor-16" 455 696 basechar 0
AnchorPoint: "Anchor-15" 0 0 basechar 0
AnchorPoint: "Anchor-14" 455 0 basechar 0
LayerCount: 2
Fore
SplineSet
593 144 m 1,1,-1
 885 144 l 1,2,-1
 885 0 l 1,3,-1
 434 0 l 1,4,5
 386 -20 386 -20 327 -20 c 0,6,7
 232 -20 232 -20 163 24 c 128,-1,8
 94 68 94 68 57 151 c 128,-1,9
 20 234 20 234 20 349 c 0,10,11
 20 461 20 461 57 544 c 128,-1,12
 94 627 94 627 163 671.5 c 128,-1,13
 232 716 232 716 327 716 c 0,14,15
 389 716 389 716 438 696 c 1,16,-1
 890 696 l 1,17,-1
 869 553 l 1,18,-1
 594 553 l 1,19,20
 631 497 631 497 644 423 c 1,21,-1
 841 423 l 1,22,-1
 841 284 l 1,23,-1
 645 284 l 1,24,0
 632 204 632 204 593 144 c 1,1,-1
412 177.5 m 128,-1,26
 436 229 436 229 436 349 c 0,27,28
 436 467 436 467 411.5 518.5 c 128,-1,29
 387 570 387 570 335 570 c 256,30,31
 283 570 283 570 258.5 518.5 c 128,-1,32
 234 467 234 467 234 349 c 0,33,34
 234 230 234 230 258.5 178 c 128,-1,35
 283 126 283 126 335 126 c 0,36,25
 388 126 388 126 412 177.5 c 128,-1,26
EndSplineSet
Substitution2: "'c2sc' Capitals to Small Capitals lookup 26 subtable" oe.sc
Substitution2: "'aalt' Access All Alternates lookup 0 subtable" oe.sc
Position2: "'cpsp' Capital Spacing lookup 0 subtable" dx=5 dy=0 dh=10 dv=0
EndChar

StartChar: P
Encoding: 80 80 225
Width: 611
GlyphClass: 2
Flags: W
AnchorPoint: "Anchor-18" 0 0 basechar 0
AnchorPoint: "Anchor-17" 0 0 basechar 0
AnchorPoint: "Anchor-16" 306 696 basechar 0
AnchorPoint: "Anchor-15" 0 0 basechar 0
AnchorPoint: "Anchor-14" 146 0 basechar 0
LayerCount: 2
Fore
SplineSet
516.5 636.5 m 128,-1,1
 596 577 596 577 596 462 c 0,2,3
 596 343 596 343 520.5 280 c 128,-1,4
 445 217 445 217 317 217 c 2,5,-1
 249 217 l 1,6,-1
 249 0 l 1,7,-1
 43 0 l 1,8,-1
 43 696 l 1,9,-1
 294 696 l 2,10,0
 437 696 437 696 516.5 636.5 c 128,-1,1
386 462 m 0,12,13
 386 553 386 553 291 553 c 2,14,-1
 249 553 l 1,15,-1
 249 362 l 1,16,-1
 297 362 l 2,17,11
 386 362 386 362 386 462 c 0,12,13
EndSplineSet
Substitution2: "'c2sc' Capitals to Small Capitals lookup 26 subtable" p.sc
Substitution2: "'aalt' Access All Alternates lookup 0 subtable" p.sc
Position2: "'cpsp' Capital Spacing lookup 0 subtable" dx=5 dy=0 dh=10 dv=0
EndChar

StartChar: uni01A4
Encoding: 420 420 228
Width: 788
GlyphClass: 2
Flags: W
AnchorPoint: "Anchor-18" 0 0 basechar 0
AnchorPoint: "Anchor-17" 0 0 basechar 0
AnchorPoint: "Anchor-16" 483 696 basechar 0
AnchorPoint: "Anchor-15" 0 0 basechar 0
AnchorPoint: "Anchor-14" 323 0 basechar 0
LayerCount: 2
Fore
SplineSet
693.5 636.5 m 128,-1,1
 773 577 773 577 773 462 c 0,2,3
 773 343 773 343 697.5 280 c 128,-1,4
 622 217 622 217 494 217 c 2,5,-1
 426 217 l 1,6,-1
 426 0 l 1,7,-1
 220 0 l 1,8,-1
 220 553 l 1,9,-1
 195 553 l 2,10,11
 154 553 154 553 154 516 c 0,12,13
 154 502 154 502 157.5 488.5 c 128,-1,14
 161 475 161 475 169 455 c 1,15,-1
 46 403 l 1,16,17
 25 436 25 436 12.5 466.5 c 128,-1,18
 0 497 0 497 0 530 c 0,19,20
 0 608 0 608 56.5 652 c 128,-1,21
 113 696 113 696 206 696 c 2,22,-1
 471 696 l 2,23,0
 614 696 614 696 693.5 636.5 c 128,-1,1
563 462 m 0,25,26
 563 553 563 553 468 553 c 2,27,-1
 426 553 l 1,28,-1
 426 362 l 1,29,-1
 474 362 l 2,30,24
 563 362 563 362 563 462 c 0,25,26
EndSplineSet
Substitution2: "'c2sc' Capitals to Small Capitals lookup 26 subtable" uni01A5.sc
Substitution2: "'aalt' Access All Alternates lookup 0 subtable" uni01A5.sc
Position2: "'cpsp' Capital Spacing lookup 0 subtable" dx=5 dy=0 dh=10 dv=0
EndChar

StartChar: Thorn
Encoding: 222 222 229
Width: 611
GlyphClass: 2
Flags: W
AnchorPoint: "Anchor-18" 0 0 basechar 0
AnchorPoint: "Anchor-17" 0 0 basechar 0
AnchorPoint: "Anchor-16" 306 696 basechar 0
AnchorPoint: "Anchor-15" 0 0 basechar 0
AnchorPoint: "Anchor-14" 306 0 basechar 0
LayerCount: 2
Fore
SplineSet
516.5 533.5 m 128,-1,1
 596 474 596 474 596 358 c 0,2,3
 596 234 596 234 520.5 170 c 128,-1,4
 445 106 445 106 317 106 c 2,5,-1
 249 106 l 1,6,-1
 249 0 l 1,7,-1
 43 0 l 1,8,-1
 43 696 l 1,9,-1
 249 696 l 1,10,-1
 249 593 l 1,11,-1
 294 593 l 2,12,0
 437 593 437 593 516.5 533.5 c 128,-1,1
363.5 277 m 128,-1,14
 386 303 386 303 386 358 c 0,15,16
 386 450 386 450 291 450 c 2,17,-1
 249 450 l 1,18,-1
 249 251 l 1,19,-1
 297 251 l 2,20,13
 341 251 341 251 363.5 277 c 128,-1,14
EndSplineSet
Substitution2: "'c2sc' Capitals to Small Capitals lookup 26 subtable" thorn.sc
Substitution2: "'aalt' Access All Alternates lookup 0 subtable" thorn.sc
Position2: "'cpsp' Capital Spacing lookup 0 subtable" dx=5 dy=0 dh=10 dv=0
EndChar

StartChar: Q
Encoding: 81 81 230
Width: 690
GlyphClass: 2
Flags: W
AnchorPoint: "Anchor-18" 0 0 basechar 0
AnchorPoint: "Anchor-17" 0 0 basechar 0
AnchorPoint: "Anchor-16" 345 696 basechar 0
AnchorPoint: "Anchor-15" 0 0 basechar 0
AnchorPoint: "Anchor-14" 345 0 basechar 0
LayerCount: 2
Fore
SplineSet
625.5 33 m 128,-1,1
 675 18 675 18 720 -15 c 1,2,-1
 599 -173 l 1,3,4
 546 -103 546 -103 482.5 -59.5 c 128,-1,5
 419 -16 419 -16 330 -16 c 0,6,7
 233 -16 233 -16 163.5 27 c 128,-1,8
 94 70 94 70 57 152 c 128,-1,9
 20 234 20 234 20 349 c 0,10,11
 20 462 20 462 58 544.5 c 128,-1,12
 96 627 96 627 169 671.5 c 128,-1,13
 242 716 242 716 345 716 c 0,14,15
 501 716 501 716 585.5 619.5 c 128,-1,16
 670 523 670 523 670 349 c 0,17,18
 670 235 670 235 622.5 162.5 c 128,-1,19
 575 90 575 90 504 48 c 1,20,0
 576 48 576 48 625.5 33 c 128,-1,1
260 177.5 m 128,-1,22
 286 126 286 126 345 126 c 0,23,24
 405 126 405 126 430.5 177 c 128,-1,25
 456 228 456 228 456 349 c 0,26,27
 456 469 456 469 430 519.5 c 128,-1,28
 404 570 404 570 345 570 c 256,29,30
 286 570 286 570 260 519.5 c 128,-1,31
 234 469 234 469 234 349 c 256,32,21
 234 229 234 229 260 177.5 c 128,-1,22
EndSplineSet
Substitution2: "'c2sc' Capitals to Small Capitals lookup 26 subtable" q.sc
Substitution2: "'aalt' Access All Alternates lookup 0 subtable" q.sc
Position2: "'cpsp' Capital Spacing lookup 0 subtable" dx=5 dy=0 dh=10 dv=0
EndChar

StartChar: uni024A
Encoding: 586 586 231
Width: 675
GlyphClass: 2
Flags: W
AnchorPoint: "Anchor-18" 0 0 basechar 0
AnchorPoint: "Anchor-17" 0 0 basechar 0
AnchorPoint: "Anchor-16" 338 696 basechar 0
AnchorPoint: "Anchor-15" 0 0 basechar 0
AnchorPoint: "Anchor-14" 338 -215 basechar 0
LayerCount: 2
Fore
SplineSet
814 -182 m 1,0,1
 752 -227 752 -227 657 -227 c 0,2,3
 550 -227 550 -227 488 -173 c 128,-1,4
 426 -119 426 -119 426 -16 c 2,5,-1
 426 26 l 1,6,7
 375 -20 375 -20 295 -20 c 0,8,9
 211 -20 211 -20 149 23.5 c 128,-1,10
 87 67 87 67 53.5 148 c 128,-1,11
 20 229 20 229 20 339 c 0,12,13
 20 455 20 455 55.5 540 c 128,-1,14
 91 625 91 625 153.5 670.5 c 128,-1,15
 216 716 216 716 297 716 c 0,16,17
 381 716 381 716 443 659 c 1,18,-1
 448 696 l 1,19,-1
 632 696 l 1,20,-1
 632 -29 l 2,21,22
 632 -55 632 -55 645 -68.5 c 128,-1,23
 658 -82 658 -82 682 -82 c 0,24,25
 701 -82 701 -82 714.5 -77.5 c 128,-1,26
 728 -73 728 -73 750 -62 c 1,27,-1
 814 -182 l 1,0,1
426 150 m 1,29,-1
 426 538 l 1,30,31
 392 570 392 570 343 570 c 0,32,33
 287 570 287 570 260.5 517 c 128,-1,34
 234 464 234 464 234 339 c 0,35,36
 234 219 234 219 260.5 170 c 128,-1,37
 287 121 287 121 343 121 c 0,38,28
 390 121 390 121 426 150 c 1,29,-1
EndSplineSet
Substitution2: "'c2sc' Capitals to Small Capitals lookup 26 subtable" uni024B.sc
Substitution2: "'aalt' Access All Alternates lookup 0 subtable" uni024B.sc
Position2: "'cpsp' Capital Spacing lookup 0 subtable" dx=5 dy=0 dh=10 dv=0
EndChar

StartChar: R
Encoding: 82 82 232
Width: 624
GlyphClass: 2
Flags: W
AnchorPoint: "Anchor-18" 0 0 basechar 0
AnchorPoint: "Anchor-17" 0 0 basechar 0
AnchorPoint: "Anchor-16" 302 696 basechar 0
AnchorPoint: "Anchor-15" 0 0 basechar 0
AnchorPoint: "Anchor-14" 312 0 basechar 0
LayerCount: 2
Fore
SplineSet
287 248 m 1,0,-1
 249 248 l 1,1,-1
 249 0 l 1,2,-1
 43 0 l 1,3,-1
 43 696 l 1,4,-1
 298 696 l 2,5,6
 449 696 449 696 523 642.5 c 128,-1,7
 597 589 597 589 597 475 c 0,8,9
 597 410 597 410 568 367 c 128,-1,10
 539 324 539 324 474 286 c 1,11,-1
 644 0 l 1,12,-1
 416 0 l 1,13,-1
 287 248 l 1,0,-1
249 386 m 1,14,-1
 303 386 l 2,15,16
 345 386 345 386 366 408 c 128,-1,17
 387 430 387 430 387 475 c 0,18,19
 387 555 387 555 293 555 c 2,20,-1
 249 555 l 1,21,-1
 249 386 l 1,14,-1
EndSplineSet
Substitution2: "'c2sc' Capitals to Small Capitals lookup 26 subtable" r.sc
Substitution2: "'aalt' Access All Alternates lookup 0 subtable" r.sc
Position2: "'cpsp' Capital Spacing lookup 0 subtable" dx=5 dy=0 dh=10 dv=0
EndChar

StartChar: uni024C
Encoding: 588 588 239
Width: 640
GlyphClass: 2
Flags: W
AnchorPoint: "Anchor-18" 0 0 basechar 0
AnchorPoint: "Anchor-17" 0 0 basechar 0
AnchorPoint: "Anchor-16" 318 696 basechar 0
AnchorPoint: "Anchor-15" 0 0 basechar 0
AnchorPoint: "Anchor-14" 328 0 basechar 0
LayerCount: 2
Fore
SplineSet
303 248 m 1,0,-1
 265 248 l 1,1,-1
 265 0 l 1,2,-1
 59 0 l 1,3,-1
 59 248 l 1,4,-1
 10 248 l 1,5,-1
 10 386 l 1,6,-1
 59 386 l 1,7,-1
 59 696 l 1,8,-1
 314 696 l 2,9,10
 465 696 465 696 539 642.5 c 128,-1,11
 613 589 613 589 613 475 c 0,12,13
 613 410 613 410 584 367 c 128,-1,14
 555 324 555 324 490 286 c 1,15,-1
 660 0 l 1,16,-1
 432 0 l 1,17,-1
 303 248 l 1,0,-1
265 555 m 1,18,-1
 265 386 l 1,19,-1
 319 386 l 2,20,21
 361 386 361 386 382 408 c 128,-1,22
 403 430 403 430 403 475 c 0,23,24
 403 555 403 555 309 555 c 2,25,-1
 265 555 l 1,18,-1
EndSplineSet
Substitution2: "'c2sc' Capitals to Small Capitals lookup 26 subtable" uni024D.sc
Substitution2: "'aalt' Access All Alternates lookup 0 subtable" uni024D.sc
Position2: "'cpsp' Capital Spacing lookup 0 subtable" dx=5 dy=0 dh=10 dv=0
EndChar

StartChar: uni2C64
Encoding: 11364 11364 240
Width: 624
GlyphClass: 2
Flags: W
AnchorPoint: "Anchor-18" 0 0 basechar 0
AnchorPoint: "Anchor-17" 0 0 basechar 0
AnchorPoint: "Anchor-16" 302 696 basechar 0
AnchorPoint: "Anchor-15" 0 0 basechar 0
AnchorPoint: "Anchor-14" 312 0 basechar 0
LayerCount: 2
Fore
SplineSet
331.5 -77.5 m 128,-1,1
 345 -73 345 -73 367 -62 c 1,2,-1
 431 -182 l 1,3,4
 369 -227 369 -227 274 -227 c 0,5,6
 167 -227 167 -227 105 -173 c 128,-1,7
 43 -119 43 -119 43 -16 c 2,8,-1
 43 696 l 1,9,-1
 298 696 l 2,10,11
 449 696 449 696 523 642.5 c 128,-1,12
 597 589 597 589 597 475 c 0,13,14
 597 410 597 410 568 367 c 128,-1,15
 539 324 539 324 474 286 c 1,16,-1
 644 0 l 1,17,-1
 416 0 l 1,18,-1
 287 248 l 1,19,-1
 249 248 l 1,20,-1
 249 -29 l 2,21,22
 249 -55 249 -55 262 -68.5 c 128,-1,23
 275 -82 275 -82 299 -82 c 0,24,0
 318 -82 318 -82 331.5 -77.5 c 128,-1,1
249 555 m 1,25,-1
 249 386 l 1,26,-1
 303 386 l 2,27,28
 345 386 345 386 366 408 c 128,-1,29
 387 430 387 430 387 475 c 0,30,31
 387 555 387 555 293 555 c 2,32,-1
 249 555 l 1,25,-1
EndSplineSet
Substitution2: "'ss01' Style Set 1 lookup 33 subtable" uni2C64.ss01
Substitution2: "'salt' Stylistic Alternatives lookup 32 subtable" uni2C64.ss01
Substitution2: "'c2sc' Capitals to Small Capitals lookup 26 subtable" uni2C64.sc
AlternateSubs2: "'aalt' Access All Alternates lookup 1 subtable" uni2C64.sc uni2C64.ss01
Position2: "'cpsp' Capital Spacing lookup 0 subtable" dx=5 dy=0 dh=10 dv=0
EndChar

StartChar: uni2C64.ss01
Encoding: 65544 -1 241
Width: 452
GlyphClass: 2
Flags: W
AnchorPoint: "Anchor-18" 0 0 basechar 0
AnchorPoint: "Anchor-17" 0 0 basechar 0
AnchorPoint: "Anchor-16" 226 696 basechar 0
AnchorPoint: "Anchor-15" 0 0 basechar 0
AnchorPoint: "Anchor-14" 226 -215 basechar 0
LayerCount: 2
Fore
SplineSet
262 -68.5 m 128,-1,1
 275 -82 275 -82 299 -82 c 0,2,3
 318 -82 318 -82 331.5 -77.5 c 128,-1,4
 345 -73 345 -73 367 -62 c 1,5,-1
 431 -182 l 1,6,7
 369 -227 369 -227 274 -227 c 0,8,9
 167 -227 167 -227 105 -173 c 128,-1,10
 43 -119 43 -119 43 -16 c 2,11,-1
 43 696 l 1,12,-1
 224 696 l 1,13,-1
 240 596 l 1,14,15
 257 650 257 650 297.5 681.5 c 128,-1,16
 338 713 338 713 395 713 c 0,17,18
 433 713 433 713 462 704 c 1,19,-1
 431 508 l 1,20,21
 404 516 404 516 369 516 c 0,22,23
 318 516 318 516 290 485.5 c 128,-1,24
 262 455 262 455 249 399 c 1,25,-1
 249 -29 l 2,26,0
 249 -55 249 -55 262 -68.5 c 128,-1,1
EndSplineSet
Position2: "'cpsp' Capital Spacing lookup 0 subtable" dx=5 dy=0 dh=10 dv=0
EndChar

StartChar: S
Encoding: 83 83 242
Width: 588
GlyphClass: 2
Flags: W
AnchorPoint: "Anchor-18" 0 0 basechar 0
AnchorPoint: "Anchor-17" 0 0 basechar 0
AnchorPoint: "Anchor-16" 307 696 basechar 0
AnchorPoint: "Anchor-15" 0 0 basechar 0
AnchorPoint: "Anchor-14" 293 0 basechar 0
LayerCount: 2
Fore
SplineSet
556 621 m 1,1,-1
 465 514 l 1,2,3
 395 570 395 570 316 570 c 0,4,5
 279 570 279 570 260 557 c 128,-1,6
 241 544 241 544 241 520 c 0,7,8
 241 502 241 502 251.5 490.5 c 128,-1,9
 262 479 262 479 286.5 469 c 128,-1,10
 311 459 311 459 366 441 c 0,11,12
 476 406 476 406 524.5 353 c 128,-1,13
 573 300 573 300 573 208 c 0,14,15
 573 141 573 141 537.5 89.5 c 128,-1,16
 502 38 502 38 436 9 c 128,-1,17
 370 -20 370 -20 280 -20 c 0,18,19
 188 -20 188 -20 118 9 c 128,-1,20
 48 38 48 38 0 85 c 1,21,-1
 101 196 l 1,22,23
 180 128 180 128 272 128 c 0,24,25
 315 128 315 128 337 145.5 c 128,-1,26
 359 163 359 163 359 191 c 0,27,28
 359 212 359 212 349.5 226 c 128,-1,29
 340 240 340 240 316 252 c 128,-1,30
 292 264 292 264 246 278 c 0,31,32
 125 316 125 316 77 369.5 c 128,-1,33
 29 423 29 423 29 503 c 0,34,35
 29 568 29 568 64 616 c 128,-1,36
 99 664 99 664 160.5 690 c 128,-1,37
 222 716 222 716 299 716 c 0,38,0
 458 716 458 716 556 621 c 1,1,-1
EndSplineSet
Substitution2: "'c2sc' Capitals to Small Capitals lookup 26 subtable" s.sc
Substitution2: "'aalt' Access All Alternates lookup 0 subtable" s.sc
Position2: "'cpsp' Capital Spacing lookup 0 subtable" dx=5 dy=0 dh=10 dv=0
EndChar

StartChar: uniA78B
Encoding: 42891 42891 245
Width: 265
GlyphClass: 2
Flags: W
LayerCount: 2
Fore
SplineSet
62 326 m 1,0,-1
 40 696 l 1,1,-1
 225 696 l 1,2,-1
 203 326 l 1,3,-1
 62 326 l 1,0,-1
EndSplineSet
Position2: "'cpsp' Capital Spacing lookup 0 subtable" dx=5 dy=0 dh=10 dv=0
EndChar

StartChar: Scedilla
Encoding: 350 350 247
Width: 588
GlyphClass: 2
Flags: W
AnchorPoint: "Anchor-18" 0 0 basechar 0
AnchorPoint: "Anchor-17" 0 0 basechar 0
AnchorPoint: "Anchor-16" 307 696 basechar 0
AnchorPoint: "Anchor-15" 0 0 basechar 0
AnchorPoint: "Anchor-14" 310 -275 basechar 0
LayerCount: 2
Fore
SplineSet
512 58.5 m 128,-1,1
 451 -2 451 -2 342 -16 c 1,2,-1
 342 -43 l 1,3,4
 452 -57 452 -57 452 -151 c 0,5,6
 452 -205 452 -205 408 -240 c 128,-1,7
 364 -275 364 -275 288 -275 c 0,8,9
 251 -275 251 -275 218.5 -265.5 c 128,-1,10
 186 -256 186 -256 163 -241 c 1,11,-1
 206 -155 l 1,12,13
 239 -173 239 -173 270 -173 c 0,14,15
 315 -173 315 -173 315 -149 c 0,16,17
 315 -133 315 -133 293 -126.5 c 128,-1,18
 271 -120 271 -120 221 -120 c 1,19,-1
 234 -18 l 1,20,21
 94 -5 94 -5 0 85 c 1,22,-1
 101 196 l 1,23,24
 180 128 180 128 272 128 c 0,25,26
 315 128 315 128 337 145.5 c 128,-1,27
 359 163 359 163 359 191 c 0,28,29
 359 212 359 212 349.5 226 c 128,-1,30
 340 240 340 240 316 252 c 128,-1,31
 292 264 292 264 246 278 c 0,32,33
 125 316 125 316 77 369.5 c 128,-1,34
 29 423 29 423 29 503 c 0,35,36
 29 568 29 568 64 616 c 128,-1,37
 99 664 99 664 160.5 690 c 128,-1,38
 222 716 222 716 299 716 c 0,39,40
 458 716 458 716 556 621 c 1,41,-1
 465 514 l 1,42,43
 395 570 395 570 316 570 c 0,44,45
 279 570 279 570 260 557 c 128,-1,46
 241 544 241 544 241 520 c 0,47,48
 241 502 241 502 251.5 490.5 c 128,-1,49
 262 479 262 479 286.5 469 c 128,-1,50
 311 459 311 459 366 441 c 0,51,52
 476 406 476 406 524.5 353 c 128,-1,53
 573 300 573 300 573 208 c 0,54,0
 573 119 573 119 512 58.5 c 128,-1,1
EndSplineSet
Substitution2: "'c2sc' Capitals to Small Capitals lookup 26 subtable" scedilla.sc
Substitution2: "'locl' Localized Forms in Latin lookup 5 subtable" Scommaaccent
Substitution2: "'locl' Localized Forms in Latin lookup 4 subtable" Scommaaccent
AlternateSubs2: "'aalt' Access All Alternates lookup 1 subtable" Scommaaccent scedilla.sc
Position2: "'cpsp' Capital Spacing lookup 0 subtable" dx=5 dy=0 dh=10 dv=0
EndChar

StartChar: uni1E9E
Encoding: 7838 7838 252
Width: 677
GlyphClass: 2
Flags: W
LayerCount: 2
Fore
SplineSet
464.5 698.5 m 128,-1,1
 532 681 532 681 616 645 c 1,2,-1
 616 562 l 1,3,-1
 483 396 l 1,4,5
 565 379 565 379 613.5 333.5 c 128,-1,6
 662 288 662 288 662 198 c 0,7,8
 662 127 662 127 627.5 77.5 c 128,-1,9
 593 28 593 28 536 4 c 128,-1,10
 479 -20 479 -20 412 -20 c 0,11,12
 331 -20 331 -20 273 9 c 1,13,-1
 331 141 l 1,14,15
 354 131 354 131 383 131 c 0,16,17
 409 131 409 131 428.5 148 c 128,-1,18
 448 165 448 165 448 202 c 0,19,20
 448 247 448 247 416.5 272.5 c 128,-1,21
 385 298 385 298 310 308 c 1,22,-1
 310 401 l 1,23,-1
 425 554 l 1,24,25
 374 570 374 570 320 570 c 0,26,27
 282 570 282 570 265.5 551 c 128,-1,28
 249 532 249 532 249 489 c 2,29,-1
 249 0 l 1,30,-1
 43 0 l 1,31,-1
 43 482 l 2,32,33
 43 592 43 592 110 654 c 128,-1,34
 177 716 177 716 305 716 c 0,35,0
 397 716 397 716 464.5 698.5 c 128,-1,1
EndSplineSet
Substitution2: "'c2sc' Capitals to Small Capitals lookup 26 subtable" germandbls.sc
Substitution2: "'aalt' Access All Alternates lookup 0 subtable" germandbls.sc
Position2: "'cpsp' Capital Spacing lookup 0 subtable" dx=5 dy=0 dh=10 dv=0
EndChar

StartChar: T
Encoding: 84 84 254
Width: 554
GlyphClass: 2
Flags: W
AnchorPoint: "Anchor-18" 277 348 basechar 0
AnchorPoint: "Anchor-17" 0 0 basechar 0
AnchorPoint: "Anchor-16" 277 696 basechar 0
AnchorPoint: "Anchor-15" 0 0 basechar 0
AnchorPoint: "Anchor-14" 277 0 basechar 0
LayerCount: 2
Fore
SplineSet
559 696 m 1,0,-1
 538 542 l 1,1,-1
 380 542 l 1,2,-1
 380 0 l 1,3,-1
 174 0 l 1,4,-1
 174 542 l 1,5,-1
 5 542 l 1,6,-1
 5 696 l 1,7,-1
 559 696 l 1,0,-1
EndSplineSet
Substitution2: "'c2sc' Capitals to Small Capitals lookup 26 subtable" t.sc
Substitution2: "'aalt' Access All Alternates lookup 0 subtable" t.sc
Position2: "'cpsp' Capital Spacing lookup 0 subtable" dx=5 dy=0 dh=10 dv=0
EndChar

StartChar: Tbar
Encoding: 358 358 255
Width: 554
GlyphClass: 2
Flags: W
AnchorPoint: "Anchor-18" 277 348 basechar 0
AnchorPoint: "Anchor-17" 0 0 basechar 0
AnchorPoint: "Anchor-16" 277 696 basechar 0
AnchorPoint: "Anchor-15" 0 0 basechar 0
AnchorPoint: "Anchor-14" 277 0 basechar 0
LayerCount: 2
Fore
SplineSet
538 542 m 1,0,-1
 380 542 l 1,1,-1
 380 391 l 1,2,-1
 489 391 l 1,3,-1
 489 285 l 1,4,-1
 380 285 l 1,5,-1
 380 0 l 1,6,-1
 174 0 l 1,7,-1
 174 285 l 1,8,-1
 64 285 l 1,9,-1
 64 391 l 1,10,-1
 174 391 l 1,11,-1
 174 542 l 1,12,-1
 5 542 l 1,13,-1
 5 696 l 1,14,-1
 559 696 l 1,15,-1
 538 542 l 1,0,-1
EndSplineSet
Substitution2: "'c2sc' Capitals to Small Capitals lookup 26 subtable" tbar.sc
Substitution2: "'aalt' Access All Alternates lookup 0 subtable" tbar.sc
Position2: "'cpsp' Capital Spacing lookup 0 subtable" dx=5 dy=0 dh=10 dv=0
EndChar

StartChar: uni0162
Encoding: 354 354 257
Width: 554
GlyphClass: 2
Flags: W
AnchorPoint: "Anchor-18" 277 348 basechar 0
AnchorPoint: "Anchor-17" 0 0 basechar 0
AnchorPoint: "Anchor-16" 277 696 basechar 0
AnchorPoint: "Anchor-15" 0 0 basechar 0
AnchorPoint: "Anchor-14" 277 0 basechar 0
LayerCount: 2
Fore
SplineSet
490 -151 m 0,1,2
 490 -205 490 -205 446 -240 c 128,-1,3
 402 -275 402 -275 326 -275 c 0,4,5
 290 -275 290 -275 257 -265 c 128,-1,6
 224 -255 224 -255 201 -241 c 1,7,-1
 244 -155 l 1,8,9
 277 -173 277 -173 306 -173 c 0,10,11
 330 -173 330 -173 341.5 -167.5 c 128,-1,12
 353 -162 353 -162 353 -148 c 0,13,14
 353 -133 353 -133 331 -126.5 c 128,-1,15
 309 -120 309 -120 259 -120 c 1,16,-1
 274 0 l 1,17,-1
 174 0 l 1,18,-1
 174 542 l 1,19,-1
 5 542 l 1,20,-1
 5 696 l 1,21,-1
 559 696 l 1,22,-1
 538 542 l 1,23,-1
 380 542 l 1,24,-1
 380 -43 l 1,25,0
 490 -57 490 -57 490 -151 c 0,1,2
EndSplineSet
Substitution2: "'c2sc' Capitals to Small Capitals lookup 26 subtable" uni0163.sc
Substitution2: "'locl' Localized Forms in Latin lookup 5 subtable" uni021A
Substitution2: "'locl' Localized Forms in Latin lookup 4 subtable" uni021A
AlternateSubs2: "'aalt' Access All Alternates lookup 1 subtable" uni021A uni0163.sc
Position2: "'cpsp' Capital Spacing lookup 0 subtable" dx=5 dy=0 dh=10 dv=0
EndChar

StartChar: uni023E
Encoding: 574 574 260
Width: 554
GlyphClass: 2
Flags: W
AnchorPoint: "Anchor-18" 0 0 basechar 0
AnchorPoint: "Anchor-17" 0 0 basechar 0
AnchorPoint: "Anchor-16" 277 696 basechar 0
AnchorPoint: "Anchor-15" 0 0 basechar 0
AnchorPoint: "Anchor-14" 277 0 basechar 0
LayerCount: 2
Fore
SplineSet
538 552 m 1,0,-1
 456 552 l 1,1,-1
 365 374 l 1,2,-1
 365 0 l 1,3,-1
 189 0 l 1,4,-1
 189 30 l 1,5,-1
 134 -77 l 1,6,-1
 81 -49 l 1,7,-1
 189 162 l 1,8,-1
 189 552 l 1,9,-1
 5 552 l 1,10,-1
 5 696 l 1,11,-1
 463 696 l 1,12,-1
 495 759 l 1,13,-1
 548 731 l 1,14,-1
 530 696 l 1,15,-1
 559 696 l 1,16,-1
 538 552 l 1,0,-1
365 505 m 1,17,-1
 389 552 l 1,18,-1
 365 552 l 1,19,-1
 365 505 l 1,17,-1
EndSplineSet
Substitution2: "'c2sc' Capitals to Small Capitals lookup 26 subtable" uni2C66.sc
Substitution2: "'aalt' Access All Alternates lookup 0 subtable" uni2C66.sc
Position2: "'cpsp' Capital Spacing lookup 0 subtable" dx=5 dy=0 dh=10 dv=0
EndChar

StartChar: uni01AC
Encoding: 428 428 263
Width: 619
GlyphClass: 2
Flags: W
AnchorPoint: "Anchor-18" 0 0 basechar 0
AnchorPoint: "Anchor-17" 0 0 basechar 0
AnchorPoint: "Anchor-16" 310 696 basechar 0
AnchorPoint: "Anchor-15" 0 0 basechar 0
AnchorPoint: "Anchor-14" 342 0 basechar 0
LayerCount: 2
Fore
SplineSet
603 542 m 1,0,-1
 445 542 l 1,1,-1
 445 0 l 1,2,-1
 239 0 l 1,3,-1
 239 542 l 1,4,-1
 195 542 l 2,5,6
 175 542 175 542 164.5 532.5 c 128,-1,7
 154 523 154 523 154 506 c 0,8,9
 154 493 154 493 157 482.5 c 128,-1,10
 160 472 160 472 167 455 c 1,11,-1
 37 403 l 1,12,13
 0 468 0 468 0 530 c 0,14,15
 0 608 0 608 58 652 c 128,-1,16
 116 696 116 696 215 696 c 2,17,-1
 624 696 l 1,18,-1
 603 542 l 1,0,-1
EndSplineSet
Substitution2: "'c2sc' Capitals to Small Capitals lookup 26 subtable" uni01AD.sc
Substitution2: "'aalt' Access All Alternates lookup 0 subtable" uni01AD.sc
Position2: "'cpsp' Capital Spacing lookup 0 subtable" dx=5 dy=0 dh=10 dv=0
EndChar

StartChar: uni0184
Encoding: 388 388 266
Width: 641
GlyphClass: 2
Flags: W
AnchorPoint: "Anchor-18" 0 0 basechar 0
AnchorPoint: "Anchor-17" 0 0 basechar 0
AnchorPoint: "Anchor-16" 321 696 basechar 0
AnchorPoint: "Anchor-15" 0 0 basechar 0
AnchorPoint: "Anchor-14" 321 0 basechar 0
LayerCount: 2
Fore
SplineSet
558 412 m 128,-1,1
 631 355 631 355 631 242 c 0,2,3
 631 124 631 124 555.5 62 c 128,-1,4
 480 0 480 0 356 0 c 2,5,-1
 78 0 l 1,6,-1
 78 472 l 1,7,-1
 0 528 l 1,8,9
 66 596 66 596 114 696 c 1,10,-1
 284 696 l 1,11,-1
 284 469 l 1,12,-1
 348 469 l 2,13,0
 485 469 485 469 558 412 c 128,-1,1
395.5 169.5 m 128,-1,15
 417 194 417 194 417 240 c 0,16,17
 417 331 417 331 325 331 c 2,18,-1
 284 331 l 1,19,-1
 284 145 l 1,20,-1
 329 145 l 2,21,14
 374 145 374 145 395.5 169.5 c 128,-1,15
EndSplineSet
Substitution2: "'c2sc' Capitals to Small Capitals lookup 26 subtable" uni0185.sc
Substitution2: "'aalt' Access All Alternates lookup 0 subtable" uni0185.sc
Position2: "'cpsp' Capital Spacing lookup 0 subtable" dx=5 dy=0 dh=10 dv=0
EndChar

StartChar: uni01A7
Encoding: 423 423 267
Width: 578
GlyphClass: 2
Flags: W
AnchorPoint: "Anchor-18" 0 0 basechar 0
AnchorPoint: "Anchor-17" 0 0 basechar 0
AnchorPoint: "Anchor-16" 289 696 basechar 0
AnchorPoint: "Anchor-15" 0 0 basechar 0
AnchorPoint: "Anchor-14" 289 0 basechar 0
LayerCount: 2
Fore
SplineSet
438 690 m 128,-1,1
 498 664 498 664 531 616 c 128,-1,2
 564 568 564 568 564 505 c 0,3,4
 564 427 564 427 513 375.5 c 128,-1,5
 462 324 462 324 342 287 c 0,6,7
 277 267 277 267 253 245.5 c 128,-1,8
 229 224 229 224 229 193 c 0,9,10
 229 131 229 131 310 131 c 0,11,12
 396 131 396 131 477 196 c 1,13,-1
 578 85 l 1,14,15
 527 39 527 39 455.5 9.5 c 128,-1,16
 384 -20 384 -20 293 -20 c 0,17,18
 209 -20 209 -20 146 9 c 128,-1,19
 83 38 83 38 49 89.5 c 128,-1,20
 15 141 15 141 15 208 c 0,21,22
 15 295 15 295 63.5 346 c 128,-1,23
 112 397 112 397 222 432 c 0,24,25
 297 456 297 456 324.5 474.5 c 128,-1,26
 352 493 352 493 352 520 c 0,27,28
 352 543 352 543 333.5 556.5 c 128,-1,29
 315 570 315 570 282 570 c 0,30,31
 238 570 238 570 200.5 556 c 128,-1,32
 163 542 163 542 128 514 c 1,33,-1
 37 621 l 1,34,35
 143 716 143 716 299 716 c 0,36,0
 378 716 378 716 438 690 c 128,-1,1
EndSplineSet
Substitution2: "'c2sc' Capitals to Small Capitals lookup 26 subtable" uni01A8.sc
Substitution2: "'aalt' Access All Alternates lookup 0 subtable" uni01A8.sc
Position2: "'cpsp' Capital Spacing lookup 0 subtable" dx=5 dy=0 dh=10 dv=0
EndChar

StartChar: uni01AE
Encoding: 430 430 268
Width: 557
GlyphClass: 2
Flags: W
AnchorPoint: "Anchor-18" 277 348 basechar 0
AnchorPoint: "Anchor-17" 0 0 basechar 0
AnchorPoint: "Anchor-16" 277 696 basechar 0
AnchorPoint: "Anchor-15" 0 0 basechar 0
AnchorPoint: "Anchor-14" 277 0 basechar 0
LayerCount: 2
Fore
SplineSet
562 -182 m 1,0,1
 500 -227 500 -227 405 -227 c 0,2,3
 298 -227 298 -227 236 -173 c 128,-1,4
 174 -119 174 -119 174 -16 c 2,5,-1
 174 542 l 1,6,-1
 5 542 l 1,7,-1
 5 696 l 1,8,-1
 559 696 l 1,9,-1
 538 542 l 1,10,-1
 380 542 l 1,11,-1
 380 -29 l 2,12,13
 380 -55 380 -55 393 -68.5 c 128,-1,14
 406 -82 406 -82 430 -82 c 0,15,16
 449 -82 449 -82 462.5 -77.5 c 128,-1,17
 476 -73 476 -73 498 -62 c 1,18,-1
 562 -182 l 1,0,1
EndSplineSet
Substitution2: "'c2sc' Capitals to Small Capitals lookup 26 subtable" uni0288.sc
Substitution2: "'aalt' Access All Alternates lookup 0 subtable" uni0288.sc
Position2: "'cpsp' Capital Spacing lookup 0 subtable" dx=5 dy=0 dh=10 dv=0
EndChar

StartChar: U
Encoding: 85 85 269
Width: 644
GlyphClass: 2
Flags: W
AnchorPoint: "Anchor-18" 0 0 basechar 0
AnchorPoint: "Anchor-17" 621 696 basechar 0
AnchorPoint: "Anchor-16" 322 696 basechar 0
AnchorPoint: "Anchor-15" 460 0 basechar 0
AnchorPoint: "Anchor-14" 322 0 basechar 0
LayerCount: 2
Fore
SplineSet
611 236 m 2,0,1
 611 163 611 163 579 105 c 128,-1,2
 547 47 547 47 482 13.5 c 128,-1,3
 417 -20 417 -20 322 -20 c 0,4,5
 179 -20 179 -20 106 49 c 128,-1,6
 33 118 33 118 33 236 c 2,7,-1
 33 696 l 1,8,-1
 239 696 l 1,9,-1
 239 242 l 2,10,11
 239 183 239 183 258.5 155.5 c 128,-1,12
 278 128 278 128 322 128 c 256,13,14
 366 128 366 128 385.5 155.5 c 128,-1,15
 405 183 405 183 405 242 c 2,16,-1
 405 696 l 1,17,-1
 611 696 l 1,18,-1
 611 236 l 2,0,1
EndSplineSet
Substitution2: "'c2sc' Capitals to Small Capitals lookup 26 subtable" u.sc
Substitution2: "'aalt' Access All Alternates lookup 0 subtable" u.sc
Position2: "'cpsp' Capital Spacing lookup 0 subtable" dx=5 dy=0 dh=10 dv=0
EndChar

StartChar: uni0244
Encoding: 580 580 271
Width: 676
GlyphClass: 2
Flags: W
AnchorPoint: "Anchor-18" 0 0 basechar 0
AnchorPoint: "Anchor-17" 637 696 basechar 0
AnchorPoint: "Anchor-16" 338 696 basechar 0
AnchorPoint: "Anchor-15" 476 0 basechar 0
AnchorPoint: "Anchor-14" 338 0 basechar 0
LayerCount: 2
Fore
SplineSet
676 495 m 1,0,-1
 627 495 l 1,1,-1
 627 236 l 2,2,3
 627 163 627 163 595 105 c 128,-1,4
 563 47 563 47 498 13.5 c 128,-1,5
 433 -20 433 -20 338 -20 c 0,6,7
 195 -20 195 -20 122 49 c 128,-1,8
 49 118 49 118 49 236 c 2,9,-1
 49 495 l 1,10,-1
 0 495 l 1,11,-1
 0 601 l 1,12,-1
 49 601 l 1,13,-1
 49 696 l 1,14,-1
 255 696 l 1,15,-1
 255 601 l 1,16,-1
 421 601 l 1,17,-1
 421 696 l 1,18,-1
 627 696 l 1,19,-1
 627 601 l 1,20,-1
 676 601 l 1,21,-1
 676 495 l 1,0,-1
421 495 m 1,22,-1
 255 495 l 1,23,-1
 255 242 l 2,24,25
 255 183 255 183 274.5 155.5 c 128,-1,26
 294 128 294 128 338 128 c 256,27,28
 382 128 382 128 401.5 155.5 c 128,-1,29
 421 183 421 183 421 242 c 2,30,-1
 421 495 l 1,22,-1
EndSplineSet
Substitution2: "'c2sc' Capitals to Small Capitals lookup 26 subtable" uni0289.sc
Substitution2: "'aalt' Access All Alternates lookup 0 subtable" uni0289.sc
Position2: "'cpsp' Capital Spacing lookup 0 subtable" dx=5 dy=0 dh=10 dv=0
EndChar

StartChar: Uhorn
Encoding: 431 431 284
Width: 755
GlyphClass: 2
Flags: W
AnchorPoint: "Anchor-18" 0 0 basechar 0
AnchorPoint: "Anchor-17" 673 696 basechar 0
AnchorPoint: "Anchor-16" 322 696 basechar 0
AnchorPoint: "Anchor-15" 460 0 basechar 0
AnchorPoint: "Anchor-14" 322 0 basechar 0
LayerCount: 2
Fore
SplineSet
775 681 m 0,1,2
 775 613 775 613 731.5 578 c 128,-1,3
 688 543 688 543 611 543 c 1,4,-1
 611 236 l 2,5,6
 611 163 611 163 579 105 c 128,-1,7
 547 47 547 47 482 13.5 c 128,-1,8
 417 -20 417 -20 322 -20 c 0,9,10
 179 -20 179 -20 106 49 c 128,-1,11
 33 118 33 118 33 236 c 2,12,-1
 33 696 l 1,13,-1
 239 696 l 1,14,-1
 239 242 l 2,15,16
 239 183 239 183 258.5 155.5 c 128,-1,17
 278 128 278 128 322 128 c 256,18,19
 366 128 366 128 385.5 155.5 c 128,-1,20
 405 183 405 183 405 242 c 2,21,-1
 405 696 l 1,22,-1
 611 696 l 1,23,-1
 611 634 l 1,24,25
 631 638 631 638 639.5 652 c 128,-1,26
 648 666 648 666 648 693 c 0,27,28
 648 724 648 724 636 758 c 1,29,-1
 756 773 l 1,30,0
 775 733 775 733 775 681 c 0,1,2
EndSplineSet
Substitution2: "'c2sc' Capitals to Small Capitals lookup 26 subtable" uhorn.sc
Substitution2: "'aalt' Access All Alternates lookup 0 subtable" uhorn.sc
Position2: "'cpsp' Capital Spacing lookup 0 subtable" dx=5 dy=0 dh=10 dv=0
EndChar

StartChar: uni1EE8
Encoding: 7912 7912 285
Width: 755
GlyphClass: 2
Flags: W
AnchorPoint: "Anchor-18" 0 0 basechar 0
AnchorPoint: "Anchor-17" 673 696 basechar 0
AnchorPoint: "Anchor-16" 324 984 basechar 0
AnchorPoint: "Anchor-15" 460 0 basechar 0
AnchorPoint: "Anchor-14" 322 0 basechar 0
LayerCount: 2
Fore
SplineSet
474 840 m 1,0,-1
 220 749 l 1,1,-1
 170 848 l 1,2,-1
 404 984 l 1,3,-1
 474 840 l 1,0,-1
775 681 m 0,5,6
 775 613 775 613 731.5 578 c 128,-1,7
 688 543 688 543 611 543 c 1,8,-1
 611 236 l 2,9,10
 611 163 611 163 579 105 c 128,-1,11
 547 47 547 47 482 13.5 c 128,-1,12
 417 -20 417 -20 322 -20 c 0,13,14
 179 -20 179 -20 106 49 c 128,-1,15
 33 118 33 118 33 236 c 2,16,-1
 33 696 l 1,17,-1
 239 696 l 1,18,-1
 239 242 l 2,19,20
 239 183 239 183 258.5 155.5 c 128,-1,21
 278 128 278 128 322 128 c 256,22,23
 366 128 366 128 385.5 155.5 c 128,-1,24
 405 183 405 183 405 242 c 2,25,-1
 405 696 l 1,26,-1
 611 696 l 1,27,-1
 611 634 l 1,28,29
 631 638 631 638 639.5 652 c 128,-1,30
 648 666 648 666 648 693 c 0,31,32
 648 724 648 724 636 758 c 1,33,-1
 756 773 l 1,34,4
 775 733 775 733 775 681 c 0,5,6
EndSplineSet
Substitution2: "'c2sc' Capitals to Small Capitals lookup 26 subtable" uni1EE9.sc
Substitution2: "'aalt' Access All Alternates lookup 0 subtable" uni1EE9.sc
Position2: "'cpsp' Capital Spacing lookup 0 subtable" dx=5 dy=0 dh=10 dv=0
EndChar

StartChar: uni1EF0
Encoding: 7920 7920 286
Width: 755
GlyphClass: 2
Flags: W
AnchorPoint: "Anchor-18" 0 0 basechar 0
AnchorPoint: "Anchor-17" 673 696 basechar 0
AnchorPoint: "Anchor-16" 322 696 basechar 0
AnchorPoint: "Anchor-15" 460 0 basechar 0
AnchorPoint: "Anchor-14" 324 -215 basechar 0
LayerCount: 2
Fore
SplineSet
775 681 m 0,1,2
 775 613 775 613 731.5 578 c 128,-1,3
 688 543 688 543 611 543 c 1,4,-1
 611 236 l 2,5,6
 611 163 611 163 579 105 c 128,-1,7
 547 47 547 47 482 13.5 c 128,-1,8
 417 -20 417 -20 322 -20 c 0,9,10
 179 -20 179 -20 106 49 c 128,-1,11
 33 118 33 118 33 236 c 2,12,-1
 33 696 l 1,13,-1
 239 696 l 1,14,-1
 239 242 l 2,15,16
 239 183 239 183 258.5 155.5 c 128,-1,17
 278 128 278 128 322 128 c 256,18,19
 366 128 366 128 385.5 155.5 c 128,-1,20
 405 183 405 183 405 242 c 2,21,-1
 405 696 l 1,22,-1
 611 696 l 1,23,-1
 611 634 l 1,24,25
 631 638 631 638 639.5 652 c 128,-1,26
 648 666 648 666 648 693 c 0,27,28
 648 724 648 724 636 758 c 1,29,-1
 756 773 l 1,30,0
 775 733 775 733 775 681 c 0,1,2
401.5 -82.5 m 128,-1,32
 433 -113 433 -113 433 -158 c 256,33,34
 433 -203 433 -203 401.5 -233.5 c 128,-1,35
 370 -264 370 -264 322 -264 c 256,36,37
 274 -264 274 -264 242.5 -233.5 c 128,-1,38
 211 -203 211 -203 211 -158 c 256,39,40
 211 -113 211 -113 242.5 -82.5 c 128,-1,41
 274 -52 274 -52 322 -52 c 256,42,31
 370 -52 370 -52 401.5 -82.5 c 128,-1,32
EndSplineSet
Substitution2: "'c2sc' Capitals to Small Capitals lookup 26 subtable" uni1EF1.sc
Substitution2: "'aalt' Access All Alternates lookup 0 subtable" uni1EF1.sc
Position2: "'cpsp' Capital Spacing lookup 0 subtable" dx=5 dy=0 dh=10 dv=0
EndChar

StartChar: uni1EEA
Encoding: 7914 7914 287
Width: 755
GlyphClass: 2
Flags: W
AnchorPoint: "Anchor-18" 0 0 basechar 0
AnchorPoint: "Anchor-17" 673 696 basechar 0
AnchorPoint: "Anchor-16" 324 984 basechar 0
AnchorPoint: "Anchor-15" 460 0 basechar 0
AnchorPoint: "Anchor-14" 322 0 basechar 0
LayerCount: 2
Fore
SplineSet
474 848 m 1,0,-1
 424 749 l 1,1,-1
 170 840 l 1,2,-1
 241 984 l 1,3,-1
 474 848 l 1,0,-1
775 681 m 0,5,6
 775 613 775 613 731.5 578 c 128,-1,7
 688 543 688 543 611 543 c 1,8,-1
 611 236 l 2,9,10
 611 163 611 163 579 105 c 128,-1,11
 547 47 547 47 482 13.5 c 128,-1,12
 417 -20 417 -20 322 -20 c 0,13,14
 179 -20 179 -20 106 49 c 128,-1,15
 33 118 33 118 33 236 c 2,16,-1
 33 696 l 1,17,-1
 239 696 l 1,18,-1
 239 242 l 2,19,20
 239 183 239 183 258.5 155.5 c 128,-1,21
 278 128 278 128 322 128 c 256,22,23
 366 128 366 128 385.5 155.5 c 128,-1,24
 405 183 405 183 405 242 c 2,25,-1
 405 696 l 1,26,-1
 611 696 l 1,27,-1
 611 634 l 1,28,29
 631 638 631 638 639.5 652 c 128,-1,30
 648 666 648 666 648 693 c 0,31,32
 648 724 648 724 636 758 c 1,33,-1
 756 773 l 1,34,4
 775 733 775 733 775 681 c 0,5,6
EndSplineSet
Substitution2: "'c2sc' Capitals to Small Capitals lookup 26 subtable" uni1EEB.sc
Substitution2: "'aalt' Access All Alternates lookup 0 subtable" uni1EEB.sc
Position2: "'cpsp' Capital Spacing lookup 0 subtable" dx=5 dy=0 dh=10 dv=0
EndChar

StartChar: uni1EEC
Encoding: 7916 7916 288
Width: 755
GlyphClass: 2
Flags: W
AnchorPoint: "Anchor-18" 0 0 basechar 0
AnchorPoint: "Anchor-17" 673 696 basechar 0
AnchorPoint: "Anchor-16" 328 1009 basechar 0
AnchorPoint: "Anchor-15" 460 0 basechar 0
AnchorPoint: "Anchor-14" 322 0 basechar 0
LayerCount: 2
Fore
SplineSet
270.5 917 m 128,-1,1
 257 914 257 914 239 907 c 1,2,-1
 210 981 l 1,3,4
 257 1009 257 1009 328 1009 c 0,5,6
 392 1009 392 1009 427 979 c 128,-1,7
 462 949 462 949 462 901 c 0,8,9
 462 861 462 861 440 836 c 128,-1,10
 418 811 418 811 376 803 c 1,11,-1
 376 764 l 1,12,-1
 267 764 l 1,13,-1
 267 857 l 1,14,15
 305 858 305 858 321.5 866 c 128,-1,16
 338 874 338 874 338 892 c 0,17,18
 338 905 338 905 328 912.5 c 128,-1,19
 318 920 318 920 301 920 c 256,20,0
 284 920 284 920 270.5 917 c 128,-1,1
775 681 m 0,22,23
 775 613 775 613 731.5 578 c 128,-1,24
 688 543 688 543 611 543 c 1,25,-1
 611 236 l 2,26,27
 611 163 611 163 579 105 c 128,-1,28
 547 47 547 47 482 13.5 c 128,-1,29
 417 -20 417 -20 322 -20 c 0,30,31
 179 -20 179 -20 106 49 c 128,-1,32
 33 118 33 118 33 236 c 2,33,-1
 33 696 l 1,34,-1
 239 696 l 1,35,-1
 239 242 l 2,36,37
 239 183 239 183 258.5 155.5 c 128,-1,38
 278 128 278 128 322 128 c 256,39,40
 366 128 366 128 385.5 155.5 c 128,-1,41
 405 183 405 183 405 242 c 2,42,-1
 405 696 l 1,43,-1
 611 696 l 1,44,-1
 611 634 l 1,45,46
 631 638 631 638 639.5 652 c 128,-1,47
 648 666 648 666 648 693 c 0,48,49
 648 724 648 724 636 758 c 1,50,-1
 756 773 l 1,51,21
 775 733 775 733 775 681 c 0,22,23
EndSplineSet
Substitution2: "'c2sc' Capitals to Small Capitals lookup 26 subtable" uni1EED.sc
Substitution2: "'aalt' Access All Alternates lookup 0 subtable" uni1EED.sc
Position2: "'cpsp' Capital Spacing lookup 0 subtable" dx=5 dy=0 dh=10 dv=0
EndChar

StartChar: uni1EEE
Encoding: 7918 7918 289
Width: 755
GlyphClass: 2
Flags: W
AnchorPoint: "Anchor-18" 0 0 basechar 0
AnchorPoint: "Anchor-17" 673 696 basechar 0
AnchorPoint: "Anchor-16" 324 929 basechar 0
AnchorPoint: "Anchor-15" 460 0 basechar 0
AnchorPoint: "Anchor-14" 322 0 basechar 0
LayerCount: 2
Fore
SplineSet
238 781 m 128,-1,1
 227 771 227 771 214 748 c 1,2,-1
 121 793 l 1,3,4
 142 852 142 852 178.5 890.5 c 128,-1,5
 215 929 215 929 262 929 c 0,6,7
 287 929 287 929 304.5 922 c 128,-1,8
 322 915 322 915 341 902 c 0,9,10
 353 894 353 894 361 890 c 128,-1,11
 369 886 369 886 378 886 c 0,12,13
 395 886 395 886 406 896 c 128,-1,14
 417 906 417 906 430 929 c 1,15,-1
 523 884 l 1,16,17
 502 824 502 824 465 786 c 128,-1,18
 428 748 428 748 380 748 c 0,19,20
 356 748 356 748 339.5 755 c 128,-1,21
 323 762 323 762 304 775 c 0,22,23
 292 783 292 783 284 787 c 128,-1,24
 276 791 276 791 267 791 c 0,25,0
 249 791 249 791 238 781 c 128,-1,1
775 681 m 0,27,28
 775 613 775 613 731.5 578 c 128,-1,29
 688 543 688 543 611 543 c 1,30,-1
 611 236 l 2,31,32
 611 163 611 163 579 105 c 128,-1,33
 547 47 547 47 482 13.5 c 128,-1,34
 417 -20 417 -20 322 -20 c 0,35,36
 179 -20 179 -20 106 49 c 128,-1,37
 33 118 33 118 33 236 c 2,38,-1
 33 696 l 1,39,-1
 239 696 l 1,40,-1
 239 242 l 2,41,42
 239 183 239 183 258.5 155.5 c 128,-1,43
 278 128 278 128 322 128 c 256,44,45
 366 128 366 128 385.5 155.5 c 128,-1,46
 405 183 405 183 405 242 c 2,47,-1
 405 696 l 1,48,-1
 611 696 l 1,49,-1
 611 634 l 1,50,51
 631 638 631 638 639.5 652 c 128,-1,52
 648 666 648 666 648 693 c 0,53,54
 648 724 648 724 636 758 c 1,55,-1
 756 773 l 1,56,26
 775 733 775 733 775 681 c 0,27,28
EndSplineSet
Substitution2: "'c2sc' Capitals to Small Capitals lookup 26 subtable" uni1EEF.sc
Substitution2: "'aalt' Access All Alternates lookup 0 subtable" uni1EEF.sc
Position2: "'cpsp' Capital Spacing lookup 0 subtable" dx=5 dy=0 dh=10 dv=0
EndChar

StartChar: Uogonek
Encoding: 370 370 293
Width: 644
GlyphClass: 2
Flags: W
AnchorPoint: "Anchor-18" 0 0 basechar 0
AnchorPoint: "Anchor-17" 621 696 basechar 0
AnchorPoint: "Anchor-16" 322 696 basechar 0
AnchorPoint: "Anchor-15" 460 0 basechar 0
AnchorPoint: "Anchor-14" 322 0 basechar 0
LayerCount: 2
Fore
SplineSet
611 696 m 1,0,-1
 611 236 l 2,1,2
 611 154 611 154 570 91 c 128,-1,3
 529 28 529 28 450 0 c 0,4,5
 385 -22 385 -22 360 -47 c 128,-1,6
 335 -72 335 -72 335 -95 c 0,7,8
 335 -139 335 -139 386 -139 c 0,9,10
 412 -139 412 -139 447 -131 c 1,11,-1
 435 -246 l 1,12,13
 400 -254 400 -254 361 -254 c 0,14,15
 291 -254 291 -254 246 -220 c 128,-1,16
 201 -186 201 -186 201 -128 c 0,17,18
 201 -56 201 -56 276 -18 c 1,19,20
 156 -7 156 -7 94.5 60.5 c 128,-1,21
 33 128 33 128 33 236 c 2,22,-1
 33 696 l 1,23,-1
 239 696 l 1,24,-1
 239 242 l 2,25,26
 239 183 239 183 258.5 155.5 c 128,-1,27
 278 128 278 128 322 128 c 256,28,29
 366 128 366 128 385.5 155.5 c 128,-1,30
 405 183 405 183 405 242 c 2,31,-1
 405 696 l 1,32,-1
 611 696 l 1,0,-1
EndSplineSet
Substitution2: "'c2sc' Capitals to Small Capitals lookup 26 subtable" uogonek.sc
Substitution2: "'aalt' Access All Alternates lookup 0 subtable" uogonek.sc
Position2: "'cpsp' Capital Spacing lookup 0 subtable" dx=5 dy=0 dh=10 dv=0
EndChar

StartChar: uni01B1
Encoding: 433 433 294
Width: 690
GlyphClass: 2
Flags: W
AnchorPoint: "Anchor-18" 0 0 basechar 0
AnchorPoint: "Anchor-17" 0 0 basechar 0
AnchorPoint: "Anchor-16" 345 696 basechar 0
AnchorPoint: "Anchor-15" 0 0 basechar 0
AnchorPoint: "Anchor-14" 345 0 basechar 0
LayerCount: 2
Fore
SplineSet
170.5 22 m 128,-1,1
 97 64 97 64 58.5 136 c 128,-1,2
 20 208 20 208 20 294 c 0,3,4
 20 470 20 470 153 554 c 1,5,-1
 41 554 l 1,6,-1
 41 696 l 1,7,-1
 297 696 l 1,8,-1
 297 564 l 1,9,10
 264 514 264 514 249 456 c 128,-1,11
 234 398 234 398 234 294 c 0,12,13
 234 211 234 211 261 168.5 c 128,-1,14
 288 126 288 126 345 126 c 256,15,16
 402 126 402 126 429 168.5 c 128,-1,17
 456 211 456 211 456 294 c 0,18,19
 456 398 456 398 441 456 c 128,-1,20
 426 514 426 514 393 564 c 1,21,-1
 393 696 l 1,22,-1
 649 696 l 1,23,-1
 649 554 l 1,24,-1
 537 554 l 1,25,26
 670 471 670 471 670 294 c 0,27,28
 670 208 670 208 631.5 136 c 128,-1,29
 593 64 593 64 519.5 22 c 128,-1,30
 446 -20 446 -20 345 -20 c 256,31,0
 244 -20 244 -20 170.5 22 c 128,-1,1
EndSplineSet
Substitution2: "'c2sc' Capitals to Small Capitals lookup 26 subtable" uni01B1.sc
Substitution2: "'aalt' Access All Alternates lookup 0 subtable" uni01B1.sc
Position2: "'cpsp' Capital Spacing lookup 0 subtable" dx=5 dy=0 dh=10 dv=0
EndChar

StartChar: V
Encoding: 86 86 298
Width: 579
GlyphClass: 2
Flags: W
AnchorPoint: "Anchor-18" 0 0 basechar 0
AnchorPoint: "Anchor-17" 0 0 basechar 0
AnchorPoint: "Anchor-16" 290 696 basechar 0
AnchorPoint: "Anchor-15" 0 0 basechar 0
AnchorPoint: "Anchor-14" 290 0 basechar 0
LayerCount: 2
Fore
SplineSet
604 696 m 1,0,-1
 428 0 l 1,1,-1
 162 0 l 1,2,-1
 -25 696 l 1,3,-1
 192 696 l 1,4,-1
 298 143 l 1,5,-1
 393 696 l 1,6,-1
 604 696 l 1,0,-1
EndSplineSet
Substitution2: "'c2sc' Capitals to Small Capitals lookup 26 subtable" v.sc
Substitution2: "'aalt' Access All Alternates lookup 0 subtable" v.sc
Position2: "'cpsp' Capital Spacing lookup 0 subtable" dx=5 dy=0 dh=10 dv=0
EndChar

StartChar: uni01B2
Encoding: 434 434 299
Width: 644
GlyphClass: 2
Flags: W
AnchorPoint: "Anchor-18" 0 0 basechar 0
AnchorPoint: "Anchor-17" 0 0 basechar 0
AnchorPoint: "Anchor-16" 308 696 basechar 0
AnchorPoint: "Anchor-15" 0 0 basechar 0
AnchorPoint: "Anchor-14" 308 0 basechar 0
LayerCount: 2
Fore
SplineSet
611 526 m 2,1,-1
 611 286 l 2,2,3
 611 190 611 190 572.5 121 c 128,-1,4
 534 52 534 52 463.5 16 c 128,-1,5
 393 -20 393 -20 300 -20 c 0,6,7
 218 -20 218 -20 157.5 10 c 128,-1,8
 97 40 97 40 65 93.5 c 128,-1,9
 33 147 33 147 33 216 c 2,10,-1
 33 696 l 1,11,-1
 239 696 l 1,12,-1
 239 214 l 2,13,14
 239 174 239 174 256.5 151 c 128,-1,15
 274 128 274 128 307 128 c 0,16,17
 352 128 352 128 378.5 163.5 c 128,-1,18
 405 199 405 199 405 279 c 2,19,-1
 405 539 l 2,20,21
 405 571 405 571 379 571 c 0,22,23
 369 571 369 571 358 568 c 1,24,-1
 331 699 l 1,25,26
 377 716 377 716 438 716 c 0,27,0
 611 716 611 716 611 526 c 2,1,-1
EndSplineSet
Substitution2: "'c2sc' Capitals to Small Capitals lookup 26 subtable" uni028B.sc
Substitution2: "'aalt' Access All Alternates lookup 0 subtable" uni028B.sc
Position2: "'cpsp' Capital Spacing lookup 0 subtable" dx=5 dy=0 dh=10 dv=0
EndChar

StartChar: W
Encoding: 87 87 301
Width: 859
GlyphClass: 2
Flags: W
AnchorPoint: "Anchor-18" 0 0 basechar 0
AnchorPoint: "Anchor-17" 0 0 basechar 0
AnchorPoint: "Anchor-16" 432 696 basechar 0
AnchorPoint: "Anchor-15" 0 0 basechar 0
AnchorPoint: "Anchor-14" 430 0 basechar 0
LayerCount: 2
Fore
SplineSet
859 696 m 1,0,-1
 758 0 l 1,1,-1
 490 0 l 1,2,-1
 428 500 l 1,3,-1
 359 0 l 1,4,-1
 97 0 l 1,5,-1
 0 696 l 1,6,-1
 206 696 l 1,7,-1
 250 149 l 1,8,-1
 324 696 l 1,9,-1
 539 696 l 1,10,-1
 601 149 l 1,11,-1
 661 696 l 1,12,-1
 859 696 l 1,0,-1
EndSplineSet
Substitution2: "'c2sc' Capitals to Small Capitals lookup 26 subtable" w.sc
Substitution2: "'aalt' Access All Alternates lookup 0 subtable" w.sc
Position2: "'cpsp' Capital Spacing lookup 0 subtable" dx=5 dy=0 dh=10 dv=0
EndChar

StartChar: uni2C72
Encoding: 11378 11378 306
Width: 935
GlyphClass: 2
Flags: W
AnchorPoint: "Anchor-18" 0 0 basechar 0
AnchorPoint: "Anchor-17" 0 0 basechar 0
AnchorPoint: "Anchor-16" 432 696 basechar 0
AnchorPoint: "Anchor-15" 0 0 basechar 0
AnchorPoint: "Anchor-14" 425 0 basechar 0
LayerCount: 2
Fore
SplineSet
97 0 m 1,0,-1
 359 0 l 1,1,-1
 428 500 l 1,2,-1
 490 0 l 1,3,-1
 751 0 l 1,4,-1
 816 523 l 2,5,6
 819 550 819 550 830.5 562 c 128,-1,7
 842 574 842 574 864 574 c 0,8,9
 880 574 880 574 889.5 571.5 c 128,-1,10
 899 569 899 569 913 562 c 1,11,-1
 965 679 l 1,12,13
 936 697 936 697 905 706.5 c 128,-1,14
 874 716 874 716 830 716 c 0,15,16
 745 716 745 716 696 669.5 c 128,-1,17
 647 623 647 623 637 517 c 2,18,-1
 601 149 l 1,19,-1
 539 696 l 1,20,-1
 324 696 l 1,21,-1
 250 149 l 1,22,-1
 206 696 l 1,23,-1
 0 696 l 1,24,-1
 97 0 l 1,0,-1
EndSplineSet
Substitution2: "'c2sc' Capitals to Small Capitals lookup 26 subtable" uni2C73.sc
Substitution2: "'aalt' Access All Alternates lookup 0 subtable" uni2C73.sc
Position2: "'cpsp' Capital Spacing lookup 0 subtable" dx=5 dy=0 dh=10 dv=0
EndChar

StartChar: uni01F7
Encoding: 503 503 307
Width: 611
GlyphClass: 2
Flags: W
AnchorPoint: "Anchor-18" 0 0 basechar 0
AnchorPoint: "Anchor-17" 0 0 basechar 0
AnchorPoint: "Anchor-16" 306 696 basechar 0
AnchorPoint: "Anchor-15" 0 0 basechar 0
AnchorPoint: "Anchor-14" 306 0 basechar 0
LayerCount: 2
Fore
SplineSet
501.5 691.5 m 128,-1,1
 545 667 545 667 570.5 622.5 c 128,-1,2
 596 578 596 578 596 521 c 0,3,4
 596 439 596 439 560.5 384 c 128,-1,5
 525 329 525 329 466 294 c 128,-1,6
 407 259 407 259 317 227 c 2,7,-1
 249 203 l 1,8,-1
 249 0 l 1,9,-1
 43 0 l 1,10,-1
 43 696 l 1,11,-1
 249 696 l 1,12,-1
 249 658 l 1,13,14
 277 686 277 686 317.5 701 c 128,-1,15
 358 716 358 716 406 716 c 0,16,0
 458 716 458 716 501.5 691.5 c 128,-1,1
358.5 416.5 m 128,-1,18
 386 455 386 455 386 506 c 0,19,20
 386 538 386 538 369 555.5 c 128,-1,21
 352 573 352 573 324 573 c 0,22,23
 284 573 284 573 249 546 c 1,24,-1
 249 340 l 1,25,-1
 265 347 l 2,26,17
 331 378 331 378 358.5 416.5 c 128,-1,18
EndSplineSet
Substitution2: "'c2sc' Capitals to Small Capitals lookup 26 subtable" uni01BF.sc
Substitution2: "'aalt' Access All Alternates lookup 0 subtable" uni01BF.sc
Position2: "'cpsp' Capital Spacing lookup 0 subtable" dx=5 dy=0 dh=10 dv=0
EndChar

StartChar: X
Encoding: 88 88 308
Width: 606
GlyphClass: 2
Flags: W
AnchorPoint: "Anchor-18" 0 0 basechar 0
AnchorPoint: "Anchor-17" 0 0 basechar 0
AnchorPoint: "Anchor-16" 303 696 basechar 0
AnchorPoint: "Anchor-15" 0 0 basechar 0
AnchorPoint: "Anchor-14" 303 0 basechar 0
LayerCount: 2
Fore
SplineSet
422 375 m 1,0,-1
 616 0 l 1,1,-1
 394 0 l 1,2,-1
 298 239 l 1,3,-1
 208 0 l 1,4,-1
 -10 0 l 1,5,-1
 176 369 l 1,6,-1
 3 696 l 1,7,-1
 224 696 l 1,8,-1
 300 496 l 1,9,-1
 385 696 l 1,10,-1
 602 696 l 1,11,-1
 422 375 l 1,0,-1
EndSplineSet
Substitution2: "'c2sc' Capitals to Small Capitals lookup 26 subtable" x.sc
Substitution2: "'aalt' Access All Alternates lookup 0 subtable" x.sc
Position2: "'cpsp' Capital Spacing lookup 0 subtable" dx=5 dy=0 dh=10 dv=0
EndChar

StartChar: Y
Encoding: 89 89 309
Width: 620
GlyphClass: 2
Flags: W
AnchorPoint: "Anchor-18" 0 0 basechar 0
AnchorPoint: "Anchor-17" 0 0 basechar 0
AnchorPoint: "Anchor-16" 310 696 basechar 0
AnchorPoint: "Anchor-15" 0 0 basechar 0
AnchorPoint: "Anchor-14" 310 0 basechar 0
LayerCount: 2
Fore
SplineSet
635 696 m 1,0,-1
 413 257 l 1,1,-1
 413 0 l 1,2,-1
 207 0 l 1,3,-1
 207 256 l 1,4,-1
 -15 696 l 1,5,-1
 210 696 l 1,6,-1
 313 412 l 1,7,-1
 417 696 l 1,8,-1
 635 696 l 1,0,-1
EndSplineSet
Substitution2: "'c2sc' Capitals to Small Capitals lookup 26 subtable" y.sc
Substitution2: "'aalt' Access All Alternates lookup 0 subtable" y.sc
Position2: "'cpsp' Capital Spacing lookup 0 subtable" dx=5 dy=0 dh=10 dv=0
EndChar

StartChar: uni01B3
Encoding: 435 435 315
Width: 661
GlyphClass: 2
Flags: W
AnchorPoint: "Anchor-18" 0 0 basechar 0
AnchorPoint: "Anchor-17" 0 0 basechar 0
AnchorPoint: "Anchor-16" 320 696 basechar 0
AnchorPoint: "Anchor-15" 0 0 basechar 0
AnchorPoint: "Anchor-14" 310 0 basechar 0
LayerCount: 2
Fore
SplineSet
207 256 m 1,0,-1
 -15 696 l 1,1,-1
 210 696 l 1,2,-1
 313 412 l 1,3,-1
 359 553 l 2,4,5
 387 641 387 641 433.5 678.5 c 128,-1,6
 480 716 480 716 561 716 c 0,7,8
 632 716 632 716 691 681 c 1,9,-1
 640 562 l 1,10,11
 614 574 614 574 591 574 c 0,12,13
 569 574 569 574 555.5 563.5 c 128,-1,14
 542 553 542 553 531 527 c 2,15,-1
 413 257 l 1,16,-1
 413 0 l 1,17,-1
 207 0 l 1,18,-1
 207 256 l 1,0,-1
EndSplineSet
Substitution2: "'c2sc' Capitals to Small Capitals lookup 26 subtable" uni01B4.sc
Substitution2: "'aalt' Access All Alternates lookup 0 subtable" uni01B4.sc
Position2: "'cpsp' Capital Spacing lookup 0 subtable" dx=5 dy=0 dh=10 dv=0
EndChar

StartChar: uni01A6
Encoding: 422 422 318
Width: 624
GlyphClass: 2
Flags: W
AnchorPoint: "Anchor-18" 0 0 basechar 0
AnchorPoint: "Anchor-17" 0 0 basechar 0
AnchorPoint: "Anchor-16" 312 696 basechar 0
AnchorPoint: "Anchor-15" 0 0 basechar 0
AnchorPoint: "Anchor-14" 312 -215 basechar 0
LayerCount: 2
Fore
SplineSet
287 138 m 1,0,-1
 249 138 l 1,1,-1
 249 0 l 1,2,-1
 43 0 l 1,3,-1
 43 696 l 1,4,-1
 249 696 l 1,5,-1
 249 586 l 1,6,-1
 298 586 l 2,7,8
 449 586 449 586 523 532.5 c 128,-1,9
 597 479 597 479 597 365 c 0,10,11
 597 300 597 300 568 257 c 128,-1,12
 539 214 539 214 474 176 c 1,13,-1
 644 -110 l 1,14,-1
 416 -110 l 1,15,-1
 287 138 l 1,0,-1
249 276 m 1,16,-1
 303 276 l 2,17,18
 345 276 345 276 366 298 c 128,-1,19
 387 320 387 320 387 365 c 0,20,21
 387 445 387 445 293 445 c 2,22,-1
 249 445 l 1,23,-1
 249 276 l 1,16,-1
EndSplineSet
Substitution2: "'c2sc' Capitals to Small Capitals lookup 26 subtable" uni0280.sc
Substitution2: "'aalt' Access All Alternates lookup 0 subtable" uni0280.sc
Position2: "'cpsp' Capital Spacing lookup 0 subtable" dx=5 dy=0 dh=10 dv=0
EndChar

StartChar: uni024E
Encoding: 590 590 319
Width: 621
GlyphClass: 2
Flags: W
AnchorPoint: "Anchor-18" 0 0 basechar 0
AnchorPoint: "Anchor-17" 0 0 basechar 0
AnchorPoint: "Anchor-16" 311 696 basechar 0
AnchorPoint: "Anchor-15" 0 0 basechar 0
AnchorPoint: "Anchor-14" 311 0 basechar 0
LayerCount: 2
Fore
SplineSet
598 621 m 1,0,-1
 636 621 l 1,1,-1
 636 515 l 1,2,-1
 544 515 l 1,3,-1
 414 257 l 1,4,-1
 414 0 l 1,5,-1
 208 0 l 1,6,-1
 208 256 l 1,7,-1
 77 515 l 1,8,-1
 -15 515 l 1,9,-1
 -15 621 l 1,10,-1
 24 621 l 1,11,-1
 -14 696 l 1,12,-1
 201 696 l 1,13,-1
 229 621 l 1,14,-1
 400 621 l 1,15,-1
 428 696 l 1,16,-1
 636 696 l 1,17,-1
 598 621 l 1,0,-1
314 392 m 1,18,-1
 360 515 l 1,19,-1
 268 515 l 1,20,-1
 314 392 l 1,18,-1
EndSplineSet
Substitution2: "'c2sc' Capitals to Small Capitals lookup 26 subtable" uni024F.sc
Substitution2: "'aalt' Access All Alternates lookup 0 subtable" uni024F.sc
Position2: "'cpsp' Capital Spacing lookup 0 subtable" dx=5 dy=0 dh=10 dv=0
EndChar

StartChar: Z
Encoding: 90 90 321
Width: 557
GlyphClass: 2
Flags: W
AnchorPoint: "Anchor-18" 0 0 basechar 0
AnchorPoint: "Anchor-17" 0 0 basechar 0
AnchorPoint: "Anchor-16" 279 696 basechar 0
AnchorPoint: "Anchor-15" 0 0 basechar 0
AnchorPoint: "Anchor-14" 268 0 basechar 0
LayerCount: 2
Fore
SplineSet
533 696 m 1,0,-1
 533 543 l 1,1,-1
 256 161 l 1,2,-1
 542 161 l 1,3,-1
 522 0 l 1,4,-1
 10 0 l 1,5,-1
 10 151 l 1,6,-1
 296 540 l 1,7,-1
 38 540 l 1,8,-1
 38 696 l 1,9,-1
 533 696 l 1,0,-1
EndSplineSet
Substitution2: "'c2sc' Capitals to Small Capitals lookup 26 subtable" z.sc
Substitution2: "'aalt' Access All Alternates lookup 0 subtable" z.sc
Position2: "'cpsp' Capital Spacing lookup 0 subtable" dx=5 dy=0 dh=10 dv=0
EndChar

StartChar: uni0224
Encoding: 548 548 327
Width: 548
GlyphClass: 2
Flags: W
AnchorPoint: "Anchor-18" 0 0 basechar 0
AnchorPoint: "Anchor-17" 0 0 basechar 0
AnchorPoint: "Anchor-16" 274 696 basechar 0
AnchorPoint: "Anchor-15" 0 0 basechar 0
AnchorPoint: "Anchor-14" 274 -215 basechar 0
LayerCount: 2
Fore
SplineSet
533 543 m 1,0,-1
 256 161 l 1,1,-1
 533 161 l 1,2,-1
 533 -16 l 2,3,4
 533 -119 533 -119 471 -173 c 128,-1,5
 409 -227 409 -227 302 -227 c 0,6,7
 207 -227 207 -227 145 -182 c 1,8,-1
 209 -62 l 1,9,10
 231 -73 231 -73 245.5 -77.5 c 128,-1,11
 260 -82 260 -82 282 -82 c 0,12,13
 337 -82 337 -82 337 -29 c 2,14,-1
 337 0 l 1,15,-1
 10 0 l 1,16,-1
 10 151 l 1,17,-1
 296 540 l 1,18,-1
 38 540 l 1,19,-1
 38 696 l 1,20,-1
 533 696 l 1,21,-1
 533 543 l 1,0,-1
EndSplineSet
Substitution2: "'c2sc' Capitals to Small Capitals lookup 26 subtable" uni0225.sc
Substitution2: "'aalt' Access All Alternates lookup 0 subtable" uni0225.sc
Position2: "'cpsp' Capital Spacing lookup 0 subtable" dx=5 dy=0 dh=10 dv=0
EndChar

StartChar: uni01B5
Encoding: 437 437 328
Width: 557
GlyphClass: 2
Flags: W
AnchorPoint: "Anchor-18" 0 0 basechar 0
AnchorPoint: "Anchor-17" 0 0 basechar 0
AnchorPoint: "Anchor-16" 279 696 basechar 0
AnchorPoint: "Anchor-15" 0 0 basechar 0
AnchorPoint: "Anchor-14" 279 0 basechar 0
LayerCount: 2
Fore
SplineSet
236 161 m 1,0,-1
 542 161 l 1,1,-1
 522 0 l 1,2,-1
 10 0 l 1,3,-1
 10 141 l 1,4,-1
 122 287 l 1,5,-1
 46 287 l 1,6,-1
 46 407 l 1,7,-1
 214 407 l 1,8,-1
 316 540 l 1,9,-1
 38 540 l 1,10,-1
 38 696 l 1,11,-1
 533 696 l 1,12,-1
 533 553 l 1,13,-1
 422 407 l 1,14,-1
 488 407 l 1,15,-1
 488 287 l 1,16,-1
 331 287 l 1,17,-1
 236 161 l 1,0,-1
EndSplineSet
Substitution2: "'c2sc' Capitals to Small Capitals lookup 26 subtable" uni01B6.sc
Substitution2: "'aalt' Access All Alternates lookup 0 subtable" uni01B6.sc
Position2: "'cpsp' Capital Spacing lookup 0 subtable" dx=5 dy=0 dh=10 dv=0
EndChar

StartChar: uni0262
Encoding: 610 610 330
Width: 560
GlyphClass: 2
Flags: W
AnchorPoint: "Anchor-18" 0 0 basechar 0
AnchorPoint: "Anchor-17" 0 0 basechar 0
AnchorPoint: "Anchor-16" 307 534 basechar 0
AnchorPoint: "Anchor-15" 0 0 basechar 0
AnchorPoint: "Anchor-14" 288 0 basechar 0
LayerCount: 2
Fore
SplineSet
433.5 533.5 m 128,-1,1
 487 513 487 513 530 476 c 1,2,-1
 439 378 l 1,3,4
 409 399 409 399 381.5 409 c 128,-1,5
 354 419 354 419 322 419 c 0,6,7
 220 419 220 419 220 269 c 0,8,9
 220 183 220 183 239.5 150.5 c 128,-1,10
 259 118 259 118 300 118 c 0,11,12
 330 118 330 118 355 127 c 1,13,-1
 355 196 l 1,14,-1
 303 196 l 1,15,-1
 285 320 l 1,16,-1
 538 320 l 1,17,-1
 538 52 l 1,18,19
 488 21 488 21 426.5 1.5 c 128,-1,20
 365 -18 365 -18 297 -18 c 0,21,22
 154 -18 154 -18 85.5 53 c 128,-1,23
 17 124 17 124 17 270 c 0,24,25
 17 356 17 356 54 420.5 c 128,-1,26
 91 485 91 485 157.5 519.5 c 128,-1,27
 224 554 224 554 308 554 c 0,28,0
 380 554 380 554 433.5 533.5 c 128,-1,1
EndSplineSet
EndChar

StartChar: uni029B
Encoding: 667 667 331
Width: 560
GlyphClass: 2
Flags: W
AnchorPoint: "Anchor-18" 0 0 basechar 0
AnchorPoint: "Anchor-17" 0 0 basechar 0
AnchorPoint: "Anchor-16" 280 744 basechar 0
AnchorPoint: "Anchor-15" 0 0 basechar 0
AnchorPoint: "Anchor-14" 298 0 basechar 0
LayerCount: 2
Fore
SplineSet
689 727 m 1,1,-1
 638 605 l 1,2,3
 602 622 602 622 574 622 c 0,4,5
 551 622 551 622 540.5 609 c 128,-1,6
 530 596 530 596 530 568 c 2,7,-1
 530 476 l 1,8,-1
 449 388 l 1,9,10
 413 405 413 405 387 412 c 128,-1,11
 361 419 361 419 325 419 c 0,12,13
 220 419 220 419 220 269 c 0,14,15
 220 183 220 183 239.5 150.5 c 128,-1,16
 259 118 259 118 300 118 c 0,17,18
 330 118 330 118 355 127 c 1,19,-1
 355 196 l 1,20,-1
 303 196 l 1,21,-1
 285 320 l 1,22,-1
 538 320 l 1,23,-1
 538 52 l 1,24,25
 493 19 493 19 432 0.5 c 128,-1,26
 371 -18 371 -18 300 -18 c 0,27,28
 155 -18 155 -18 86 54 c 128,-1,29
 17 126 17 126 17 270 c 0,30,31
 17 355 17 355 53 419.5 c 128,-1,32
 89 484 89 484 150.5 519 c 128,-1,33
 212 554 212 554 285 554 c 0,34,35
 326 554 326 554 362 543 c 1,36,-1
 362 585 l 2,37,38
 362 670 362 670 406.5 717 c 128,-1,39
 451 764 451 764 543 764 c 0,40,0
 626 764 626 764 689 727 c 1,1,-1
EndSplineSet
EndChar

StartChar: uni026A
Encoding: 618 618 333
Width: 340
GlyphClass: 2
Flags: W
AnchorPoint: "Anchor-18" 0 0 basechar 0
AnchorPoint: "Anchor-17" 0 0 basechar 0
AnchorPoint: "Anchor-16" 170 534 basechar 0
AnchorPoint: "Anchor-15" 0 0 basechar 0
AnchorPoint: "Anchor-14" 170 0 basechar 0
LayerCount: 2
Fore
SplineSet
330 396 m 1,0,-1
 269 396 l 1,1,-1
 269 140 l 1,2,-1
 330 140 l 1,3,-1
 330 0 l 1,4,-1
 10 0 l 1,5,-1
 10 140 l 1,6,-1
 71 140 l 1,7,-1
 71 396 l 1,8,-1
 10 396 l 1,9,-1
 10 534 l 1,10,-1
 330 534 l 1,11,-1
 330 396 l 1,0,-1
EndSplineSet
EndChar

StartChar: uni029F
Encoding: 671 671 334
Width: 459
GlyphClass: 2
Flags: W
AnchorPoint: "Anchor-18" 0 0 basechar 0
AnchorPoint: "Anchor-17" 0 0 basechar 0
AnchorPoint: "Anchor-16" 141 534 basechar 0
AnchorPoint: "Anchor-15" 0 0 basechar 0
AnchorPoint: "Anchor-14" 230 0 basechar 0
LayerCount: 2
Fore
SplineSet
240 534 m 1,0,-1
 240 148 l 1,1,-1
 454 148 l 1,2,-1
 434 0 l 1,3,-1
 42 0 l 1,4,-1
 42 534 l 1,5,-1
 240 534 l 1,0,-1
EndSplineSet
EndChar

StartChar: uni0274
Encoding: 628 628 335
Width: 583
GlyphClass: 2
Flags: W
AnchorPoint: "Anchor-18" 0 0 basechar 0
AnchorPoint: "Anchor-17" 0 0 basechar 0
AnchorPoint: "Anchor-16" 292 534 basechar 0
AnchorPoint: "Anchor-15" 0 0 basechar 0
AnchorPoint: "Anchor-14" 292 0 basechar 0
LayerCount: 2
Fore
SplineSet
541 0 m 1,0,-1
 308 0 l 1,1,-1
 184 369 l 1,2,3
 199 298 199 298 207 241.5 c 128,-1,4
 215 185 215 185 215 115 c 2,5,-1
 215 0 l 1,6,-1
 42 0 l 1,7,-1
 42 534 l 1,8,-1
 272 534 l 1,9,-1
 399 166 l 1,10,-1
 393 197 l 2,11,12
 380 266 380 266 374 313 c 128,-1,13
 368 360 368 360 368 427 c 2,14,-1
 368 534 l 1,15,-1
 541 534 l 1,16,-1
 541 0 l 1,0,-1
EndSplineSet
EndChar

StartChar: uni0276
Encoding: 630 630 336
Width: 777
GlyphClass: 2
Flags: W
AnchorPoint: "Anchor-18" 0 0 basechar 0
AnchorPoint: "Anchor-17" 0 0 basechar 0
AnchorPoint: "Anchor-16" 419 534 basechar 0
AnchorPoint: "Anchor-15" 0 0 basechar 0
AnchorPoint: "Anchor-14" 419 0 basechar 0
LayerCount: 2
Fore
SplineSet
518 133 m 1,1,-1
 755 133 l 1,2,-1
 755 0 l 1,3,-1
 400 0 l 1,4,5
 349 -20 349 -20 292 -20 c 0,6,7
 164 -20 164 -20 90.5 55 c 128,-1,8
 17 130 17 130 17 268 c 0,9,10
 17 354 17 354 50.5 419 c 128,-1,11
 84 484 84 484 146 519 c 128,-1,12
 208 554 208 554 292 554 c 0,13,14
 342 554 342 554 402 534 c 1,15,-1
 762 534 l 1,16,-1
 742 402 l 1,17,-1
 519 402 l 1,18,19
 541 367 541 367 550 334 c 1,20,-1
 719 334 l 1,21,-1
 719 206 l 1,22,-1
 551 206 l 1,23,0
 541 168 541 168 518 133 c 1,1,-1
346 156 m 128,-1,25
 362 190 362 190 362 268 c 256,26,27
 362 346 362 346 345.5 379 c 128,-1,28
 329 412 329 412 292 412 c 0,29,30
 254 412 254 412 237 378 c 128,-1,31
 220 344 220 344 220 268 c 0,32,33
 220 189 220 189 237 155.5 c 128,-1,34
 254 122 254 122 292 122 c 256,35,24
 330 122 330 122 346 156 c 128,-1,25
EndSplineSet
EndChar

StartChar: uni0280
Encoding: 640 640 337
Width: 532
GlyphClass: 2
Flags: W
AnchorPoint: "Anchor-18" 0 0 basechar 0
AnchorPoint: "Anchor-17" 0 0 basechar 0
AnchorPoint: "Anchor-16" 274 534 basechar 0
AnchorPoint: "Anchor-15" 0 0 basechar 0
AnchorPoint: "Anchor-14" 274 0 basechar 0
LayerCount: 2
Fore
SplineSet
255 172 m 1,0,-1
 230 172 l 1,1,-1
 230 0 l 1,2,-1
 42 0 l 1,3,-1
 42 534 l 1,4,-1
 262 534 l 2,5,6
 504 534 504 534 504 350 c 0,7,8
 504 300 504 300 484.5 261.5 c 128,-1,9
 465 223 465 223 425 200 c 1,10,-1
 547 0 l 1,11,-1
 343 0 l 1,12,-1
 255 172 l 1,0,-1
230 283 m 1,13,-1
 255 283 l 2,14,15
 287 283 287 283 301 297.5 c 128,-1,16
 315 312 315 312 315 351 c 0,17,18
 315 388 315 388 301.5 401 c 128,-1,19
 288 414 288 414 257 414 c 2,20,-1
 230 414 l 1,21,-1
 230 283 l 1,13,-1
EndSplineSet
Substitution2: "'smcp' Lowercase to Small Capitals lookup 27 subtable" uni0280.sc
Substitution2: "'aalt' Access All Alternates lookup 0 subtable" uni0280.sc
EndChar

StartChar: uni0281
Encoding: 641 641 338
Width: 532
GlyphClass: 2
Flags: W
AnchorPoint: "Anchor-18" 0 0 basechar 0
AnchorPoint: "Anchor-17" 0 0 basechar 0
AnchorPoint: "Anchor-16" 274 534 basechar 0
AnchorPoint: "Anchor-15" 0 0 basechar 0
AnchorPoint: "Anchor-14" 274 0 basechar 0
LayerCount: 2
Fore
SplineSet
484.5 273 m 128,-1,1
 504 235 504 235 504 187 c 0,2,3
 504 0 504 0 262 0 c 2,4,-1
 42 0 l 1,5,-1
 42 534 l 1,6,-1
 230 534 l 1,7,-1
 230 362 l 1,8,-1
 255 362 l 1,9,-1
 343 534 l 1,10,-1
 547 534 l 1,11,-1
 425 334 l 1,12,0
 465 311 465 311 484.5 273 c 128,-1,1
301.5 133.5 m 128,-1,14
 315 147 315 147 315 186 c 0,15,16
 315 222 315 222 301 236.5 c 128,-1,17
 287 251 287 251 255 251 c 2,18,-1
 230 251 l 1,19,-1
 230 120 l 1,20,-1
 257 120 l 2,21,13
 288 120 288 120 301.5 133.5 c 128,-1,14
EndSplineSet
EndChar

StartChar: uni028F
Encoding: 655 655 339
Width: 522
GlyphClass: 2
Flags: W
AnchorPoint: "Anchor-18" 0 0 basechar 0
AnchorPoint: "Anchor-17" 0 0 basechar 0
AnchorPoint: "Anchor-16" 261 534 basechar 0
AnchorPoint: "Anchor-15" 0 0 basechar 0
AnchorPoint: "Anchor-14" 261 0 basechar 0
LayerCount: 2
Fore
SplineSet
542 534 m 1,0,-1
 360 189 l 1,1,-1
 360 0 l 1,2,-1
 162 0 l 1,3,-1
 162 188 l 1,4,-1
 -20 534 l 1,5,-1
 191 534 l 1,6,-1
 264 311 l 1,7,-1
 337 534 l 1,8,-1
 542 534 l 1,0,-1
EndSplineSet
EndChar

StartChar: a
Encoding: 97 97 340
Width: 551
GlyphClass: 2
Flags: W
AnchorPoint: "Anchor-18" 0 0 basechar 0
AnchorPoint: "Anchor-17" 0 0 basechar 0
AnchorPoint: "Anchor-16" 277 534 basechar 0
AnchorPoint: "Anchor-15" 506 -16 basechar 0
AnchorPoint: "Anchor-14" 277 0 basechar 0
LayerCount: 2
Fore
SplineSet
511 131.5 m 128,-1,1
 518 118 518 118 536 111 c 1,2,-1
 496 -16 l 1,3,4
 442 -12 442 -12 408 4.5 c 128,-1,5
 374 21 374 21 352 58 c 1,6,7
 300 -20 300 -20 191 -20 c 0,8,9
 112 -20 112 -20 63.5 27.5 c 128,-1,10
 15 75 15 75 15 150 c 0,11,12
 15 239 15 239 81 286 c 128,-1,13
 147 333 147 333 273 333 c 2,14,-1
 311 333 l 1,15,-1
 311 346 l 2,16,17
 311 386 311 386 295 400 c 128,-1,18
 279 414 279 414 234 414 c 0,19,20
 210 414 210 414 172.5 406.5 c 128,-1,21
 135 399 135 399 96 386 c 1,22,-1
 53 512 l 1,23,24
 102 532 102 532 159.5 543 c 128,-1,25
 217 554 217 554 264 554 c 0,26,27
 390 554 390 554 447 505.5 c 128,-1,28
 504 457 504 457 504 357 c 2,29,-1
 504 173 l 2,30,0
 504 145 504 145 511 131.5 c 128,-1,1
285.5 128 m 128,-1,32
 301 137 301 137 311 151 c 1,33,-1
 311 230 l 1,34,-1
 290 230 l 2,35,36
 248 230 248 230 228 215 c 128,-1,37
 208 200 208 200 208 169 c 0,38,39
 208 146 208 146 220 132.5 c 128,-1,40
 232 119 232 119 252 119 c 0,41,31
 270 119 270 119 285.5 128 c 128,-1,32
EndSplineSet
Substitution2: "Single Substitution lookup 45 subtable" ordfeminine
Substitution2: "'ss04' Style Set 4 lookup 36 subtable" a.ss04
Substitution2: "'salt' Stylistic Alternatives lookup 32 subtable" a.ss04
Substitution2: "'smcp' Lowercase to Small Capitals lookup 27 subtable" a.sc
AlternateSubs2: "'aalt' Access All Alternates lookup 1 subtable" ordfeminine a.sc a.ss04
EndChar

StartChar: a.ss04
Encoding: 65547 -1 341
Width: 596
GlyphClass: 2
Flags: W
AnchorPoint: "Anchor-18" 0 0 basechar 0
AnchorPoint: "Anchor-17" 0 0 basechar 0
AnchorPoint: "Anchor-16" 298 534 basechar 0
AnchorPoint: "Anchor-15" 0 0 basechar 0
AnchorPoint: "Anchor-14" 298 0 basechar 0
LayerCount: 2
Fore
SplineSet
559 150.5 m 128,-1,1
 568 133 568 133 591 121 c 1,2,-1
 535 -20 l 1,3,4
 476 -12 476 -12 439 7.5 c 128,-1,5
 402 27 402 27 381 61 c 1,6,7
 351 24 351 24 311 2 c 128,-1,8
 271 -20 271 -20 223 -20 c 0,9,10
 122 -20 122 -20 69.5 57.5 c 128,-1,11
 17 135 17 135 17 270 c 0,12,13
 17 353 17 353 44.5 417.5 c 128,-1,14
 72 482 72 482 123 518 c 128,-1,15
 174 554 174 554 243 554 c 0,16,17
 320 554 320 554 368 497 c 1,18,-1
 377 534 l 1,19,-1
 550 534 l 1,20,-1
 550 202 l 2,21,0
 550 168 550 168 559 150.5 c 128,-1,1
352 169 m 1,23,-1
 352 382 l 1,24,25
 338 398 338 398 323.5 405.5 c 128,-1,26
 309 413 309 413 291 413 c 0,27,28
 220 413 220 413 220 268 c 0,29,30
 220 181 220 181 237 151.5 c 128,-1,31
 254 122 254 122 284 122 c 0,32,22
 325 122 325 122 352 169 c 1,23,-1
EndSplineSet
EndChar

StartChar: uni0251
Encoding: 593 593 365
Width: 596
GlyphClass: 2
Flags: W
AnchorPoint: "Anchor-18" 0 0 basechar 0
AnchorPoint: "Anchor-17" 0 0 basechar 0
AnchorPoint: "Anchor-16" 298 534 basechar 0
AnchorPoint: "Anchor-15" 0 0 basechar 0
AnchorPoint: "Anchor-14" 298 0 basechar 0
LayerCount: 2
Fore
SplineSet
559 150.5 m 128,-1,1
 568 133 568 133 591 121 c 1,2,-1
 535 -20 l 1,3,4
 476 -12 476 -12 439 7.5 c 128,-1,5
 402 27 402 27 381 61 c 1,6,7
 351 24 351 24 311 2 c 128,-1,8
 271 -20 271 -20 223 -20 c 0,9,10
 122 -20 122 -20 69.5 57.5 c 128,-1,11
 17 135 17 135 17 270 c 0,12,13
 17 353 17 353 44.5 417.5 c 128,-1,14
 72 482 72 482 123 518 c 128,-1,15
 174 554 174 554 243 554 c 0,16,17
 320 554 320 554 368 497 c 1,18,-1
 377 534 l 1,19,-1
 550 534 l 1,20,-1
 550 202 l 2,21,0
 550 168 550 168 559 150.5 c 128,-1,1
352 169 m 1,23,-1
 352 382 l 1,24,25
 338 398 338 398 323.5 405.5 c 128,-1,26
 309 413 309 413 291 413 c 0,27,28
 220 413 220 413 220 268 c 0,29,30
 220 181 220 181 237 151.5 c 128,-1,31
 254 122 254 122 284 122 c 0,32,22
 325 122 325 122 352 169 c 1,23,-1
EndSplineSet
Substitution2: "'smcp' Lowercase to Small Capitals lookup 27 subtable" uni0251.sc
Substitution2: "'aalt' Access All Alternates lookup 0 subtable" uni0251.sc
EndChar

StartChar: uni0252
Encoding: 594 594 366
Width: 596
GlyphClass: 2
Flags: W
AnchorPoint: "Anchor-18" 0 0 basechar 0
AnchorPoint: "Anchor-17" 0 0 basechar 0
AnchorPoint: "Anchor-16" 298 534 basechar 0
AnchorPoint: "Anchor-15" 0 0 basechar 0
AnchorPoint: "Anchor-14" 298 0 basechar 0
LayerCount: 2
Fore
SplineSet
526.5 476.5 m 128,-1,1
 579 399 579 399 579 264 c 0,2,3
 579 181 579 181 551.5 116.5 c 128,-1,4
 524 52 524 52 473 16 c 128,-1,5
 422 -20 422 -20 353 -20 c 0,6,7
 276 -20 276 -20 228 37 c 1,8,-1
 219 0 l 1,9,-1
 46 0 l 1,10,-1
 46 332 l 2,11,12
 46 366 46 366 37 383.5 c 128,-1,13
 28 401 28 401 5 413 c 1,14,-1
 61 554 l 1,15,16
 120 546 120 546 157 526.5 c 128,-1,17
 194 507 194 507 215 473 c 1,18,19
 245 510 245 510 285 532 c 128,-1,20
 325 554 325 554 373 554 c 0,21,0
 474 554 474 554 526.5 476.5 c 128,-1,1
376 266 m 0,23,24
 376 353 376 353 359 382.5 c 128,-1,25
 342 412 342 412 312 412 c 0,26,27
 271 412 271 412 244 365 c 1,28,-1
 244 152 l 1,29,30
 258 136 258 136 272.5 128.5 c 128,-1,31
 287 121 287 121 305 121 c 0,32,22
 376 121 376 121 376 266 c 0,23,24
EndSplineSet
EndChar

StartChar: aogonek
Encoding: 261 261 368
Width: 551
GlyphClass: 2
Flags: W
AnchorPoint: "Anchor-18" 0 0 basechar 0
AnchorPoint: "Anchor-17" 0 0 basechar 0
AnchorPoint: "Anchor-16" 277 534 basechar 0
AnchorPoint: "Anchor-15" 506 -16 basechar 0
AnchorPoint: "Anchor-14" 277 0 basechar 0
LayerCount: 2
Fore
SplineSet
406.5 -62.5 m 128,-1,1
 381 -88 381 -88 381 -111 c 0,2,3
 381 -155 381 -155 432 -155 c 0,4,5
 458 -155 458 -155 493 -147 c 1,6,-1
 481 -262 l 1,7,8
 446 -270 446 -270 407 -270 c 0,9,10
 337 -270 337 -270 292 -236 c 128,-1,11
 247 -202 247 -202 247 -144 c 0,12,13
 247 -37 247 -37 385 19 c 1,14,15
 364 36 364 36 352 58 c 1,16,17
 300 -20 300 -20 191 -20 c 0,18,19
 112 -20 112 -20 63.5 27.5 c 128,-1,20
 15 75 15 75 15 150 c 0,21,22
 15 239 15 239 81 286 c 128,-1,23
 147 333 147 333 273 333 c 2,24,-1
 311 333 l 1,25,-1
 311 346 l 2,26,27
 311 386 311 386 295 400 c 128,-1,28
 279 414 279 414 234 414 c 0,29,30
 210 414 210 414 172.5 406.5 c 128,-1,31
 135 399 135 399 96 386 c 1,32,-1
 53 512 l 1,33,34
 102 532 102 532 159.5 543 c 128,-1,35
 217 554 217 554 264 554 c 0,36,37
 390 554 390 554 447 505.5 c 128,-1,38
 504 457 504 457 504 357 c 2,39,-1
 504 173 l 2,40,41
 504 145 504 145 511 131.5 c 128,-1,42
 518 118 518 118 536 111 c 1,43,-1
 496 -16 l 1,44,0
 432 -37 432 -37 406.5 -62.5 c 128,-1,1
285.5 128 m 128,-1,46
 301 137 301 137 311 151 c 1,47,-1
 311 230 l 1,48,-1
 290 230 l 2,49,50
 248 230 248 230 228 215 c 128,-1,51
 208 200 208 200 208 169 c 0,52,53
 208 146 208 146 220 132.5 c 128,-1,54
 232 119 232 119 252 119 c 0,55,45
 270 119 270 119 285.5 128 c 128,-1,46
EndSplineSet
Substitution2: "'smcp' Lowercase to Small Capitals lookup 27 subtable" aogonek.sc
Substitution2: "'aalt' Access All Alternates lookup 0 subtable" aogonek.sc
EndChar

StartChar: aringacute
Encoding: 507 507 370
Width: 551
GlyphClass: 2
Flags: W
AnchorPoint: "Anchor-18" 0 0 basechar 0
AnchorPoint: "Anchor-17" 0 0 basechar 0
AnchorPoint: "Anchor-16" 279 1104 basechar 0
AnchorPoint: "Anchor-15" 506 -16 basechar 0
AnchorPoint: "Anchor-14" 277 0 basechar 0
LayerCount: 2
Fore
SplineSet
429 960 m 1,0,-1
 175 869 l 1,1,-1
 125 968 l 1,2,-1
 359 1104 l 1,3,-1
 429 960 l 1,0,-1
193 593 m 128,-1,5
 158 613 158 613 139.5 646.5 c 128,-1,6
 121 680 121 680 121 720 c 256,7,8
 121 760 121 760 139.5 793 c 128,-1,9
 158 826 158 826 193 846 c 128,-1,10
 228 866 228 866 275 866 c 256,11,12
 322 866 322 866 357 846 c 128,-1,13
 392 826 392 826 410.5 793 c 128,-1,14
 429 760 429 760 429 720 c 256,15,16
 429 680 429 680 410.5 646.5 c 128,-1,17
 392 613 392 613 357 593 c 128,-1,18
 322 573 322 573 275 573 c 256,19,4
 228 573 228 573 193 593 c 128,-1,5
246 754.5 m 128,-1,21
 235 743 235 743 235 720 c 256,22,23
 235 697 235 697 246 685.5 c 128,-1,24
 257 674 257 674 275 674 c 256,25,26
 293 674 293 674 304 685.5 c 128,-1,27
 315 697 315 697 315 720 c 256,28,29
 315 743 315 743 304 754.5 c 128,-1,30
 293 766 293 766 275 766 c 256,31,20
 257 766 257 766 246 754.5 c 128,-1,21
511 131.5 m 128,-1,33
 518 118 518 118 536 111 c 1,34,-1
 496 -16 l 1,35,36
 442 -12 442 -12 408 4.5 c 128,-1,37
 374 21 374 21 352 58 c 1,38,39
 300 -20 300 -20 191 -20 c 0,40,41
 112 -20 112 -20 63.5 27.5 c 128,-1,42
 15 75 15 75 15 150 c 0,43,44
 15 239 15 239 81 286 c 128,-1,45
 147 333 147 333 273 333 c 2,46,-1
 311 333 l 1,47,-1
 311 346 l 2,48,49
 311 386 311 386 295 400 c 128,-1,50
 279 414 279 414 234 414 c 0,51,52
 210 414 210 414 172.5 406.5 c 128,-1,53
 135 399 135 399 96 386 c 1,54,-1
 53 512 l 1,55,56
 102 532 102 532 159.5 543 c 128,-1,57
 217 554 217 554 264 554 c 0,58,59
 390 554 390 554 447 505.5 c 128,-1,60
 504 457 504 457 504 357 c 2,61,-1
 504 173 l 2,62,32
 504 145 504 145 511 131.5 c 128,-1,33
285.5 128 m 128,-1,64
 301 137 301 137 311 151 c 1,65,-1
 311 230 l 1,66,-1
 290 230 l 2,67,68
 248 230 248 230 228 215 c 128,-1,69
 208 200 208 200 208 169 c 0,70,71
 208 146 208 146 220 132.5 c 128,-1,72
 232 119 232 119 252 119 c 0,73,63
 270 119 270 119 285.5 128 c 128,-1,64
EndSplineSet
Substitution2: "'smcp' Lowercase to Small Capitals lookup 27 subtable" aringacute.sc
Substitution2: "'aalt' Access All Alternates lookup 0 subtable" aringacute.sc
EndChar

StartChar: uni2C65
Encoding: 11365 11365 371
Width: 551
GlyphClass: 2
Flags: W
AnchorPoint: "Anchor-18" 0 0 basechar 0
AnchorPoint: "Anchor-17" 0 0 basechar 0
AnchorPoint: "Anchor-16" 276 534 basechar 0
AnchorPoint: "Anchor-15" 0 0 basechar 0
AnchorPoint: "Anchor-14" 276 0 basechar 0
LayerCount: 2
Fore
SplineSet
511 131.5 m 128,-1,1
 518 118 518 118 536 111 c 1,2,-1
 496 -16 l 1,3,4
 442 -12 442 -12 408 4.5 c 128,-1,5
 374 21 374 21 352 58 c 1,6,7
 312 -3 312 -3 237 -16 c 1,8,-1
 223 -77 l 1,9,-1
 164 -64 l 1,10,-1
 174 -19 l 1,11,12
 102 -14 102 -14 58.5 32.5 c 128,-1,13
 15 79 15 79 15 150 c 0,14,15
 15 229 15 229 76.5 274 c 128,-1,16
 138 319 138 319 254 323 c 1,17,-1
 279 429 l 1,18,-1
 264 429 l 2,19,20
 231 429 231 429 182.5 421.5 c 128,-1,21
 134 414 134 414 96 401 c 1,22,-1
 53 512 l 1,23,24
 102 532 102 532 159.5 543 c 128,-1,25
 217 554 217 554 264 554 c 0,26,27
 280 554 280 554 308 552 c 1,28,-1
 320 604 l 1,29,-1
 378 591 l 1,30,-1
 367 543 l 1,31,32
 438 526 438 526 471 480 c 128,-1,33
 504 434 504 434 504 357 c 2,34,-1
 504 173 l 2,35,0
 504 145 504 145 511 131.5 c 128,-1,1
334 402 m 1,37,-1
 316 323 l 1,38,-1
 341 323 l 1,39,-1
 341 361 l 2,40,36
 341 388 341 388 334 402 c 1,37,-1
341 148 m 1,42,-1
 341 230 l 1,43,-1
 294 230 l 1,44,-1
 267 112 l 1,45,41
 301 118 301 118 341 148 c 1,42,-1
207 119 m 1,47,-1
 231 225 l 1,48,49
 209 218 209 218 198.5 203.5 c 128,-1,50
 188 189 188 189 188 164 c 0,51,46
 188 132 188 132 207 119 c 1,47,-1
EndSplineSet
Substitution2: "'smcp' Lowercase to Small Capitals lookup 27 subtable" uni2C65.sc
Substitution2: "'aalt' Access All Alternates lookup 0 subtable" uni2C65.sc
EndChar

StartChar: uni0250
Encoding: 592 592 373
Width: 551
GlyphClass: 2
Flags: W
AnchorPoint: "Anchor-18" 0 0 basechar 0
AnchorPoint: "Anchor-17" 0 0 basechar 0
AnchorPoint: "Anchor-16" 276 534 basechar 0
AnchorPoint: "Anchor-15" 45 550 basechar 0
AnchorPoint: "Anchor-14" 276 0 basechar 0
LayerCount: 2
Fore
SplineSet
378.5 127.5 m 128,-1,1
 416 135 416 135 455 148 c 1,2,-1
 498 22 l 1,3,4
 449 2 449 2 391.5 -9 c 128,-1,5
 334 -20 334 -20 287 -20 c 0,6,7
 161 -20 161 -20 104 28.5 c 128,-1,8
 47 77 47 77 47 177 c 2,9,-1
 47 361 l 2,10,11
 47 389 47 389 40 402.5 c 128,-1,12
 33 416 33 416 15 423 c 1,13,-1
 55 550 l 1,14,15
 109 546 109 546 143 529.5 c 128,-1,16
 177 513 177 513 199 476 c 1,17,18
 251 554 251 554 360 554 c 0,19,20
 439 554 439 554 487.5 506.5 c 128,-1,21
 536 459 536 459 536 384 c 0,22,23
 536 295 536 295 470 248 c 128,-1,24
 404 201 404 201 278 201 c 2,25,-1
 240 201 l 1,26,-1
 240 188 l 2,27,28
 240 148 240 148 256 134 c 128,-1,29
 272 120 272 120 317 120 c 0,30,0
 341 120 341 120 378.5 127.5 c 128,-1,1
265.5 406 m 128,-1,32
 250 397 250 397 240 383 c 1,33,-1
 240 304 l 1,34,-1
 261 304 l 2,35,36
 303 304 303 304 323 319 c 128,-1,37
 343 334 343 334 343 365 c 0,38,39
 343 388 343 388 331 401.5 c 128,-1,40
 319 415 319 415 299 415 c 0,41,31
 281 415 281 415 265.5 406 c 128,-1,32
EndSplineSet
EndChar

StartChar: ae
Encoding: 230 230 374
Width: 859
GlyphClass: 2
Flags: W
AnchorPoint: "Anchor-18" 0 0 basechar 0
AnchorPoint: "Anchor-17" 0 0 basechar 0
AnchorPoint: "Anchor-16" 430 534 basechar 0
AnchorPoint: "Anchor-15" 0 0 basechar 0
AnchorPoint: "Anchor-14" 417 0 basechar 0
LayerCount: 2
Fore
SplineSet
843 211 m 1,1,-1
 519 211 l 1,2,3
 527 157 527 157 552.5 138.5 c 128,-1,4
 578 120 578 120 626 120 c 0,5,6
 654 120 654 120 683 131.5 c 128,-1,7
 712 143 712 143 747 167 c 1,8,-1
 827 59 l 1,9,10
 730 -20 730 -20 607 -20 c 0,11,12
 533 -20 533 -20 477 3.5 c 128,-1,13
 421 27 421 27 384 68 c 1,14,15
 322 -20 322 -20 195 -20 c 0,16,17
 112 -20 112 -20 63.5 27.5 c 128,-1,18
 15 75 15 75 15 150 c 0,19,20
 15 239 15 239 82.5 286 c 128,-1,21
 150 333 150 333 281 333 c 2,22,-1
 319 333 l 1,23,-1
 319 344 l 2,24,25
 319 384 319 384 303 398 c 128,-1,26
 287 412 287 412 242 412 c 0,27,28
 218 412 218 412 180.5 404.5 c 128,-1,29
 143 397 143 397 104 384 c 1,30,-1
 61 512 l 1,31,32
 110 532 110 532 167.5 543 c 128,-1,33
 225 554 225 554 272 554 c 0,34,35
 382 554 382 554 437 493 c 1,36,37
 503 554 503 554 601 554 c 0,38,39
 672 554 672 554 728 521 c 128,-1,40
 784 488 784 488 815.5 424.5 c 128,-1,41
 847 361 847 361 847 274 c 0,42,0
 847 249 847 249 843 211 c 1,1,-1
652 330 m 2,43,44
 651 377 651 377 637.5 403 c 128,-1,45
 624 429 624 429 589 429 c 0,46,47
 556 429 556 429 539.5 406 c 128,-1,48
 523 383 523 383 518 323 c 1,49,-1
 652 323 l 1,50,-1
 652 330 l 2,43,44
299.5 131 m 128,-1,52
 315 143 315 143 331 166 c 1,53,54
 324 196 324 196 323 220 c 2,55,-1
 323 225 l 1,56,-1
 300 225 l 2,57,58
 259 225 259 225 240 211 c 128,-1,59
 221 197 221 197 221 165 c 0,60,61
 221 144 221 144 232 131.5 c 128,-1,62
 243 119 243 119 263 119 c 0,63,51
 284 119 284 119 299.5 131 c 128,-1,52
EndSplineSet
Substitution2: "'smcp' Lowercase to Small Capitals lookup 27 subtable" ae.sc
Substitution2: "'aalt' Access All Alternates lookup 0 subtable" ae.sc
EndChar

StartChar: b
Encoding: 98 98 377
Width: 599
GlyphClass: 2
Flags: W
AnchorPoint: "Anchor-18" 0 0 basechar 0
AnchorPoint: "Anchor-17" 0 0 basechar 0
AnchorPoint: "Anchor-16" 322 744 basechar 0
AnchorPoint: "Anchor-15" 0 0 basechar 0
AnchorPoint: "Anchor-14" 308 0 basechar 0
LayerCount: 2
Fore
SplineSet
527 478.5 m 128,-1,1
 577 403 577 403 577 266 c 0,2,3
 577 184 577 184 551.5 119 c 128,-1,4
 526 54 526 54 477.5 17 c 128,-1,5
 429 -20 429 -20 363 -20 c 0,6,7
 320 -20 320 -20 284.5 -2.5 c 128,-1,8
 249 15 249 15 225 46 c 1,9,-1
 218 0 l 1,10,-1
 42 0 l 1,11,-1
 42 744 l 1,12,-1
 240 764 l 1,13,-1
 240 487 l 1,14,15
 262 517 262 517 300 535.5 c 128,-1,16
 338 554 338 554 380 554 c 0,17,0
 477 554 477 554 527 478.5 c 128,-1,1
355.5 154 m 128,-1,19
 374 187 374 187 374 266 c 0,20,21
 374 352 374 352 357.5 382 c 128,-1,22
 341 412 341 412 310 412 c 0,23,24
 269 412 269 412 240 362 c 1,25,-1
 240 160 l 1,26,27
 263 121 263 121 303 121 c 0,28,18
 337 121 337 121 355.5 154 c 128,-1,19
EndSplineSet
Substitution2: "'smcp' Lowercase to Small Capitals lookup 27 subtable" b.sc
Substitution2: "'aalt' Access All Alternates lookup 0 subtable" b.sc
EndChar

StartChar: uni0253
Encoding: 595 595 381
Width: 599
GlyphClass: 2
Flags: W
AnchorPoint: "Anchor-18" 0 0 basechar 0
AnchorPoint: "Anchor-17" 0 0 basechar 0
AnchorPoint: "Anchor-16" 300 744 basechar 0
AnchorPoint: "Anchor-15" 0 0 basechar 0
AnchorPoint: "Anchor-14" 300 0 basechar 0
LayerCount: 2
Fore
SplineSet
526.5 479 m 128,-1,1
 577 404 577 404 577 266 c 0,2,3
 577 184 577 184 551.5 119 c 128,-1,4
 526 54 526 54 477.5 17 c 128,-1,5
 429 -20 429 -20 363 -20 c 0,6,7
 320 -20 320 -20 284.5 -2.5 c 128,-1,8
 249 15 249 15 225 46 c 1,9,-1
 218 0 l 1,10,-1
 42 0 l 1,11,-1
 42 565 l 2,12,13
 42 652 42 652 100 708 c 128,-1,14
 158 764 158 764 268 764 c 0,15,16
 310 764 310 764 353 753.5 c 128,-1,17
 396 743 396 743 425 727 c 1,18,-1
 373 604 l 1,19,20
 334 622 334 622 295 622 c 0,21,22
 266 622 266 622 253 607 c 128,-1,23
 240 592 240 592 240 555 c 2,24,-1
 240 487 l 1,25,26
 262 517 262 517 299.5 535.5 c 128,-1,27
 337 554 337 554 375 554 c 0,28,0
 476 554 476 554 526.5 479 c 128,-1,1
356 154 m 128,-1,30
 374 187 374 187 374 266 c 0,31,32
 374 352 374 352 357.5 382 c 128,-1,33
 341 412 341 412 311 412 c 0,34,35
 268 412 268 412 240 362 c 1,36,-1
 240 160 l 1,37,38
 263 121 263 121 305 121 c 0,39,29
 338 121 338 121 356 154 c 128,-1,30
EndSplineSet
Substitution2: "'smcp' Lowercase to Small Capitals lookup 27 subtable" uni0253.sc
Substitution2: "'aalt' Access All Alternates lookup 0 subtable" uni0253.sc
EndChar

StartChar: uni02AD
Encoding: 685 685 382
Width: 380
GlyphClass: 2
Flags: W
AnchorPoint: "Anchor-18" 0 0 basechar 0
AnchorPoint: "Anchor-17" 0 0 basechar 0
AnchorPoint: "Anchor-16" 0 0 basechar 0
AnchorPoint: "Anchor-15" 0 0 basechar 0
AnchorPoint: "Anchor-14" 194 141 basechar 0
LayerCount: 2
Fore
SplineSet
30 400 m 1,0,-1
 30 574 l 1,1,-1
 350 574 l 1,2,-1
 350 400 l 1,3,-1
 237 400 l 1,4,-1
 237 480 l 1,5,-1
 143 480 l 1,6,-1
 143 400 l 1,7,-1
 30 400 l 1,0,-1
30 0 m 1,8,-1
 30 174 l 1,9,-1
 350 174 l 1,10,-1
 350 0 l 1,11,-1
 237 0 l 1,12,-1
 237 80 l 1,13,-1
 143 80 l 1,14,-1
 143 0 l 1,15,-1
 30 0 l 1,8,-1
EndSplineSet
EndChar

StartChar: uni0298
Encoding: 664 664 383
Width: 801
GlyphClass: 2
Flags: W
AnchorPoint: "Anchor-18" 0 0 basechar 0
AnchorPoint: "Anchor-17" 0 0 basechar 0
AnchorPoint: "Anchor-16" 401 696 basechar 0
AnchorPoint: "Anchor-15" 0 0 basechar 0
AnchorPoint: "Anchor-14" 401 0 basechar 0
LayerCount: 2
Fore
SplineSet
600.5 670.5 m 128,-1,1
 687 625 687 625 734 541.5 c 128,-1,2
 781 458 781 458 781 349 c 0,3,4
 781 244 781 244 733.5 160 c 128,-1,5
 686 76 686 76 599.5 28 c 128,-1,6
 513 -20 513 -20 401 -20 c 0,7,8
 288 -20 288 -20 201.5 26 c 128,-1,9
 115 72 115 72 67.5 156 c 128,-1,10
 20 240 20 240 20 349 c 0,11,12
 20 454 20 454 67.5 537.5 c 128,-1,13
 115 621 115 621 202 668.5 c 128,-1,14
 289 716 289 716 401 716 c 0,15,0
 514 716 514 716 600.5 670.5 c 128,-1,1
214 349 m 0,17,18
 214 112 214 112 401 112 c 0,19,20
 493 112 493 112 540 169.5 c 128,-1,21
 587 227 587 227 587 349 c 0,22,23
 587 468 587 468 536.5 526 c 128,-1,24
 486 584 486 584 401 584 c 0,25,16
 214 584 214 584 214 349 c 0,17,18
465 407.5 m 128,-1,27
 490 383 490 383 490 347 c 256,28,29
 490 311 490 311 465 287 c 128,-1,30
 440 263 440 263 401 263 c 256,31,32
 362 263 362 263 337 287 c 128,-1,33
 312 311 312 311 312 347 c 256,34,35
 312 383 312 383 337 407.5 c 128,-1,36
 362 432 362 432 401 432 c 256,37,26
 440 432 440 432 465 407.5 c 128,-1,27
EndSplineSet
EndChar

StartChar: uni0180
Encoding: 384 384 385
Width: 609
GlyphClass: 2
Flags: W
AnchorPoint: "Anchor-18" 0 0 basechar 0
AnchorPoint: "Anchor-17" 0 0 basechar 0
AnchorPoint: "Anchor-16" 332 744 basechar 0
AnchorPoint: "Anchor-15" 0 0 basechar 0
AnchorPoint: "Anchor-14" 318 0 basechar 0
LayerCount: 2
Fore
SplineSet
537 478.5 m 128,-1,1
 587 403 587 403 587 266 c 0,2,3
 587 184 587 184 561.5 119 c 128,-1,4
 536 54 536 54 487.5 17 c 128,-1,5
 439 -20 439 -20 373 -20 c 0,6,7
 330 -20 330 -20 294.5 -2.5 c 128,-1,8
 259 15 259 15 235 46 c 1,9,-1
 228 0 l 1,10,-1
 52 0 l 1,11,-1
 52 590 l 1,12,-1
 0 590 l 1,13,-1
 0 696 l 1,14,-1
 52 696 l 1,15,-1
 52 744 l 1,16,-1
 250 764 l 1,17,-1
 250 696 l 1,18,-1
 372 696 l 1,19,-1
 372 590 l 1,20,-1
 250 590 l 1,21,-1
 250 487 l 1,22,23
 272 517 272 517 310 535.5 c 128,-1,24
 348 554 348 554 390 554 c 0,25,0
 487 554 487 554 537 478.5 c 128,-1,1
365.5 154 m 128,-1,27
 384 187 384 187 384 266 c 0,28,29
 384 352 384 352 367.5 382 c 128,-1,30
 351 412 351 412 320 412 c 0,31,32
 279 412 279 412 250 362 c 1,33,-1
 250 160 l 1,34,35
 273 121 273 121 313 121 c 0,36,26
 347 121 347 121 365.5 154 c 128,-1,27
EndSplineSet
Substitution2: "'smcp' Lowercase to Small Capitals lookup 27 subtable" uni0180.sc
Substitution2: "'aalt' Access All Alternates lookup 0 subtable" uni0180.sc
EndChar

StartChar: uni0183
Encoding: 387 387 386
Width: 599
GlyphClass: 2
Flags: W
AnchorPoint: "Anchor-18" 0 0 basechar 0
AnchorPoint: "Anchor-17" 0 0 basechar 0
AnchorPoint: "Anchor-16" 300 744 basechar 0
AnchorPoint: "Anchor-15" 0 0 basechar 0
AnchorPoint: "Anchor-14" 300 0 basechar 0
LayerCount: 2
Fore
SplineSet
526.5 460.5 m 128,-1,1
 577 387 577 387 577 256 c 0,2,3
 577 179 577 179 551.5 116 c 128,-1,4
 526 53 526 53 477.5 16.5 c 128,-1,5
 429 -20 429 -20 363 -20 c 0,6,7
 320 -20 320 -20 284.5 -2.5 c 128,-1,8
 249 15 249 15 225 46 c 1,9,-1
 218 0 l 1,10,-1
 42 0 l 1,11,-1
 42 744 l 1,12,-1
 454 744 l 1,13,-1
 434 605 l 1,14,-1
 240 605 l 1,15,-1
 240 467 l 1,16,17
 262 497 262 497 299.5 515.5 c 128,-1,18
 337 534 337 534 375 534 c 0,19,0
 476 534 476 534 526.5 460.5 c 128,-1,1
374 256 m 0,21,22
 374 335 374 335 357.5 363.5 c 128,-1,23
 341 392 341 392 311 392 c 0,24,25
 268 392 268 392 240 342 c 1,26,-1
 240 160 l 1,27,28
 263 121 263 121 305 121 c 0,29,20
 374 121 374 121 374 256 c 0,21,22
EndSplineSet
Substitution2: "'smcp' Lowercase to Small Capitals lookup 27 subtable" uni0183.sc
Substitution2: "'aalt' Access All Alternates lookup 0 subtable" uni0183.sc
EndChar

StartChar: c
Encoding: 99 99 387
Width: 479
GlyphClass: 2
Flags: W
AnchorPoint: "Anchor-18" 0 0 basechar 0
AnchorPoint: "Anchor-17" 0 0 basechar 0
AnchorPoint: "Anchor-16" 292 534 basechar 0
AnchorPoint: "Anchor-15" 0 0 basechar 0
AnchorPoint: "Anchor-14" 277 0 basechar 0
LayerCount: 2
Fore
SplineSet
489 483 m 1,1,-1
 407 368 l 1,2,3
 361 405 361 405 313 405 c 0,4,5
 267 405 267 405 245 373 c 128,-1,6
 223 341 223 341 223 263 c 0,7,8
 223 188 223 188 245.5 160.5 c 128,-1,9
 268 133 268 133 311 133 c 0,10,11
 334 133 334 133 354 140.5 c 128,-1,12
 374 148 374 148 404 167 c 1,13,-1
 489 46 l 1,14,15
 408 -20 408 -20 300 -20 c 0,16,17
 213 -20 213 -20 149 15.5 c 128,-1,18
 85 51 85 51 51 115.5 c 128,-1,19
 17 180 17 180 17 263 c 0,20,21
 17 347 17 347 51.5 413 c 128,-1,22
 86 479 86 479 149 516.5 c 128,-1,23
 212 554 212 554 295 554 c 0,24,0
 409 554 409 554 489 483 c 1,1,-1
EndSplineSet
Substitution2: "'smcp' Lowercase to Small Capitals lookup 27 subtable" c.sc
Substitution2: "'aalt' Access All Alternates lookup 0 subtable" c.sc
EndChar

StartChar: ccedilla
Encoding: 231 231 391
Width: 479
GlyphClass: 2
Flags: W
AnchorPoint: "Anchor-18" 0 0 basechar 0
AnchorPoint: "Anchor-17" 0 0 basechar 0
AnchorPoint: "Anchor-16" 292 534 basechar 0
AnchorPoint: "Anchor-15" 0 0 basechar 0
AnchorPoint: "Anchor-14" 301 -275 basechar 0
LayerCount: 2
Fore
SplineSet
333 -18 m 1,1,-1
 333 -43 l 1,2,3
 443 -57 443 -57 443 -151 c 0,4,5
 443 -205 443 -205 399 -240 c 128,-1,6
 355 -275 355 -275 279 -275 c 0,7,8
 242 -275 242 -275 209.5 -265.5 c 128,-1,9
 177 -256 177 -256 154 -241 c 1,10,-1
 197 -155 l 1,11,12
 230 -173 230 -173 261 -173 c 0,13,14
 306 -173 306 -173 306 -149 c 0,15,16
 306 -133 306 -133 284 -126.5 c 128,-1,17
 262 -120 262 -120 212 -120 c 1,18,-1
 225 -12 l 1,19,20
 127 9 127 9 72 82.5 c 128,-1,21
 17 156 17 156 17 263 c 0,22,23
 17 347 17 347 51.5 413 c 128,-1,24
 86 479 86 479 149 516.5 c 128,-1,25
 212 554 212 554 295 554 c 0,26,27
 409 554 409 554 489 483 c 1,28,-1
 407 368 l 1,29,30
 361 405 361 405 313 405 c 0,31,32
 267 405 267 405 245 373 c 128,-1,33
 223 341 223 341 223 263 c 0,34,35
 223 188 223 188 245.5 160.5 c 128,-1,36
 268 133 268 133 311 133 c 0,37,38
 334 133 334 133 354 140.5 c 128,-1,39
 374 148 374 148 404 167 c 1,40,-1
 489 46 l 1,41,0
 420 -10 420 -10 333 -18 c 1,1,-1
EndSplineSet
Substitution2: "'smcp' Lowercase to Small Capitals lookup 27 subtable" ccedilla.sc
Substitution2: "'aalt' Access All Alternates lookup 0 subtable" ccedilla.sc
EndChar

StartChar: uni0255
Encoding: 597 597 393
Width: 509
GlyphClass: 2
Flags: W
AnchorPoint: "Anchor-18" 0 0 basechar 0
AnchorPoint: "Anchor-17" 0 0 basechar 0
AnchorPoint: "Anchor-16" 295 534 basechar 0
AnchorPoint: "Anchor-15" 0 0 basechar 0
AnchorPoint: "Anchor-14" 295 -50 basechar 0
LayerCount: 2
Fore
SplineSet
476 233.5 m 128,-1,1
 514 200 514 200 514 140 c 0,2,3
 514 60 514 60 457.5 20 c 128,-1,4
 401 -20 401 -20 315 -20 c 0,5,6
 274 -20 274 -20 245 -14 c 1,7,-1
 211 -90 l 1,8,-1
 122 -56 l 1,9,-1
 156 16 l 1,10,11
 89 48 89 48 53 112.5 c 128,-1,12
 17 177 17 177 17 263 c 0,13,14
 17 347 17 347 51.5 413 c 128,-1,15
 86 479 86 479 149 516.5 c 128,-1,16
 212 554 212 554 295 554 c 0,17,18
 409 554 409 554 489 483 c 1,19,-1
 407 368 l 1,20,21
 361 405 361 405 313 405 c 0,22,23
 267 405 267 405 245 373 c 128,-1,24
 223 341 223 341 223 263 c 0,25,26
 223 213 223 213 234 176 c 1,27,28
 258 225 258 225 294 246 c 128,-1,29
 330 267 330 267 381 267 c 0,30,0
 438 267 438 267 476 233.5 c 128,-1,1
386 147 m 0,32,33
 386 171 386 171 361 171 c 0,34,35
 327 171 327 171 302 120 c 1,36,37
 322 115 322 115 340 115 c 0,38,31
 386 115 386 115 386 147 c 0,32,33
EndSplineSet
EndChar

StartChar: uni0188
Encoding: 392 392 395
Width: 479
GlyphClass: 2
Flags: W
AnchorPoint: "Anchor-18" 0 0 basechar 0
AnchorPoint: "Anchor-17" 0 0 basechar 0
AnchorPoint: "Anchor-16" 240 744 basechar 0
AnchorPoint: "Anchor-15" 0 0 basechar 0
AnchorPoint: "Anchor-14" 240 0 basechar 0
LayerCount: 2
Fore
SplineSet
649 727 m 1,1,-1
 597 605 l 1,2,3
 561 622 561 622 533 622 c 0,4,5
 510 622 510 622 499.5 609 c 128,-1,6
 489 596 489 596 489 568 c 2,7,-1
 489 483 l 1,8,-1
 418 383 l 1,9,10
 371 405 371 405 317 405 c 0,11,12
 269 405 269 405 246 373 c 128,-1,13
 223 341 223 341 223 263 c 0,14,15
 223 188 223 188 245.5 160.5 c 128,-1,16
 268 133 268 133 311 133 c 0,17,18
 334 133 334 133 354 140.5 c 128,-1,19
 374 148 374 148 404 167 c 1,20,-1
 489 46 l 1,21,22
 408 -20 408 -20 300 -20 c 0,23,24
 213 -20 213 -20 149 15.5 c 128,-1,25
 85 51 85 51 51 115.5 c 128,-1,26
 17 180 17 180 17 263 c 256,27,28
 17 346 17 346 50 412.5 c 128,-1,29
 83 479 83 479 140 516.5 c 128,-1,30
 197 554 197 554 265 554 c 0,31,32
 291 554 291 554 321 547 c 1,33,-1
 321 585 l 2,34,35
 321 670 321 670 365.5 717 c 128,-1,36
 410 764 410 764 502 764 c 0,37,0
 584 764 584 764 649 727 c 1,1,-1
EndSplineSet
Substitution2: "'smcp' Lowercase to Small Capitals lookup 27 subtable" uni0188.sc
Substitution2: "'aalt' Access All Alternates lookup 0 subtable" uni0188.sc
EndChar

StartChar: uni0297
Encoding: 663 663 396
Width: 484
GlyphClass: 2
Flags: W
AnchorPoint: "Anchor-18" 0 0 basechar 0
AnchorPoint: "Anchor-17" 0 0 basechar 0
AnchorPoint: "Anchor-16" 315 534 basechar 0
AnchorPoint: "Anchor-15" 0 0 basechar 0
AnchorPoint: "Anchor-14" 314 -215 basechar 0
LayerCount: 2
Fore
SplineSet
494 483 m 1,1,-1
 415 373 l 1,2,3
 369 405 369 405 328 405 c 0,4,5
 277 405 277 405 252.5 348.5 c 128,-1,6
 228 292 228 292 228 160 c 0,7,8
 228 32 228 32 251.5 -21 c 128,-1,9
 275 -74 275 -74 320 -74 c 0,10,11
 343 -74 343 -74 362.5 -66.5 c 128,-1,12
 382 -59 382 -59 409 -41 c 1,13,-1
 494 -161 l 1,14,15
 413 -227 413 -227 314 -227 c 0,16,17
 173 -227 173 -227 97.5 -125 c 128,-1,18
 22 -23 22 -23 22 160 c 0,19,20
 22 281 22 281 57 369.5 c 128,-1,21
 92 458 92 458 158 506 c 128,-1,22
 224 554 224 554 315 554 c 0,23,0
 421 554 421 554 494 483 c 1,1,-1
EndSplineSet
EndChar

StartChar: uni023C
Encoding: 572 572 397
Width: 479
GlyphClass: 2
Flags: W
AnchorPoint: "Anchor-18" 0 0 basechar 0
AnchorPoint: "Anchor-17" 0 0 basechar 0
AnchorPoint: "Anchor-16" 292 534 basechar 0
AnchorPoint: "Anchor-15" 0 0 basechar 0
AnchorPoint: "Anchor-14" 277 0 basechar 0
LayerCount: 2
Fore
SplineSet
354 140.5 m 128,-1,1
 374 148 374 148 404 167 c 1,2,-1
 489 46 l 1,3,4
 408 -20 408 -20 300 -20 c 0,5,6
 285 -20 285 -20 261 -18 c 1,7,-1
 245 -77 l 1,8,-1
 182 -62 l 1,9,-1
 197 -5 l 1,10,11
 112 23 112 23 64.5 93.5 c 128,-1,12
 17 164 17 164 17 263 c 0,13,14
 17 347 17 347 51.5 413 c 128,-1,15
 86 479 86 479 149 516.5 c 128,-1,16
 212 554 212 554 295 554 c 0,17,18
 320 554 320 554 344 551 c 1,19,-1
 358 604 l 1,20,-1
 420 589 l 1,21,-1
 406 535 l 1,22,23
 452 516 452 516 489 483 c 1,24,-1
 407 368 l 1,25,26
 389 383 389 383 368 393 c 1,27,-1
 300 133 l 1,28,-1
 311 133 l 2,29,0
 334 133 334 133 354 140.5 c 128,-1,1
242 166 m 1,31,-1
 305 405 l 1,32,33
 264 403 264 403 243.5 370.5 c 128,-1,34
 223 338 223 338 223 263 c 0,35,30
 223 198 223 198 242 166 c 1,31,-1
EndSplineSet
Substitution2: "'smcp' Lowercase to Small Capitals lookup 27 subtable" uni023C.sc
Substitution2: "'aalt' Access All Alternates lookup 0 subtable" uni023C.sc
EndChar

StartChar: d
Encoding: 100 100 398
Width: 601
GlyphClass: 2
Flags: W
AnchorPoint: "Anchor-18" 301 267 basechar 0
AnchorPoint: "Anchor-17" 569 744 basechar 0
AnchorPoint: "Anchor-16" 296 744 basechar 0
AnchorPoint: "Anchor-15" 0 0 basechar 0
AnchorPoint: "Anchor-14" 308 0 basechar 0
LayerCount: 2
Fore
SplineSet
559 744 m 1,0,-1
 559 0 l 1,1,-1
 383 0 l 1,2,-1
 376 55 l 1,3,4
 319 -20 319 -20 225 -20 c 0,5,6
 124 -20 124 -20 73 57 c 128,-1,7
 22 134 22 134 22 270 c 0,8,9
 22 352 22 352 50 416.5 c 128,-1,10
 78 481 78 481 128.5 517.5 c 128,-1,11
 179 554 179 554 245 554 c 0,12,13
 314 554 314 554 361 512 c 1,14,-1
 361 764 l 1,15,-1
 559 744 l 1,0,-1
361 169 m 1,17,-1
 361 383 l 1,18,19
 347 398 347 398 333 405.5 c 128,-1,20
 319 413 319 413 302 413 c 0,21,22
 267 413 267 413 246 378.5 c 128,-1,23
 225 344 225 344 225 268 c 0,24,25
 225 180 225 180 242.5 151 c 128,-1,26
 260 122 260 122 292 122 c 0,27,16
 334 122 334 122 361 169 c 1,17,-1
EndSplineSet
Substitution2: "'smcp' Lowercase to Small Capitals lookup 27 subtable" d.sc
Substitution2: "'aalt' Access All Alternates lookup 0 subtable" d.sc
EndChar

StartChar: eth
Encoding: 240 240 399
Width: 584
GlyphClass: 2
Flags: W
AnchorPoint: "Anchor-18" 0 0 basechar 0
AnchorPoint: "Anchor-17" 0 0 basechar 0
AnchorPoint: "Anchor-16" 315 744 basechar 0
AnchorPoint: "Anchor-15" 0 0 basechar 0
AnchorPoint: "Anchor-14" 287 0 basechar 0
LayerCount: 2
Fore
SplineSet
516.5 506.5 m 128,-1,1
 562 411 562 411 562 284 c 0,2,3
 562 201 562 201 530.5 131.5 c 128,-1,4
 499 62 499 62 436.5 21 c 128,-1,5
 374 -20 374 -20 286 -20 c 0,6,7
 209 -20 209 -20 148 10.5 c 128,-1,8
 87 41 87 41 52 98 c 128,-1,9
 17 155 17 155 17 233 c 0,10,11
 17 305 17 305 46.5 362 c 128,-1,12
 76 419 76 419 124.5 450.5 c 128,-1,13
 173 482 173 482 229 482 c 0,14,15
 266 482 266 482 295 473 c 128,-1,16
 324 464 324 464 352 447 c 1,17,18
 338 484 338 484 317 512 c 128,-1,19
 296 540 296 540 261 567 c 1,20,-1
 216 521 l 1,21,-1
 94 576 l 1,22,-1
 139 624 l 1,23,24
 96 634 96 634 63 639 c 1,25,-1
 101 763 l 1,26,27
 175 753 175 753 244 731 c 1,28,-1
 320 811 l 1,29,-1
 417 726 l 1,30,-1
 366 674 l 1,31,0
 471 602 471 602 516.5 506.5 c 128,-1,1
345 151 m 128,-1,33
 360 181 360 181 360 250 c 2,34,-1
 360 326 l 1,35,36
 329 348 329 348 289 348 c 0,37,38
 218 348 218 348 218 235 c 0,39,40
 218 173 218 173 236 147 c 128,-1,41
 254 121 254 121 290 121 c 0,42,32
 330 121 330 121 345 151 c 128,-1,33
EndSplineSet
Substitution2: "'smcp' Lowercase to Small Capitals lookup 27 subtable" eth.sc
Substitution2: "'aalt' Access All Alternates lookup 0 subtable" eth.sc
EndChar

StartChar: uni0238
Encoding: 568 568 400
Width: 878
GlyphClass: 2
Flags: W
AnchorPoint: "Anchor-18" 0 0 basechar 0
AnchorPoint: "Anchor-17" 0 0 basechar 0
AnchorPoint: "Anchor-16" 439 744 basechar 0
AnchorPoint: "Anchor-15" 0 0 basechar 0
AnchorPoint: "Anchor-14" 439 0 basechar 0
LayerCount: 2
Fore
SplineSet
809 478 m 128,-1,1
 856 402 856 402 856 266 c 0,2,3
 856 185 856 185 830.5 119.5 c 128,-1,4
 805 54 805 54 759 17 c 128,-1,5
 713 -20 713 -20 652 -20 c 0,6,7
 614 -20 614 -20 580.5 -1.5 c 128,-1,8
 547 17 547 17 525 52 c 1,9,-1
 517 0 l 1,10,-1
 363 0 l 1,11,-1
 355 55 l 1,12,13
 300 -20 300 -20 215 -20 c 0,14,15
 121 -20 121 -20 71.5 57.5 c 128,-1,16
 22 135 22 135 22 270 c 0,17,18
 22 352 22 352 48.5 416.5 c 128,-1,19
 75 481 75 481 122.5 517.5 c 128,-1,20
 170 554 170 554 230 554 c 0,21,22
 262 554 262 554 290.5 540 c 128,-1,23
 319 526 319 526 341 497 c 1,24,-1
 341 744 l 1,25,-1
 539 764 l 1,26,-1
 539 486 l 1,27,28
 562 517 562 517 597.5 535.5 c 128,-1,29
 633 554 633 554 674 554 c 0,30,0
 762 554 762 554 809 478 c 128,-1,1
312.5 134 m 128,-1,32
 328 146 328 146 341 169 c 1,33,-1
 341 379 l 1,34,35
 316 413 316 413 288 413 c 256,36,37
 260 413 260 413 242.5 378.5 c 128,-1,38
 225 344 225 344 225 268 c 0,39,40
 225 182 225 182 241.5 152 c 128,-1,41
 258 122 258 122 284 122 c 0,42,31
 297 122 297 122 312.5 134 c 128,-1,32
636.5 154.5 m 128,-1,44
 653 188 653 188 653 266 c 0,45,46
 653 351 653 351 638 381.5 c 128,-1,47
 623 412 623 412 599 412 c 0,48,49
 567 412 567 412 539 369 c 1,50,-1
 539 164 l 1,51,52
 551 144 551 144 565.5 132.5 c 128,-1,53
 580 121 580 121 594 121 c 0,54,43
 620 121 620 121 636.5 154.5 c 128,-1,44
EndSplineSet
EndChar

StartChar: dcroat
Encoding: 273 273 403
Width: 611
GlyphClass: 2
Flags: W
AnchorPoint: "Anchor-18" 301 267 basechar 0
AnchorPoint: "Anchor-17" 569 744 basechar 0
AnchorPoint: "Anchor-16" 296 744 basechar 0
AnchorPoint: "Anchor-15" 0 0 basechar 0
AnchorPoint: "Anchor-14" 308 0 basechar 0
LayerCount: 2
Fore
SplineSet
611 696 m 1,0,-1
 611 590 l 1,1,-1
 559 590 l 1,2,-1
 559 0 l 1,3,-1
 383 0 l 1,4,-1
 376 55 l 1,5,6
 319 -20 319 -20 225 -20 c 0,7,8
 124 -20 124 -20 73 57 c 128,-1,9
 22 134 22 134 22 270 c 0,10,11
 22 352 22 352 50 416.5 c 128,-1,12
 78 481 78 481 128.5 517.5 c 128,-1,13
 179 554 179 554 245 554 c 0,14,15
 314 554 314 554 361 512 c 1,16,-1
 361 590 l 1,17,-1
 237 590 l 1,18,-1
 237 696 l 1,19,-1
 361 696 l 1,20,-1
 361 764 l 1,21,-1
 559 744 l 1,22,-1
 559 696 l 1,23,-1
 611 696 l 1,0,-1
361 169 m 1,25,-1
 361 383 l 1,26,27
 347 398 347 398 333 405.5 c 128,-1,28
 319 413 319 413 302 413 c 0,29,30
 267 413 267 413 246 378.5 c 128,-1,31
 225 344 225 344 225 268 c 0,32,33
 225 180 225 180 242.5 151 c 128,-1,34
 260 122 260 122 292 122 c 0,35,24
 334 122 334 122 361 169 c 1,25,-1
EndSplineSet
Substitution2: "'smcp' Lowercase to Small Capitals lookup 27 subtable" dcroat.sc
Substitution2: "'aalt' Access All Alternates lookup 0 subtable" dcroat.sc
EndChar

StartChar: uni0221
Encoding: 545 545 404
Width: 819
GlyphClass: 2
Flags: W
AnchorPoint: "Anchor-18" 0 0 basechar 0
AnchorPoint: "Anchor-17" 0 0 basechar 0
AnchorPoint: "Anchor-16" 410 744 basechar 0
AnchorPoint: "Anchor-15" 0 0 basechar 0
AnchorPoint: "Anchor-14" 410 -215 basechar 0
LayerCount: 2
Fore
SplineSet
782.5 225.5 m 128,-1,1
 819 193 819 193 819 137 c 0,2,3
 819 58 819 58 762 19 c 128,-1,4
 705 -20 705 -20 615 -20 c 0,5,6
 600 -20 600 -20 574 -18 c 1,7,-1
 541 -90 l 1,8,-1
 452 -56 l 1,9,-1
 482 6 l 1,10,11
 427 31 427 31 395 81 c 1,12,13
 363 32 363 32 322 6 c 128,-1,14
 281 -20 281 -20 225 -20 c 0,15,16
 124 -20 124 -20 73 57 c 128,-1,17
 22 134 22 134 22 270 c 0,18,19
 22 353 22 353 49.5 417.5 c 128,-1,20
 77 482 77 482 128.5 518 c 128,-1,21
 180 554 180 554 250 554 c 0,22,23
 280 554 280 554 309.5 543 c 128,-1,24
 339 532 339 532 361 512 c 1,25,-1
 361 764 l 1,26,-1
 559 744 l 1,27,-1
 559 220 l 2,28,29
 559 189 559 189 563 172 c 1,30,31
 586 218 586 218 615.5 238 c 128,-1,32
 645 258 645 258 691 258 c 0,33,0
 746 258 746 258 782.5 225.5 c 128,-1,1
364 174 m 1,35,36
 361 195 361 195 361 220 c 2,37,-1
 361 383 l 1,38,39
 346 398 346 398 333 405.5 c 128,-1,40
 320 413 320 413 303 413 c 0,41,42
 267 413 267 413 246 378.5 c 128,-1,43
 225 344 225 344 225 268 c 0,44,45
 225 207 225 207 234 175 c 128,-1,46
 243 143 243 143 257.5 132.5 c 128,-1,47
 272 122 272 122 294 122 c 0,48,34
 335 122 335 122 364 174 c 1,35,36
680 121.5 m 128,-1,50
 691 128 691 128 691 141 c 0,51,52
 691 151 691 151 685.5 156.5 c 128,-1,53
 680 162 680 162 670 162 c 0,54,55
 658 162 658 162 649.5 152.5 c 128,-1,56
 641 143 641 143 630 116 c 1,57,58
 637 115 637 115 652 115 c 0,59,49
 669 115 669 115 680 121.5 c 128,-1,50
EndSplineSet
EndChar

StartChar: uni018D
Encoding: 397 397 407
Width: 576
GlyphClass: 2
Flags: W
AnchorPoint: "Anchor-18" 0 0 basechar 0
AnchorPoint: "Anchor-17" 0 0 basechar 0
AnchorPoint: "Anchor-16" 288 534 basechar 0
AnchorPoint: "Anchor-15" 0 0 basechar 0
AnchorPoint: "Anchor-14" 288 -215 basechar 0
LayerCount: 2
Fore
SplineSet
486 12.5 m 128,-1,1
 506 -20 506 -20 506 -65 c 0,2,3
 506 -136 506 -136 447.5 -181.5 c 128,-1,4
 389 -227 389 -227 268 -227 c 0,5,6
 206 -227 206 -227 154.5 -209 c 128,-1,7
 103 -191 103 -191 69 -162 c 1,8,-1
 156 -62 l 1,9,10
 207 -94 207 -94 257 -94 c 0,11,12
 320 -94 320 -94 320 -59 c 0,13,14
 320 -46 320 -46 314.5 -37 c 128,-1,15
 309 -28 309 -28 290.5 -18 c 128,-1,16
 272 -8 272 -8 232 8 c 0,17,18
 117 53 117 53 67 115.5 c 128,-1,19
 17 178 17 178 17 283 c 0,20,21
 17 368 17 368 50.5 429 c 128,-1,22
 84 490 84 490 145 522 c 128,-1,23
 206 554 206 554 288 554 c 0,24,25
 415 554 415 554 487 484.5 c 128,-1,26
 559 415 559 415 559 292 c 0,27,28
 559 223 559 223 521 169 c 128,-1,29
 483 115 483 115 405 80 c 1,30,0
 466 45 466 45 486 12.5 c 128,-1,1
226 211 m 128,-1,32
 232 186 232 186 251 168 c 128,-1,33
 270 150 270 150 310 129 c 1,34,35
 340 160 340 160 349 195 c 128,-1,36
 358 230 358 230 358 282 c 0,37,38
 358 351 358 351 341.5 381.5 c 128,-1,39
 325 412 325 412 289 412 c 0,40,41
 254 412 254 412 237 381.5 c 128,-1,42
 220 351 220 351 220 282 c 0,43,31
 220 236 220 236 226 211 c 128,-1,32
EndSplineSet
EndChar

StartChar: uni02A4
Encoding: 676 676 408
Width: 1060
GlyphClass: 2
Flags: W
AnchorPoint: "Anchor-18" 301 267 basechar 0
AnchorPoint: "Anchor-17" 569 744 basechar 0
AnchorPoint: "Anchor-16" 575 744 basechar 0
AnchorPoint: "Anchor-15" 0 0 basechar 0
AnchorPoint: "Anchor-14" 764 -215 basechar 0
LayerCount: 2
Fore
SplineSet
997.5 154.5 m 128,-1,1
 1050 104 1050 104 1050 11 c 0,2,3
 1050 -56 1050 -56 1016 -110 c 128,-1,4
 982 -164 982 -164 917.5 -195.5 c 128,-1,5
 853 -227 853 -227 764 -227 c 0,6,7
 603 -227 603 -227 513 -117 c 1,8,-1
 615 -18 l 1,9,10
 651 -50 651 -50 682 -64.5 c 128,-1,11
 713 -79 713 -79 750 -79 c 0,12,13
 793 -79 793 -79 820.5 -53 c 128,-1,14
 848 -27 848 -27 848 25 c 0,15,16
 848 70 848 70 820.5 89.5 c 128,-1,17
 793 109 793 109 741 109 c 2,18,-1
 640 109 l 1,19,-1
 640 216 l 1,20,-1
 790 390 l 1,21,-1
 559 390 l 1,22,-1
 559 0 l 1,23,-1
 383 0 l 1,24,-1
 376 55 l 1,25,26
 319 -20 319 -20 225 -20 c 0,27,28
 124 -20 124 -20 73 57 c 128,-1,29
 22 134 22 134 22 270 c 0,30,31
 22 352 22 352 50 416.5 c 128,-1,32
 78 481 78 481 128.5 517.5 c 128,-1,33
 179 554 179 554 245 554 c 0,34,35
 314 554 314 554 361 512 c 1,36,-1
 361 764 l 1,37,-1
 559 744 l 1,38,-1
 559 534 l 1,39,-1
 1013 534 l 1,40,-1
 1013 402 l 1,41,-1
 847 215 l 1,42,0
 945 205 945 205 997.5 154.5 c 128,-1,1
361 169 m 1,44,-1
 361 383 l 1,45,46
 347 398 347 398 333 405.5 c 128,-1,47
 319 413 319 413 302 413 c 0,48,49
 267 413 267 413 246 378.5 c 128,-1,50
 225 344 225 344 225 268 c 0,51,52
 225 180 225 180 242.5 151 c 128,-1,53
 260 122 260 122 292 122 c 0,54,43
 334 122 334 122 361 169 c 1,44,-1
EndSplineSet
EndChar

StartChar: uni0257
Encoding: 599 599 409
Width: 601
GlyphClass: 2
Flags: W
AnchorPoint: "Anchor-18" 0 0 basechar 0
AnchorPoint: "Anchor-17" 0 0 basechar 0
AnchorPoint: "Anchor-16" 311 744 basechar 0
AnchorPoint: "Anchor-15" 0 0 basechar 0
AnchorPoint: "Anchor-14" 301 0 basechar 0
LayerCount: 2
Fore
SplineSet
719 727 m 1,1,-1
 667 605 l 1,2,3
 631 622 631 622 603 622 c 0,4,5
 580 622 580 622 569.5 609 c 128,-1,6
 559 596 559 596 559 568 c 2,7,-1
 559 0 l 1,8,-1
 383 0 l 1,9,-1
 376 55 l 1,10,11
 319 -20 319 -20 225 -20 c 0,12,13
 124 -20 124 -20 73 57 c 128,-1,14
 22 134 22 134 22 270 c 0,15,16
 22 353 22 353 49.5 417.5 c 128,-1,17
 77 482 77 482 128.5 518 c 128,-1,18
 180 554 180 554 250 554 c 0,19,20
 280 554 280 554 309.5 543 c 128,-1,21
 339 532 339 532 361 512 c 1,22,-1
 361 565 l 2,23,24
 361 652 361 652 415 708 c 128,-1,25
 469 764 469 764 572 764 c 0,26,0
 654 764 654 764 719 727 c 1,1,-1
361 169 m 1,28,-1
 361 383 l 1,29,30
 346 398 346 398 333 405.5 c 128,-1,31
 320 413 320 413 303 413 c 0,32,33
 267 413 267 413 246 378.5 c 128,-1,34
 225 344 225 344 225 268 c 0,35,36
 225 207 225 207 234 175 c 128,-1,37
 243 143 243 143 257.5 132.5 c 128,-1,38
 272 122 272 122 294 122 c 0,39,27
 334 122 334 122 361 169 c 1,28,-1
EndSplineSet
Substitution2: "'smcp' Lowercase to Small Capitals lookup 27 subtable" uni0257.sc
Substitution2: "'aalt' Access All Alternates lookup 0 subtable" uni0257.sc
EndChar

StartChar: uni0256
Encoding: 598 598 411
Width: 601
GlyphClass: 2
Flags: W
AnchorPoint: "Anchor-18" 0 0 basechar 0
AnchorPoint: "Anchor-17" 0 0 basechar 0
AnchorPoint: "Anchor-16" 468 744 basechar 0
AnchorPoint: "Anchor-15" 0 0 basechar 0
AnchorPoint: "Anchor-14" 301 -215 basechar 0
LayerCount: 2
Fore
SplineSet
743 -182 m 1,0,1
 681 -227 681 -227 585 -227 c 0,2,3
 482 -227 482 -227 421.5 -173 c 128,-1,4
 361 -119 361 -119 361 -16 c 2,5,-1
 361 38 l 1,6,7
 307 -20 307 -20 225 -20 c 0,8,9
 124 -20 124 -20 73 57 c 128,-1,10
 22 134 22 134 22 270 c 0,11,12
 22 353 22 353 49.5 417.5 c 128,-1,13
 77 482 77 482 128.5 518 c 128,-1,14
 180 554 180 554 250 554 c 0,15,16
 280 554 280 554 309.5 543 c 128,-1,17
 339 532 339 532 361 512 c 1,18,-1
 361 764 l 1,19,-1
 559 744 l 1,20,-1
 559 -34 l 2,21,22
 559 -60 559 -60 572.5 -73.5 c 128,-1,23
 586 -87 586 -87 611 -87 c 0,24,25
 630 -87 630 -87 644 -83 c 128,-1,26
 658 -79 658 -79 679 -69 c 1,27,-1
 743 -182 l 1,0,1
361 169 m 1,29,-1
 361 383 l 1,30,31
 346 398 346 398 333 405.5 c 128,-1,32
 320 413 320 413 303 413 c 0,33,34
 267 413 267 413 246 378.5 c 128,-1,35
 225 344 225 344 225 268 c 0,36,37
 225 207 225 207 234 175 c 128,-1,38
 243 143 243 143 257.5 132.5 c 128,-1,39
 272 122 272 122 294 122 c 0,40,28
 334 122 334 122 361 169 c 1,29,-1
EndSplineSet
Substitution2: "'smcp' Lowercase to Small Capitals lookup 27 subtable" uni0256.sc
Substitution2: "'aalt' Access All Alternates lookup 0 subtable" uni0256.sc
EndChar

StartChar: uni018C
Encoding: 396 396 412
Width: 601
GlyphClass: 2
Flags: W
AnchorPoint: "Anchor-18" 0 0 basechar 0
AnchorPoint: "Anchor-17" 0 0 basechar 0
AnchorPoint: "Anchor-16" 301 744 basechar 0
AnchorPoint: "Anchor-15" 0 0 basechar 0
AnchorPoint: "Anchor-14" 301 0 basechar 0
LayerCount: 2
Fore
SplineSet
559 0 m 1,0,-1
 383 0 l 1,1,-1
 376 55 l 1,2,3
 319 -20 319 -20 225 -20 c 0,4,5
 124 -20 124 -20 73 55.5 c 128,-1,6
 22 131 22 131 22 260 c 0,7,8
 22 338 22 338 49.5 400.5 c 128,-1,9
 77 463 77 463 129 498.5 c 128,-1,10
 181 534 181 534 250 534 c 0,11,12
 280 534 280 534 309.5 523 c 128,-1,13
 339 512 339 512 361 492 c 1,14,-1
 361 605 l 1,15,-1
 157 605 l 1,16,-1
 157 744 l 1,17,-1
 559 744 l 1,18,-1
 559 0 l 1,0,-1
361 169 m 1,20,-1
 361 363 l 1,21,22
 346 378 346 378 333 385.5 c 128,-1,23
 320 393 320 393 303 393 c 0,24,25
 268 393 268 393 246.5 360.5 c 128,-1,26
 225 328 225 328 225 258 c 0,27,28
 225 177 225 177 243 149.5 c 128,-1,29
 261 122 261 122 294 122 c 0,30,19
 334 122 334 122 361 169 c 1,20,-1
EndSplineSet
Substitution2: "'smcp' Lowercase to Small Capitals lookup 27 subtable" uni018C.sc
Substitution2: "'aalt' Access All Alternates lookup 0 subtable" uni018C.sc
EndChar

StartChar: uni02A3
Encoding: 675 675 414
Width: 1022
GlyphClass: 2
Flags: W
AnchorPoint: "Anchor-18" 301 267 basechar 0
AnchorPoint: "Anchor-17" 569 744 basechar 0
AnchorPoint: "Anchor-16" 511 744 basechar 0
AnchorPoint: "Anchor-15" 0 0 basechar 0
AnchorPoint: "Anchor-14" 511 0 basechar 0
LayerCount: 2
Fore
SplineSet
1012 146 m 1,0,-1
 995 0 l 1,1,-1
 383 0 l 1,2,-1
 376 55 l 1,3,4
 319 -20 319 -20 225 -20 c 0,5,6
 124 -20 124 -20 73 57 c 128,-1,7
 22 134 22 134 22 270 c 0,8,9
 22 352 22 352 50 416.5 c 128,-1,10
 78 481 78 481 128.5 517.5 c 128,-1,11
 179 554 179 554 245 554 c 0,12,13
 314 554 314 554 361 512 c 1,14,-1
 361 764 l 1,15,-1
 559 744 l 1,16,-1
 559 534 l 1,17,-1
 1005 534 l 1,18,-1
 1005 397 l 1,19,-1
 776 146 l 1,20,-1
 1012 146 l 1,0,-1
361 169 m 1,22,-1
 361 383 l 1,23,24
 347 398 347 398 333 405.5 c 128,-1,25
 319 413 319 413 302 413 c 0,26,27
 267 413 267 413 246 378.5 c 128,-1,28
 225 344 225 344 225 268 c 0,29,30
 225 180 225 180 242.5 151 c 128,-1,31
 260 122 260 122 292 122 c 0,32,21
 334 122 334 122 361 169 c 1,22,-1
559 390 m 1,33,-1
 559 137 l 1,34,-1
 787 390 l 1,35,-1
 559 390 l 1,33,-1
EndSplineSet
EndChar

StartChar: uni02A5
Encoding: 677 677 416
Width: 1149
GlyphClass: 2
Flags: W
AnchorPoint: "Anchor-18" 301 267 basechar 0
AnchorPoint: "Anchor-17" 569 744 basechar 0
AnchorPoint: "Anchor-16" 575 744 basechar 0
AnchorPoint: "Anchor-15" 0 0 basechar 0
AnchorPoint: "Anchor-14" 575 -215 basechar 0
LayerCount: 2
Fore
SplineSet
1125.5 261.5 m 128,-1,1
 1164 226 1164 226 1164 165 c 0,2,3
 1164 86 1164 86 1109 42.5 c 128,-1,4
 1054 -1 1054 -1 938 0 c 1,5,6
 932 -30 932 -30 932 -99 c 2,7,-1
 932 -132 l 1,8,-1
 827 -132 l 1,9,10
 827 -54 827 -54 833 0 c 1,11,-1
 383 0 l 1,12,-1
 376 55 l 1,13,14
 319 -20 319 -20 225 -20 c 0,15,16
 124 -20 124 -20 73 57 c 128,-1,17
 22 134 22 134 22 270 c 0,18,19
 22 352 22 352 50 416.5 c 128,-1,20
 78 481 78 481 128.5 517.5 c 128,-1,21
 179 554 179 554 245 554 c 0,22,23
 314 554 314 554 361 512 c 1,24,-1
 361 764 l 1,25,-1
 559 744 l 1,26,-1
 559 534 l 1,27,-1
 1005 534 l 1,28,-1
 1005 407 l 1,29,-1
 766 146 l 1,30,-1
 853 146 l 1,31,32
 877 227 877 227 921 262 c 128,-1,33
 965 297 965 297 1027 297 c 0,34,0
 1087 297 1087 297 1125.5 261.5 c 128,-1,1
361 169 m 1,36,-1
 361 383 l 1,37,38
 347 398 347 398 333 405.5 c 128,-1,39
 319 413 319 413 302 413 c 0,40,41
 267 413 267 413 246 378.5 c 128,-1,42
 225 344 225 344 225 268 c 0,43,44
 225 180 225 180 242.5 151 c 128,-1,45
 260 122 260 122 292 122 c 0,46,35
 334 122 334 122 361 169 c 1,36,-1
559 390 m 1,47,-1
 559 142 l 1,48,-1
 787 390 l 1,49,-1
 559 390 l 1,47,-1
1036 178 m 0,51,52
 1036 188 1036 188 1029.5 194.5 c 128,-1,53
 1023 201 1023 201 1011 201 c 0,54,55
 973 201 973 201 957 146 c 1,56,-1
 984 146 l 2,57,50
 1036 146 1036 146 1036 178 c 0,51,52
EndSplineSet
EndChar

StartChar: e
Encoding: 101 101 417
Width: 557
GlyphClass: 2
Flags: W
AnchorPoint: "Anchor-18" 0 0 basechar 0
AnchorPoint: "Anchor-17" 0 0 basechar 0
AnchorPoint: "Anchor-16" 285 534 basechar 0
AnchorPoint: "Anchor-15" 455 11 basechar 0
AnchorPoint: "Anchor-14" 294 0 basechar 0
LayerCount: 2
Fore
SplineSet
541 211 m 1,1,-1
 217 211 l 1,2,3
 225 157 225 157 250.5 138.5 c 128,-1,4
 276 120 276 120 324 120 c 0,5,6
 352 120 352 120 381 131.5 c 128,-1,7
 410 143 410 143 445 167 c 1,8,-1
 525 59 l 1,9,10
 428 -20 428 -20 305 -20 c 0,11,12
 163 -20 163 -20 90 58.5 c 128,-1,13
 17 137 17 137 17 266 c 0,14,15
 17 346 17 346 47.5 411.5 c 128,-1,16
 78 477 78 477 138 515.5 c 128,-1,17
 198 554 198 554 283 554 c 0,18,19
 362 554 362 554 421 521 c 128,-1,20
 480 488 480 488 512.5 425 c 128,-1,21
 545 362 545 362 545 274 c 0,22,0
 545 249 545 249 541 211 c 1,1,-1
350 330 m 2,23,24
 349 377 349 377 335.5 403 c 128,-1,25
 322 429 322 429 287 429 c 0,26,27
 254 429 254 429 237.5 406 c 128,-1,28
 221 383 221 383 216 323 c 1,29,-1
 350 323 l 1,30,-1
 350 330 l 2,23,24
EndSplineSet
Substitution2: "'smcp' Lowercase to Small Capitals lookup 27 subtable" e.sc
Substitution2: "'aalt' Access All Alternates lookup 0 subtable" e.sc
EndChar

